<?xml version="1.0" encoding="utf-8"?>
<!-- Generator: Adobe Illustrator 21.1.0, SVG Export Plug-In . SVG Version: 6.00 Build 0)  -->
<svg version="1.1" id="Layer_1" xmlns="http://www.w3.org/2000/svg" xmlns:xlink="http://www.w3.org/1999/xlink" x="0px" y="0px"
	 viewBox="0 0 400 800" style="enable-background:new 0 0 400 800;" xml:space="preserve">
<style type="text/css">
	.st0{fill:#F5F5F5;}
	.st1{fill:#CECECE;}
	.st2{fill:#FFFFFF;}
	.st3{clip-path:url(#SVGID_2_);}
	.st4{fill:#FFC412;}
	.st5{fill:#733C8B;}
	.st6{fill:#E8318A;}
	.st7{fill:#15AADF;}
	.st8{enable-background:new    ;}
	.st9{fill:none;}
	.st10{fill:#1BABE2;}
	.st11{fill:#202020;}
	.st12{fill:#D5D5D5;}
	.st13{fill:#DEDEDE;}
	.st14{fill:#1BA2DC;}
	.st15{fill:url(#SVGID_3_);}
	.st16{fill:url(#SVGID_4_);}
	.st17{fill:url(#SVGID_5_);}
	.st18{fill:url(#SVGID_6_);}
	.st19{fill:url(#SVGID_7_);}
	.st20{clip-path:url(#SVGID_9_);fill:url(#SVGID_10_);}
	.st21{clip-path:url(#SVGID_12_);fill:url(#SVGID_13_);}
	.st22{clip-path:url(#SVGID_15_);fill:url(#SVGID_16_);}
	.st23{clip-path:url(#SVGID_18_);fill:url(#SVGID_19_);}
	.st24{clip-path:url(#SVGID_21_);fill:url(#SVGID_22_);}
	.st25{clip-path:url(#SVGID_24_);fill:url(#SVGID_25_);}
	.st26{clip-path:url(#SVGID_27_);fill:url(#SVGID_28_);}
	.st27{clip-path:url(#SVGID_30_);fill:url(#SVGID_31_);}
	.st28{clip-path:url(#SVGID_33_);fill:url(#SVGID_34_);}
	.st29{clip-path:url(#SVGID_36_);fill:url(#SVGID_37_);}
	.st30{clip-path:url(#SVGID_39_);fill:url(#SVGID_40_);}
	.st31{clip-path:url(#SVGID_42_);fill:url(#SVGID_43_);}
	.st32{clip-path:url(#SVGID_45_);fill:url(#SVGID_46_);}
	.st33{clip-path:url(#SVGID_48_);fill:url(#SVGID_49_);}
</style>
<g id="bg">
	<rect y="53" class="st0" width="400" height="436"/>
</g>
<g id="shadow">
	<path class="st1" d="M156.6,206c-4.7,0-8.6-3.8-8.6-8.5s3.8-8.5,8.6-8.5h31.6c0.3-6.2,5.5-11.2,11.8-11.2s11.5,4.9,11.8,11.2h31.6
		c4.7,0,8.6,3.8,8.6,8.5s-3.8,8.5-8.6,8.5H156.6 M343.9,159.7H56.2c-6.5,0-11.8,5.3-11.8,11.8v457.9c0,6.5,5.3,11.8,11.8,11.8h287.7
		c6.5,0,11.8-5.3,11.8-11.8V171.5C355.7,165,350.4,159.7,343.9,159.7"/>
</g>
<g id="body">
	<path class="st2" d="M156.8,205c-4.7,0-8.5-3.8-8.5-8.5s3.8-8.5,8.5-8.5h31.5c0.3-6.2,5.5-11.1,11.8-11.1s11.4,4.9,11.8,11.1h31.5
		c4.7,0,8.5,3.8,8.5,8.5s-3.8,8.5-8.5,8.5H156.8 M343.1,158.9H56.9c-6.5,0-11.8,5.3-11.8,11.8v457.6c0,6.5,5.3,11.8,11.8,11.8h286.3
		c6.5,0,11.8-5.3,11.8-11.8V170.7C354.9,164.2,349.7,158.9,343.1,158.9"/>
</g>
<g id="Layer_7">
	<g>
		<g>
			<g>
				<g>
					<g>
						<defs>
							<path id="SVGID_1_" d="M156.8,205c-4.7,0-8.5-3.8-8.5-8.5s3.8-8.5,8.5-8.5h31.5c0.3-6.2,5.5-11.1,11.8-11.1
								s11.4,4.9,11.8,11.1h31.5c4.7,0,8.5,3.8,8.5,8.5s-3.8,8.5-8.5,8.5H156.8 M343.1,158.9H56.9c-6.5,0-11.8,5.3-11.8,11.8v457.6
								c0,6.5,5.3,11.8,11.8,11.8h286.3c6.5,0,11.8-5.3,11.8-11.8V170.7C354.9,164.2,349.7,158.9,343.1,158.9"/>
						</defs>
						<clipPath id="SVGID_2_">
							<use xlink:href="#SVGID_1_"  style="overflow:visible;"/>
						</clipPath>
						<g class="st3">
							<polygon class="st4" points="199.5,605.9 37.5,537.1 37.5,308.1 199.5,376.9 							"/>
							<polygon class="st5" points="37.5,674.7 199.5,605.9 199.5,376.9 37.5,445.7 							"/>
							<polygon class="st5" points="359.5,673.7 197.5,604.9 197.5,375.9 359.5,444.7 							"/>
							<polygon class="st5" points="361.5,674.7 199.5,605.9 199.5,376.9 361.5,445.7 							"/>
							<polygon class="st6" points="199.5,670.8 37.5,602 37.5,373 199.5,441.8 							"/>
							<polygon class="st2" points="361.5,445.7 199.5,376.9 199.5,147.9 361.5,216.7 							"/>
							<polygon class="st4" points="37.5,445.7 199.5,376.9 199.5,147.9 37.5,216.7 							"/>
							<polygon class="st5" points="37.5,739.5 199.5,670.8 199.5,441.8 37.5,510.5 							"/>
							<polygon class="st7" points="199.5,376.9 37.5,308.1 37.5,79.1 199.5,147.9 							"/>
							<polygon class="st4" points="361.5,743.6 199.5,673.9 199.5,441.8 361.5,511.5 							"/>
						</g>
					</g>
				</g>
			</g>
		</g>
	</g>
</g>
<g id="txtx">
	<g class="st8">
		<path class="st2" d="M76.6,555.8c0-35.3,35.8-84.9,59.4-106.8c1.9-1.9,4.7-3.7,7.5-5.6c2.6-1.6,5.1-1.6,7-1.6
			c6.5,0,16.6,8.6,16.6,17.1c0,3.3-2.1,6.1-4.9,9.6c-9.4,11.5-24.5,26.4-32.3,37.4l0.5,0.5c4.2-1.9,9.6-2.8,14.7-2.8
			c28.1,0,48.9,24.8,48.9,52.4c0,30.4-24.1,58-58.7,58C99.3,613.8,76.6,586.9,76.6,555.8z M113.1,555.8c0,13.1,8.2,24.3,22.2,24.3
			c13.3,0,22.2-10.8,22.2-24.3c0-12.4-7.5-24.3-22.2-24.3C121.9,531.5,113.1,542.1,113.1,555.8z"/>
		<path class="st2" d="M206.5,527.8c0-38.1,14.7-86,61.9-86s61.9,47.9,61.9,86s-14.7,86-61.9,86S206.5,565.9,206.5,527.8z
			 M294,527.8c0-17.8-1.6-54.2-25.5-54.2c-23.8,0-25.5,36.5-25.5,54.2c0,16.6,1.6,54.2,25.5,54.2C292.3,582,294,544.4,294,527.8z"/>
	</g>
	<g>
		<rect x="217" y="247" class="st9" width="99.8" height="41.3"/>
	</g>
	<g class="st8">
		<path class="st10" d="M219.2,251.3c-0.9-0.3-1.9-0.6-1.9-1.9c0-0.8,0.7-1.7,1.9-1.8v-0.5c0-0.1,0.1-0.2,0.2-0.2s0.2,0.1,0.2,0.2
			v0.5c0.8,0.1,1.5,0.4,1.5,0.8c0,0.2-0.2,0.4-0.4,0.4c-0.3,0-0.5-0.4-1.1-0.5v2.2c0.9,0.3,2,0.7,2,2c0,1.1-0.7,2-2,2.2v0.5
			c0,0.1-0.1,0.2-0.2,0.2s-0.2-0.1-0.2-0.2v-0.5c-1,0-2-0.5-2-0.9c0-0.2,0.1-0.4,0.3-0.4c0.4,0,0.7,0.5,1.6,0.5V251.3z M219.2,248.3
			c-0.6,0.1-1,0.5-1,1s0.4,0.8,1,1V248.3z M219.6,254c0.7-0.1,1.1-0.7,1.1-1.4c0-0.7-0.5-1-1.1-1.2V254z"/>
		<path class="st10" d="M222.3,252.3c0-2.1,1.4-3.7,2.5-4.6c0.2-0.1,0.3-0.2,0.4-0.2c0.1,0,0.4,0.1,0.4,0.4c0,0.1-0.1,0.2-0.3,0.5
			c-0.6,0.5-1,1-1.5,2h0c0.3-0.2,0.7-0.3,1.1-0.3c1.2,0,1.8,1.1,1.8,2.3c0,1.3-0.9,2.3-2.2,2.3C223.2,254.8,222.3,253.8,222.3,252.3
			z M224.5,254c0.9,0,1.2-0.7,1.2-1.5c0-0.9-0.4-1.5-1.2-1.5c-0.9,0-1.2,0.7-1.2,1.5C223.2,253.3,223.6,254,224.5,254z"/>
		<path class="st10" d="M229.8,247.5c1.3,0,2.3,1.3,2.3,3.6c0,2.3-1,3.6-2.3,3.6s-2.3-1.3-2.3-3.6
			C227.5,248.9,228.5,247.5,229.8,247.5z M229.8,254c0.8,0,1.4-0.9,1.4-2.9c0-2-0.6-2.9-1.4-2.9c-0.8,0-1.4,0.9-1.4,2.9
			C228.4,253.2,229.1,254,229.8,254z"/>
		<path class="st10" d="M238.8,251.3c0-0.8-0.4-1.2-1.1-1.2c-0.7,0-1.1,0.5-1.1,1.2v3c0,0.3-0.2,0.5-0.4,0.5s-0.4-0.2-0.4-0.5v-4.5
			c0-0.3,0.2-0.5,0.4-0.5s0.4,0.2,0.4,0.5v0.2l0,0c0.2-0.3,0.5-0.6,1.3-0.6c0.5,0,1.1,0.2,1.5,0.9c0.4-0.6,0.9-0.9,1.6-0.9
			c0.8,0,1.8,0.5,1.8,2v2.9c0,0.3-0.2,0.5-0.4,0.5s-0.4-0.2-0.4-0.5v-3c0-0.8-0.4-1.2-1.1-1.2c-0.7,0-1.1,0.5-1.1,1.2v3
			c0,0.3-0.2,0.5-0.4,0.5s-0.4-0.2-0.4-0.5V251.3z"/>
		<path class="st10" d="M243.7,250.2c-0.1-0.3-0.1-0.4-0.1-0.5c0-0.2,0.2-0.4,0.4-0.4c0.2,0,0.4,0.1,0.4,0.3l1.2,3.6h0l1.2-3.6
			c0.1-0.2,0.2-0.3,0.4-0.3c0.2,0,0.4,0.1,0.4,0.4c0,0.1,0,0.2-0.1,0.5l-2.2,6.3c-0.1,0.2-0.2,0.3-0.4,0.3c-0.2,0-0.4-0.2-0.4-0.4
			c0-0.1,0-0.2,0.1-0.5l0.6-1.5L243.7,250.2z"/>
		<path class="st10" d="M248.4,249.8c0-0.3,0.2-0.5,0.4-0.5c0.3,0,0.4,0.2,0.4,0.5v0.4h0c0.2-0.4,0.7-0.9,1.2-0.9
			c0.3,0,0.5,0.2,0.5,0.4c0,0.2-0.2,0.4-0.6,0.5c-0.5,0.1-1.2,0.5-1.2,1.5v2.5c0,0.3-0.2,0.5-0.4,0.5c-0.3,0-0.4-0.2-0.4-0.5V249.8z
			"/>
	</g>
	<g class="st8">
		<path class="st11" d="M256.4,249.8c0-0.3,0.2-0.5,0.4-0.5s0.4,0.2,0.4,0.5v0.4h0c0.2-0.4,0.7-0.9,1.2-0.9c0.3,0,0.5,0.2,0.5,0.4
			c0,0.2-0.2,0.4-0.5,0.5c-0.5,0.1-1.2,0.5-1.2,1.5v2.5c0,0.3-0.2,0.5-0.4,0.5s-0.4-0.2-0.4-0.5V249.8z"/>
		<path class="st11" d="M260.1,252.4c0,0.9,0.6,1.6,1.6,1.6c1.2,0,1.5-0.7,1.8-0.7c0.2,0,0.3,0.1,0.3,0.4c0,0.4-1.1,1.1-2.1,1.1
			c-1.7,0-2.4-1.3-2.4-2.7c0-1.4,0.9-2.7,2.4-2.7c1.4,0,2.3,1.3,2.3,2.6c0,0.3-0.1,0.5-0.5,0.5H260.1z M263,251.7
			c0-0.8-0.4-1.6-1.4-1.6c-1.1,0-1.5,0.8-1.5,1.6H263z"/>
		<path class="st11" d="M265.9,254.3c0,0.3-0.2,0.5-0.4,0.5c-0.3,0-0.4-0.2-0.4-0.5v-4.1h-0.4c-0.3,0-0.4-0.1-0.4-0.4
			c0-0.2,0.1-0.4,0.4-0.4h0.4v-1.2c0-0.8,0.5-1.1,1.2-1.1h0.3c0.2,0,0.5,0.1,0.5,0.4s-0.2,0.4-0.5,0.4h-0.2c-0.3,0-0.4,0.1-0.4,0.3
			v1.3h0.5c0.3,0,0.4,0.1,0.4,0.4c0,0.2-0.1,0.4-0.4,0.4h-0.5V254.3z M267.8,247.5c0.3,0,0.5,0.2,0.5,0.5s-0.2,0.5-0.5,0.5
			s-0.5-0.2-0.5-0.5S267.5,247.5,267.8,247.5z M268.2,254.3c0,0.3-0.2,0.5-0.4,0.5s-0.4-0.2-0.4-0.5v-4.5c0-0.3,0.2-0.5,0.4-0.5
			s0.4,0.2,0.4,0.5V254.3z"/>
		<path class="st11" d="M270.2,254.3c0,0.3-0.2,0.5-0.4,0.5s-0.4-0.2-0.4-0.5v-6.8c0-0.3,0.2-0.5,0.4-0.5s0.4,0.2,0.4,0.5V254.3z"/>
		<path class="st11" d="M272.3,254.3c0,0.3-0.2,0.5-0.4,0.5s-0.4-0.2-0.4-0.5v-6.8c0-0.3,0.2-0.5,0.4-0.5s0.4,0.2,0.4,0.5V254.3z"/>
		<path class="st11" d="M273.7,254.1c0.1-0.2,0.2-0.4,0.5-0.4c0.2,0,0.4,0.2,0.4,0.4c0,0.1,0,0.2-0.1,0.4l-0.6,1.1
			c-0.1,0.2-0.2,0.4-0.5,0.4c-0.2,0-0.4-0.2-0.4-0.4c0-0.1,0-0.2,0.1-0.4L273.7,254.1z"/>
		<path class="st11" d="M278.4,249.8c0-0.3,0.2-0.5,0.4-0.5s0.4,0.2,0.4,0.5v2.8c0,0.9,0.4,1.4,1.2,1.4c0.8,0,1.2-0.5,1.2-1.4v-2.8
			c0-0.3,0.2-0.5,0.4-0.5c0.3,0,0.4,0.2,0.4,0.5v2.8c0,1.6-1,2.1-2.1,2.1s-2.1-0.6-2.1-2.1V249.8z"/>
		<path class="st11" d="M285.5,249.3c0.7,0,1.8,0.4,1.8,0.9c0,0.2-0.1,0.4-0.4,0.4c-0.4,0-0.5-0.5-1.4-0.5c-0.5,0-0.9,0.2-0.9,0.7
			c0,0.9,2.8,0.8,2.8,2.4c0,1.1-0.9,1.6-1.9,1.6c-1.1,0-2-0.6-2-1c0-0.2,0.2-0.4,0.4-0.4c0.4,0,0.7,0.7,1.7,0.7c0.6,0,1-0.4,1-0.7
			c0-1-2.8-1-2.8-2.5C283.7,249.9,284.6,249.3,285.5,249.3z"/>
		<path class="st11" d="M288.8,252.4c0,0.9,0.6,1.6,1.6,1.6c1.2,0,1.5-0.7,1.8-0.7c0.2,0,0.3,0.1,0.3,0.4c0,0.4-1.1,1.1-2.1,1.1
			c-1.7,0-2.4-1.3-2.4-2.7c0-1.4,0.9-2.7,2.4-2.7c1.4,0,2.3,1.3,2.3,2.6c0,0.3-0.1,0.5-0.5,0.5H288.8z M291.7,251.7
			c0-0.8-0.4-1.6-1.4-1.6c-1.1,0-1.5,0.8-1.5,1.6H291.7z"/>
		<path class="st11" d="M297.1,254.3c0,0.3-0.2,0.5-0.4,0.5c-0.3,0-0.4-0.2-0.4-0.5v-4.1h-0.4c-0.3,0-0.4-0.1-0.4-0.4
			c0-0.2,0.1-0.4,0.4-0.4h0.4v-1.2c0-0.8,0.5-1.1,1.2-1.1h0.3c0.2,0,0.5,0.1,0.5,0.4s-0.2,0.4-0.5,0.4h-0.2c-0.3,0-0.4,0.1-0.4,0.3
			v1.3h0.5c0.3,0,0.4,0.1,0.4,0.4c0,0.2-0.1,0.4-0.4,0.4h-0.5V254.3z"/>
		<path class="st11" d="M300.7,249.3c1.5,0,2.3,1.3,2.3,2.7s-0.8,2.7-2.3,2.7s-2.3-1.3-2.3-2.7S299.2,249.3,300.7,249.3z M300.7,254
			c1.1,0,1.5-1.1,1.5-2s-0.4-2-1.5-2c-1.1,0-1.5,1.1-1.5,2S299.6,254,300.7,254z"/>
		<path class="st11" d="M303.9,249.8c0-0.3,0.2-0.5,0.4-0.5c0.3,0,0.4,0.2,0.4,0.5v0.4h0c0.2-0.4,0.7-0.9,1.2-0.9
			c0.3,0,0.5,0.2,0.5,0.4c0,0.2-0.2,0.4-0.5,0.5c-0.5,0.1-1.2,0.5-1.2,1.5v2.5c0,0.3-0.2,0.5-0.4,0.5c-0.3,0-0.4-0.2-0.4-0.5V249.8z
			"/>
	</g>
	<g class="st8">
		<path class="st11" d="M222,267.3c0,0.3-0.2,0.4-0.4,0.4c-0.2,0-0.4-0.1-0.4-0.4V267h0c-0.4,0.5-0.9,0.8-1.4,0.8
			c-1.5,0-2.3-1.3-2.3-2.7s0.8-2.7,2.3-2.7c0.6,0,1,0.3,1.4,0.7h0v-0.3c0-0.3,0.2-0.4,0.4-0.4c0.2,0,0.4,0.1,0.4,0.4V267.3z
			 M219.7,267c1.1,0,1.5-1.1,1.5-2s-0.4-2-1.5-2s-1.5,1.1-1.5,2S218.6,267,219.7,267z"/>
		<path class="st11" d="M224,267.3c0,0.3-0.2,0.5-0.4,0.5c-0.3,0-0.4-0.2-0.4-0.5v-6.8c0-0.3,0.2-0.5,0.4-0.5c0.3,0,0.4,0.2,0.4,0.5
			V267.3z"/>
		<path class="st11" d="M226.1,267.3c0,0.3-0.2,0.5-0.4,0.5s-0.4-0.2-0.4-0.5v-6.8c0-0.3,0.2-0.5,0.4-0.5s0.4,0.2,0.4,0.5V267.3z"/>
	</g>
	<g class="st8">
		<path class="st10" d="M231.1,262.8c0-0.3,0.2-0.5,0.4-0.5c0.3,0,0.4,0.2,0.4,0.5v0.3h0c0.2-0.5,0.7-0.7,1.4-0.7
			c1.4,0,2.3,1.3,2.3,2.7s-0.8,2.7-2.3,2.7c-0.7,0-1.2-0.4-1.4-0.7h0v2.3c0,0.3-0.2,0.5-0.4,0.5c-0.3,0-0.4-0.2-0.4-0.5V262.8z
			 M233.4,267c1.1,0,1.5-1.1,1.5-2s-0.4-2-1.5-2c-1.1,0-1.5,1.1-1.5,2S232.3,267,233.4,267z"/>
		<path class="st10" d="M236.6,262.8c0-0.3,0.2-0.5,0.4-0.5c0.3,0,0.4,0.2,0.4,0.5v0.4h0c0.2-0.4,0.7-0.9,1.2-0.9
			c0.3,0,0.5,0.2,0.5,0.4c0,0.2-0.2,0.4-0.5,0.5c-0.5,0.1-1.2,0.5-1.2,1.5v2.5c0,0.3-0.2,0.5-0.4,0.5c-0.3,0-0.4-0.2-0.4-0.5V262.8z
			"/>
		<path class="st10" d="M240.3,265.4c0,0.9,0.6,1.6,1.6,1.6c1.2,0,1.5-0.7,1.8-0.7c0.2,0,0.3,0.1,0.3,0.4c0,0.4-1.1,1.1-2.1,1.1
			c-1.7,0-2.4-1.3-2.4-2.7c0-1.4,0.9-2.7,2.4-2.7c1.4,0,2.3,1.3,2.3,2.6c0,0.3-0.1,0.5-0.5,0.5H240.3z M243.3,264.7
			c0-0.8-0.4-1.6-1.4-1.6c-1.1,0-1.5,0.8-1.5,1.6H243.3z"/>
		<path class="st10" d="M245,262.8c0-0.3,0.2-0.5,0.4-0.5s0.4,0.2,0.4,0.5v0.3h0c0.2-0.5,0.7-0.7,1.4-0.7c1.4,0,2.3,1.3,2.3,2.7
			s-0.8,2.7-2.3,2.7c-0.7,0-1.2-0.4-1.4-0.7h0v2.3c0,0.3-0.2,0.5-0.4,0.5s-0.4-0.2-0.4-0.5V262.8z M247.3,267c1.1,0,1.5-1.1,1.5-2
			s-0.4-2-1.5-2s-1.5,1.1-1.5,2S246.2,267,247.3,267z"/>
		<path class="st10" d="M254.9,267.3c0,0.3-0.2,0.4-0.4,0.4c-0.2,0-0.4-0.1-0.4-0.4V267h0c-0.4,0.5-0.9,0.8-1.4,0.8
			c-1.5,0-2.3-1.3-2.3-2.7s0.8-2.7,2.3-2.7c0.6,0,1,0.3,1.4,0.7h0v-0.3c0-0.3,0.2-0.4,0.4-0.4c0.2,0,0.4,0.1,0.4,0.4V267.3z
			 M252.7,267c1.1,0,1.5-1.1,1.5-2s-0.4-2-1.5-2s-1.5,1.1-1.5,2S251.6,267,252.7,267z"/>
		<path class="st10" d="M256.5,260.5c0.3,0,0.5,0.2,0.5,0.5s-0.2,0.5-0.5,0.5c-0.3,0-0.5-0.2-0.5-0.5S256.2,260.5,256.5,260.5z
			 M257,267.3c0,0.3-0.2,0.5-0.4,0.5s-0.4-0.2-0.4-0.5v-4.5c0-0.3,0.2-0.5,0.4-0.5s0.4,0.2,0.4,0.5V267.3z"/>
		<path class="st10" d="M261.6,267L261.6,267c-0.3,0.5-0.7,0.7-1.4,0.7c-1.4,0-2.3-1.3-2.3-2.7s0.8-2.7,2.3-2.7
			c0.7,0,1.2,0.4,1.4,0.7h0v-2.6c0-0.3,0.2-0.5,0.4-0.5s0.4,0.2,0.4,0.5v6.8c0,0.3-0.2,0.5-0.4,0.5s-0.4-0.2-0.4-0.5V267z
			 M260.3,263.1c-1.1,0-1.5,1.1-1.5,2s0.4,2,1.5,2c1.1,0,1.5-1.1,1.5-2S261.3,263.1,260.3,263.1z"/>
	</g>
	<g class="st8">
		<path class="st11" d="M270.2,262.3c0.7,0,1.8,0.4,1.8,0.9c0,0.2-0.1,0.4-0.4,0.4c-0.4,0-0.5-0.5-1.4-0.5c-0.5,0-0.9,0.2-0.9,0.7
			c0,0.9,2.8,0.8,2.8,2.4c0,1.1-1,1.6-1.9,1.6c-1.1,0-2-0.6-2-1c0-0.2,0.2-0.4,0.4-0.4c0.4,0,0.7,0.7,1.7,0.7c0.6,0,1-0.4,1-0.7
			c0-1-2.8-1-2.8-2.5C268.4,262.9,269.3,262.3,270.2,262.3z"/>
		<path class="st11" d="M273.5,265.4c0,0.9,0.6,1.6,1.6,1.6c1.2,0,1.5-0.7,1.8-0.7c0.2,0,0.3,0.1,0.3,0.4c0,0.4-1.1,1.1-2.1,1.1
			c-1.7,0-2.4-1.3-2.4-2.7c0-1.4,0.9-2.7,2.4-2.7c1.4,0,2.3,1.3,2.3,2.6c0,0.3-0.1,0.5-0.5,0.5H273.5z M276.4,264.7
			c0-0.8-0.4-1.6-1.4-1.6c-1.1,0-1.5,0.8-1.5,1.6H276.4z"/>
		<path class="st11" d="M278.1,262.8c0-0.3,0.2-0.5,0.4-0.5c0.3,0,0.4,0.2,0.4,0.5v0.4h0c0.2-0.4,0.7-0.9,1.2-0.9
			c0.3,0,0.5,0.2,0.5,0.4c0,0.2-0.2,0.4-0.5,0.5c-0.5,0.1-1.2,0.5-1.2,1.5v2.5c0,0.3-0.2,0.5-0.4,0.5c-0.3,0-0.4-0.2-0.4-0.5V262.8z
			"/>
		<path class="st11" d="M281,263.1c-0.1-0.2-0.1-0.3-0.1-0.4c0-0.3,0.2-0.4,0.4-0.4c0.3,0,0.4,0.1,0.5,0.3l1.2,3.7h0l1.2-3.7
			c0.1-0.2,0.2-0.3,0.5-0.3c0.2,0,0.4,0.1,0.4,0.4c0,0.1,0,0.2-0.1,0.4l-1.5,4.3c-0.1,0.3-0.2,0.4-0.5,0.4c-0.3,0-0.4-0.1-0.5-0.4
			L281,263.1z"/>
		<path class="st11" d="M286.1,260.5c0.3,0,0.5,0.2,0.5,0.5s-0.2,0.5-0.5,0.5s-0.5-0.2-0.5-0.5S285.8,260.5,286.1,260.5z
			 M286.6,267.3c0,0.3-0.2,0.5-0.4,0.5c-0.3,0-0.4-0.2-0.4-0.5v-4.5c0-0.3,0.2-0.5,0.4-0.5c0.3,0,0.4,0.2,0.4,0.5V267.3z"/>
		<path class="st11" d="M289.9,262.3c0.9,0,1.4,0.3,1.4,0.7c0,0.2-0.2,0.4-0.4,0.4c-0.3,0-0.5-0.3-1.1-0.3c-1.1,0-1.5,1.1-1.5,2
			s0.4,2,1.5,2c0.6,0,0.8-0.3,1.1-0.3c0.2,0,0.3,0.1,0.3,0.4c0,0.3-0.5,0.7-1.4,0.7c-1.6,0-2.4-1.3-2.4-2.7S288.3,262.3,289.9,262.3
			z"/>
		<path class="st11" d="M292.7,265.4c0,0.9,0.6,1.6,1.6,1.6c1.2,0,1.5-0.7,1.8-0.7c0.2,0,0.3,0.1,0.3,0.4c0,0.4-1.1,1.1-2.1,1.1
			c-1.7,0-2.4-1.3-2.4-2.7c0-1.4,0.9-2.7,2.4-2.7c1.4,0,2.3,1.3,2.3,2.6c0,0.3-0.1,0.5-0.5,0.5H292.7z M295.7,264.7
			c0-0.8-0.4-1.6-1.4-1.6c-1.1,0-1.5,0.8-1.5,1.6H295.7z"/>
		<path class="st11" d="M299.1,262.3c0.7,0,1.8,0.4,1.8,0.9c0,0.2-0.1,0.4-0.4,0.4c-0.4,0-0.5-0.5-1.4-0.5c-0.5,0-0.9,0.2-0.9,0.7
			c0,0.9,2.8,0.8,2.8,2.4c0,1.1-1,1.6-1.9,1.6c-1.1,0-2-0.6-2-1c0-0.2,0.2-0.4,0.4-0.4c0.4,0,0.7,0.7,1.7,0.7c0.6,0,1-0.4,1-0.7
			c0-1-2.8-1-2.8-2.5C297.3,262.9,298.2,262.3,299.1,262.3z"/>
		<path class="st11" d="M302.5,266.8c0.3,0,0.5,0.2,0.5,0.5c0,0.3-0.2,0.5-0.5,0.5c-0.3,0-0.5-0.2-0.5-0.5
			C302,267,302.2,266.8,302.5,266.8z"/>
	</g>
	<g class="st8">
		<path class="st12" d="M218.5,280.3c0,0.3-0.2,0.5-0.4,0.5s-0.4-0.2-0.4-0.5v-6.2c0-0.3,0.1-0.5,0.4-0.5c0.3,0,0.4,0.1,0.6,0.5
			l3.6,5.2h0V274c0-0.3,0.2-0.5,0.4-0.5c0.3,0,0.4,0.2,0.4,0.5v6.2c0,0.3-0.1,0.5-0.4,0.5c-0.3,0-0.4-0.1-0.6-0.5l-3.6-5.2h0V280.3z
			"/>
		<path class="st12" d="M226.4,275.3c1.5,0,2.3,1.3,2.3,2.7s-0.8,2.7-2.3,2.7c-1.5,0-2.3-1.3-2.3-2.7S224.9,275.3,226.4,275.3z
			 M226.4,280c1.1,0,1.5-1.1,1.5-2s-0.4-2-1.5-2c-1.1,0-1.5,1.1-1.5,2S225.3,280,226.4,280z"/>
		<path class="st12" d="M236.5,280.3c0,0.3-0.2,0.4-0.4,0.4c-0.2,0-0.4-0.1-0.4-0.4V280h0c-0.4,0.5-0.9,0.8-1.4,0.8
			c-1.5,0-2.3-1.3-2.3-2.7s0.8-2.7,2.3-2.7c0.6,0,1,0.3,1.4,0.7h0v-0.3c0-0.3,0.2-0.4,0.4-0.4c0.2,0,0.4,0.1,0.4,0.4V280.3z
			 M234.2,280c1.1,0,1.5-1.1,1.5-2s-0.4-2-1.5-2c-1.1,0-1.5,1.1-1.5,2S233.2,280,234.2,280z"/>
		<path class="st12" d="M237.7,275.8c0-0.3,0.2-0.5,0.4-0.5c0.3,0,0.4,0.2,0.4,0.5v0.2l0,0c0.4-0.5,0.9-0.7,1.5-0.7
			c0.8,0,1.8,0.5,1.8,2v2.9c0,0.3-0.2,0.5-0.4,0.5c-0.3,0-0.4-0.2-0.4-0.5v-2.9c0-0.9-0.6-1.3-1.2-1.3s-1.2,0.4-1.2,1.3v2.9
			c0,0.3-0.2,0.5-0.4,0.5c-0.3,0-0.4-0.2-0.4-0.5V275.8z"/>
		<path class="st12" d="M243.1,275.8c0-0.3,0.2-0.5,0.4-0.5s0.4,0.2,0.4,0.5v0.2l0,0c0.4-0.5,0.9-0.7,1.5-0.7c0.8,0,1.8,0.5,1.8,2
			v2.9c0,0.3-0.2,0.5-0.4,0.5s-0.4-0.2-0.4-0.5v-2.9c0-0.9-0.7-1.3-1.2-1.3s-1.2,0.4-1.2,1.3v2.9c0,0.3-0.2,0.5-0.4,0.5
			s-0.4-0.2-0.4-0.5V275.8z"/>
		<path class="st12" d="M248.5,275.8c0-0.3,0.2-0.5,0.4-0.5c0.3,0,0.4,0.2,0.4,0.5v2.8c0,0.9,0.4,1.4,1.2,1.4s1.2-0.5,1.2-1.4v-2.8
			c0-0.3,0.2-0.5,0.4-0.5c0.3,0,0.4,0.2,0.4,0.5v2.8c0,1.6-1,2.1-2.1,2.1s-2.1-0.6-2.1-2.1V275.8z"/>
		<path class="st12" d="M258.2,280.3c0,0.3-0.2,0.4-0.4,0.4c-0.2,0-0.4-0.1-0.4-0.4V280h0c-0.4,0.5-0.9,0.8-1.4,0.8
			c-1.5,0-2.3-1.3-2.3-2.7s0.8-2.7,2.3-2.7c0.6,0,1,0.3,1.4,0.7h0v-0.3c0-0.3,0.2-0.4,0.4-0.4c0.2,0,0.4,0.1,0.4,0.4V280.3z
			 M255.9,280c1.1,0,1.5-1.1,1.5-2s-0.4-2-1.5-2s-1.5,1.1-1.5,2S254.9,280,255.9,280z"/>
		<path class="st12" d="M260.3,280.3c0,0.3-0.2,0.5-0.4,0.5c-0.3,0-0.4-0.2-0.4-0.5v-6.8c0-0.3,0.2-0.5,0.4-0.5
			c0.3,0,0.4,0.2,0.4,0.5V280.3z"/>
		<path class="st12" d="M266.1,275.3c0.9,0,1.4,0.3,1.4,0.7c0,0.2-0.1,0.4-0.4,0.4c-0.3,0-0.5-0.3-1.1-0.3c-1.1,0-1.5,1.1-1.5,2
			s0.4,2,1.5,2c0.6,0,0.8-0.3,1.1-0.3c0.2,0,0.3,0.1,0.3,0.4c0,0.3-0.5,0.7-1.4,0.7c-1.6,0-2.4-1.3-2.4-2.7S264.5,275.3,266.1,275.3
			z"/>
		<path class="st12" d="M270.5,275.3c1.5,0,2.3,1.3,2.3,2.7s-0.8,2.7-2.3,2.7s-2.3-1.3-2.3-2.7S269,275.3,270.5,275.3z M270.5,280
			c1.1,0,1.5-1.1,1.5-2s-0.4-2-1.5-2s-1.5,1.1-1.5,2S269.4,280,270.5,280z"/>
		<path class="st12" d="M273.8,275.8c0-0.3,0.2-0.5,0.4-0.5s0.4,0.2,0.4,0.5v0.2l0,0c0.4-0.5,0.9-0.7,1.5-0.7c0.8,0,1.8,0.5,1.8,2
			v2.9c0,0.3-0.2,0.5-0.4,0.5s-0.4-0.2-0.4-0.5v-2.9c0-0.9-0.7-1.3-1.2-1.3s-1.2,0.4-1.2,1.3v2.9c0,0.3-0.2,0.5-0.4,0.5
			s-0.4-0.2-0.4-0.5V275.8z"/>
		<path class="st12" d="M279.4,274.3c0-0.3,0.2-0.5,0.4-0.5c0.3,0,0.4,0.2,0.4,0.5v1.1h0.4c0.3,0,0.4,0.1,0.4,0.4
			c0,0.2-0.1,0.4-0.4,0.4h-0.4v4.1c0,0.3-0.2,0.5-0.4,0.5c-0.3,0-0.4-0.2-0.4-0.5v-4.1h-0.4c-0.3,0-0.4-0.1-0.4-0.4
			c0-0.2,0.2-0.4,0.4-0.4h0.4V274.3z"/>
		<path class="st12" d="M281.7,275.8c0-0.3,0.2-0.5,0.4-0.5c0.3,0,0.4,0.2,0.4,0.5v0.4h0c0.2-0.4,0.7-0.9,1.2-0.9
			c0.3,0,0.5,0.2,0.5,0.4c0,0.2-0.2,0.4-0.6,0.5c-0.5,0.1-1.2,0.5-1.2,1.5v2.5c0,0.3-0.2,0.5-0.4,0.5c-0.3,0-0.4-0.2-0.4-0.5V275.8z
			"/>
		<path class="st12" d="M289.3,280.3c0,0.3-0.2,0.4-0.4,0.4c-0.2,0-0.4-0.1-0.4-0.4V280h0c-0.4,0.5-0.9,0.8-1.4,0.8
			c-1.5,0-2.3-1.3-2.3-2.7s0.8-2.7,2.3-2.7c0.6,0,1,0.3,1.4,0.7h0v-0.3c0-0.3,0.2-0.4,0.4-0.4c0.2,0,0.4,0.1,0.4,0.4V280.3z
			 M287,280c1.1,0,1.5-1.1,1.5-2s-0.4-2-1.5-2c-1.1,0-1.5,1.1-1.5,2S285.9,280,287,280z"/>
		<path class="st12" d="M292.6,275.3c0.9,0,1.4,0.3,1.4,0.7c0,0.2-0.2,0.4-0.4,0.4c-0.3,0-0.5-0.3-1.1-0.3c-1.1,0-1.5,1.1-1.5,2
			s0.4,2,1.5,2c0.6,0,0.8-0.3,1.1-0.3c0.2,0,0.3,0.1,0.3,0.4c0,0.3-0.5,0.7-1.4,0.7c-1.6,0-2.4-1.3-2.4-2.7S291,275.3,292.6,275.3z"
			/>
		<path class="st12" d="M295.2,274.3c0-0.3,0.2-0.5,0.4-0.5s0.4,0.2,0.4,0.5v1.1h0.4c0.3,0,0.4,0.1,0.4,0.4c0,0.2-0.2,0.4-0.4,0.4
			H296v4.1c0,0.3-0.2,0.5-0.4,0.5s-0.4-0.2-0.4-0.5v-4.1h-0.4c-0.3,0-0.4-0.1-0.4-0.4c0-0.2,0.2-0.4,0.4-0.4h0.4V274.3z"/>
	</g>
	<g class="st8">
		<path class="st13" d="M298,279.8c0.3,0,0.5,0.2,0.5,0.5c0,0.3-0.2,0.5-0.5,0.5c-0.3,0-0.5-0.2-0.5-0.5
			C297.5,280,297.8,279.8,298,279.8z"/>
	</g>
</g>
<g id="logo">
	<g>
		<g>
			<path class="st14" d="M231.2,316.4l4.1-10.3c0.4-1,0.8-1.8,1.3-2.4s1.1-0.9,1.9-0.9c0.6,0,1.2,0.1,1.9,0.4
				c0.6,0.3,1.2,0.6,1.6,1.1c0.4,0.5,0.6,1,0.6,1.6c0,0.8-0.1,1.5-0.4,2.2L230.9,335c-0.7,1.7-1.7,2.5-3,2.5c-1,0-1.8-0.3-2.6-0.8
				c-0.8-0.6-1.2-1.3-1.3-2.2c0-0.7,0.1-1.4,0.4-2.1l3.1-7.2l-7.2-17.1c-0.3-0.7-0.4-1.5-0.4-2.2c0-0.9,0.4-1.6,1.3-2.2
				c0.8-0.6,1.8-0.8,2.8-0.8c0.8,0,1.4,0.3,1.9,0.9s0.9,1.4,1.3,2.4L231.2,316.4z"/>
			<path class="st14" d="M249.6,317.9c0.5,1.4,1.2,2.4,2.1,3.1c1,0.7,2.1,1.1,3.3,1.1c1.4,0,2.7-0.3,4-1l2-1
				c0.3-0.2,0.8-0.3,1.4-0.3c0.5,0,1,0.1,1.5,0.4s0.9,0.6,1.1,1.1c0.3,0.5,0.4,0.9,0.4,1.4c0,1.3-0.9,2.5-2.8,3.6
				c-2.3,1.3-5,2-7.9,2c-2,0-3.8-0.4-5.6-1.2c-1.7-0.8-3.2-1.9-4.5-3.4c-1.8-2.1-2.6-4.9-2.6-8.3c0-2.3,0.5-4.3,1.6-6.3
				c1.1-1.9,2.5-3.5,4.4-4.6s3.9-1.7,6.2-1.7c2.1,0,4.1,0.5,5.9,1.6c1.8,1.1,3.2,2.5,4.2,4.3s1.5,3.8,1.5,5.9c0,1.1-0.2,1.9-0.7,2.5
				c-0.5,0.5-1.2,0.8-2.3,0.8H249.6z M258.9,313.1c-0.8-3-2.4-4.4-4.8-4.4c-2.2,0-3.7,1.5-4.7,4.4H258.9z"/>
			<path class="st14" d="M267.7,310.9c0-2,0.7-3.8,2.1-5.2c1.8-1.9,4.1-2.8,6.9-2.8c2.5,0,4.6,0.6,6.4,1.8c1.4,1,2.1,2,2.1,3.1
				c0,0.8-0.3,1.5-0.9,2.2s-1.3,1-2.1,1c-0.5,0-1.4-0.4-2.8-1c-1.2-0.5-2.2-0.7-2.9-0.7c-1.1,0.1-1.7,0.5-1.7,1.2
				c0,0.4,0.2,0.8,0.7,1.2c0.4,0.3,1,0.6,1.6,0.9c0.6,0.2,1.1,0.4,1.5,0.6c2.6,1,4.4,2,5.5,3.1c1.2,1.3,1.8,2.7,1.8,4.3
				c0,1.2-0.2,2.3-0.7,3.3c-0.5,1.1-1.1,2-2,2.7c-1.7,1.4-3.9,2.1-6.6,2.1c-1.2,0-2.5-0.2-3.9-0.5c-1.5-0.4-2.7-0.9-3.8-1.7
				c-1.1-0.8-1.6-1.8-1.6-3c0-0.7,0.3-1.5,0.9-2.1c0.6-0.7,1.3-1,2-1c0.3,0,0.6,0,1,0.1c0.3,0.1,0.6,0.2,0.9,0.3
				c0.3,0.1,0.6,0.2,0.9,0.4c0.4,0.2,0.7,0.3,1,0.5c1.2,0.5,2.1,0.8,2.8,0.8c0.5,0,1-0.1,1.5-0.4s0.7-0.7,0.7-1.1
				c0-0.6-0.2-1-0.7-1.3s-1.2-0.6-2.1-0.9l-1.9-0.7c-2-0.8-3.5-1.7-4.6-2.7C268.3,314.1,267.7,312.7,267.7,310.9z"/>
			
				<linearGradient id="SVGID_3_" gradientUnits="userSpaceOnUse" x1="247.0684" y1="519.0185" x2="265.9727" y2="519.0185" gradientTransform="matrix(1 0 0 1 0 -196)">
				<stop  offset="0" style="stop-color:#016791"/>
				<stop  offset="0.1039" style="stop-color:#0673A1"/>
				<stop  offset="0.3138" style="stop-color:#0F88BB"/>
				<stop  offset="0.53" style="stop-color:#1696CD"/>
				<stop  offset="0.7544" style="stop-color:#1A9FD8"/>
				<stop  offset="1" style="stop-color:#1BA2DC"/>
			</linearGradient>
			<path class="st15" d="M249.5,317.8c0,0-2.2,1.1-2.4,4.1c0,0,0.1,6.9,9.5,6.3c2.3-0.1,4.4-0.6,6.4-1.7c0.6-0.3,1.2-0.7,1.7-1.1
				c2.1-1.7,1.8-5-1-5.7c-1.2-0.3-2.3,0.1-3.3,0.8c-0.9,0.6-1.7,1.2-2.8,1.4c-0.6,0.1-1.2,0.2-1.9,0.2
				C252.6,322.1,250.3,320.6,249.5,317.8z"/>
			
				<linearGradient id="SVGID_4_" gradientUnits="userSpaceOnUse" x1="243.9" y1="504.2589" x2="262.4012" y2="504.2589" gradientTransform="matrix(1 0 0 1 0 -196)">
				<stop  offset="0" style="stop-color:#1BA2DC"/>
				<stop  offset="0.2728" style="stop-color:#1AA0D9"/>
				<stop  offset="0.4886" style="stop-color:#1698CF"/>
				<stop  offset="0.6849" style="stop-color:#118BBE"/>
				<stop  offset="0.8686" style="stop-color:#0978A7"/>
				<stop  offset="1" style="stop-color:#016791"/>
			</linearGradient>
			<path class="st16" d="M258.9,313.3c0,0,4.4-1,3.4-5.8c0,0-1.8-5.3-9.2-4.5c0,0-5.4,1-9.2,6.2l5.9,4.4c-0.3-0.2,0.2-1.7,0.3-2
				c1-2.9,4.3-3.9,6.7-2.2C258.1,310.3,258.8,311.7,258.9,313.3z"/>
			
				<linearGradient id="SVGID_5_" gradientUnits="userSpaceOnUse" x1="266.9959" y1="520.2" x2="281.0487" y2="520.2" gradientTransform="matrix(1 0 0 1 0 -196)">
				<stop  offset="0" style="stop-color:#1BA2DC"/>
				<stop  offset="1" style="stop-color:#016791"/>
			</linearGradient>
			<path class="st17" d="M278.5,319.8c0.2,0.4,0.8,0.7,1.1,1.1c0.8,1,1.5,2.3,1.5,3.6c0,0.8-0.2,1.6-0.7,2.4c-0.3,0.4-0.6,0.9-1,1.2
				c-0.3,0.3-0.7,0.3-1.1,0.4s-0.9,0.1-1.4,0.1c-1.4,0-2.9-0.2-4.3-0.5c0,0-3.9-0.7-5.3-3.2c0,0-0.9-1.5,0.1-3.2c0,0,1-2.2,3.8-1.4
				c0,0,2.3,1,2.4,1.1c0,0,3,1.7,4.7,0.1C278.4,321.6,279,320.8,278.5,319.8z"/>
			
				<linearGradient id="SVGID_6_" gradientUnits="userSpaceOnUse" x1="236.9194" y1="514.9629" x2="236.9194" y2="498.7208" gradientTransform="matrix(1 0 0 1 0 -196)">
				<stop  offset="0" style="stop-color:#016791"/>
				<stop  offset="0.2136" style="stop-color:#097AA9"/>
				<stop  offset="0.5254" style="stop-color:#1390C5"/>
				<stop  offset="0.7981" style="stop-color:#199DD6"/>
				<stop  offset="1" style="stop-color:#1BA2DC"/>
			</linearGradient>
			<path class="st18" d="M236.1,304.5c0,0,1-2.2,3-1.8c1.3,0.3,2.7,0.6,3.3,2c0.8,1.9-0.6,4.3-1.4,6c-0.6,1.2-1.3,2.3-2.1,3.5
				c-1.2,1.9-2.7,5.3-5.5,4.6c-1.2-0.3-2-1.3-2.2-2.5L236.1,304.5z"/>
			
				<linearGradient id="SVGID_7_" gradientUnits="userSpaceOnUse" x1="269.6751" y1="502.8624" x2="285.1347" y2="502.8624" gradientTransform="matrix(1 0 0 1 0 -196)">
				<stop  offset="0" style="stop-color:#016791"/>
				<stop  offset="0.2136" style="stop-color:#097AA9"/>
				<stop  offset="0.5254" style="stop-color:#1390C5"/>
				<stop  offset="0.7981" style="stop-color:#199DD6"/>
				<stop  offset="1" style="stop-color:#1BA2DC"/>
			</linearGradient>
			<path class="st19" d="M274.8,310.9c0,0-6.9-1.5-4.6-5.5c0,0,3.4-4.1,10.6-2c0,0,3.9,1.3,4.4,3.9c0,0,0.4,1.9-1.5,3.2
				c0,0-1.1,0.7-2.1,0.3c0,0-1.6-0.6-2.3-0.9c0,0-2.8-1.3-4.2-0.4C275.1,309.6,274.4,310.1,274.8,310.9z"/>
		</g>
		<g>
			<g>
				<g>
					<g>
						<g>
							<g>
								<defs>
									<path id="SVGID_8_" d="M294.4,309.2c-0.5,0-0.9-0.4-1.5-0.4c-1.1,0-1.6,0.9-1.6,1.9c0,0.9,0.6,1.9,1.6,1.9
										c0.5,0,1.2-0.4,1.4-0.4c0.4,0,0.8,0.4,0.8,0.8c0,1-1.6,1.3-2.3,1.3c-2,0-3.4-1.7-3.4-3.6s1.4-3.6,3.4-3.6
										c0.7,0,2.3,0.3,2.3,1.2C295.2,308.7,294.9,309.2,294.4,309.2z"/>
								</defs>
								<clipPath id="SVGID_9_">
									<use xlink:href="#SVGID_8_"  style="overflow:visible;"/>
								</clipPath>
								
									<linearGradient id="SVGID_10_" gradientUnits="userSpaceOnUse" x1="289.923" y1="499.5209" x2="335.6277" y2="525.9084" gradientTransform="matrix(1 0 0 1 0 -196)">
									<stop  offset="0.125" style="stop-color:#1BA2DC"/>
									<stop  offset="0.25" style="stop-color:#3DAD1A"/>
									<stop  offset="0.5" style="stop-color:#EEA600"/>
									<stop  offset="0.75" style="stop-color:#E81D63"/>
									<stop  offset="0.875" style="stop-color:#500E8E"/>
								</linearGradient>
								<rect x="289.3" y="304.6" class="st20" width="46.9" height="24.2"/>
							</g>
						</g>
					</g>
				</g>
			</g>
			<g>
				<g>
					<g>
						<g>
							<g>
								<defs>
									<path id="SVGID_11_" d="M296,308.2c0-0.6,0.5-0.9,1-0.9s0.9,0.2,0.9,0.8l0,0c0.4-0.5,0.7-0.8,1.3-0.8c0.5,0,0.9,0.3,0.9,1
										c0,0.6-0.6,0.7-1.1,0.9c-0.6,0.3-1.1,0.5-1.1,1.2v2.9c0,0.6-0.4,1-0.9,1s-0.9-0.4-0.9-1L296,308.2L296,308.2z"/>
								</defs>
								<clipPath id="SVGID_12_">
									<use xlink:href="#SVGID_11_"  style="overflow:visible;"/>
								</clipPath>
								
									<linearGradient id="SVGID_13_" gradientUnits="userSpaceOnUse" x1="289.923" y1="499.5209" x2="335.6277" y2="525.9084" gradientTransform="matrix(1 0 0 1 0 -196)">
									<stop  offset="0.125" style="stop-color:#1BA2DC"/>
									<stop  offset="0.25" style="stop-color:#3DAD1A"/>
									<stop  offset="0.5" style="stop-color:#EEA600"/>
									<stop  offset="0.75" style="stop-color:#E81D63"/>
									<stop  offset="0.875" style="stop-color:#500E8E"/>
								</linearGradient>
								<rect x="289.3" y="304.6" class="st21" width="46.9" height="24.2"/>
							</g>
						</g>
					</g>
				</g>
			</g>
			<g>
				<g>
					<g>
						<g>
							<g>
								<defs>
									<path id="SVGID_14_" d="M301.8,311.4c0.1,0.9,0.9,1.4,1.8,1.4c1,0,1.6-0.8,2.1-0.8c0.4,0,0.8,0.4,0.8,0.8
										c0,0.8-1.7,1.6-3.1,1.6c-2.1,0-3.5-1.5-3.5-3.6c0-1.9,1.4-3.6,3.4-3.6s3.4,1.8,3.4,3.4c0,0.6-0.2,0.8-0.8,0.8L301.8,311.4
										L301.8,311.4z M304.7,310.1c-0.1-0.8-0.6-1.4-1.5-1.4c-0.8,0-1.4,0.6-1.5,1.4H304.7z"/>
								</defs>
								<clipPath id="SVGID_15_">
									<use xlink:href="#SVGID_14_"  style="overflow:visible;"/>
								</clipPath>
								
									<linearGradient id="SVGID_16_" gradientUnits="userSpaceOnUse" x1="289.923" y1="499.5209" x2="335.6277" y2="525.9084" gradientTransform="matrix(1 0 0 1 0 -196)">
									<stop  offset="0.125" style="stop-color:#1BA2DC"/>
									<stop  offset="0.25" style="stop-color:#3DAD1A"/>
									<stop  offset="0.5" style="stop-color:#EEA600"/>
									<stop  offset="0.75" style="stop-color:#E81D63"/>
									<stop  offset="0.875" style="stop-color:#500E8E"/>
								</linearGradient>
								<rect x="289.3" y="304.6" class="st22" width="46.9" height="24.2"/>
							</g>
						</g>
					</g>
				</g>
			</g>
			<g>
				<g>
					<g>
						<g>
							<g>
								<defs>
									<path id="SVGID_17_" d="M313.9,313.1c0,0.5,0,1.2-0.9,1.2c-0.5,0-0.8-0.3-0.9-0.8c-0.5,0.6-1.1,0.9-1.8,0.9
										c-1.8,0-3.1-1.5-3.1-3.6s1.4-3.6,3.1-3.6c0.7,0,1.4,0.3,1.8,0.9c0.1-0.5,0.4-0.8,0.9-0.8c0.9,0,0.9,0.7,0.9,1.2V313.1z
										 M310.5,312.7c1,0,1.4-1,1.4-1.9s-0.5-1.9-1.4-1.9c-1,0-1.5,1-1.5,1.9C309.1,311.7,309.5,312.7,310.5,312.7z"/>
								</defs>
								<clipPath id="SVGID_18_">
									<use xlink:href="#SVGID_17_"  style="overflow:visible;"/>
								</clipPath>
								
									<linearGradient id="SVGID_19_" gradientUnits="userSpaceOnUse" x1="289.923" y1="499.5209" x2="335.6277" y2="525.9084" gradientTransform="matrix(1 0 0 1 0 -196)">
									<stop  offset="0.125" style="stop-color:#1BA2DC"/>
									<stop  offset="0.25" style="stop-color:#3DAD1A"/>
									<stop  offset="0.5" style="stop-color:#EEA600"/>
									<stop  offset="0.75" style="stop-color:#E81D63"/>
									<stop  offset="0.875" style="stop-color:#500E8E"/>
								</linearGradient>
								<rect x="289.3" y="304.6" class="st23" width="46.9" height="24.2"/>
							</g>
						</g>
					</g>
				</g>
			</g>
			<g>
				<g>
					<g>
						<g>
							<g>
								<defs>
									<path id="SVGID_20_" d="M315.6,308.9h-0.4c-0.5,0-0.8-0.3-0.8-0.8s0.4-0.8,0.8-0.8h0.4v-1.1c0-0.6,0.4-1,0.9-1
										s0.9,0.4,0.9,1v1.1h0.5c0.5,0,0.9,0.2,0.9,0.8c0,0.6-0.4,0.8-0.9,0.8h-0.5v4.3c0,0.6-0.4,1-0.9,1s-0.9-0.4-0.9-1V308.9z"/>
								</defs>
								<clipPath id="SVGID_21_">
									<use xlink:href="#SVGID_20_"  style="overflow:visible;"/>
								</clipPath>
								
									<linearGradient id="SVGID_22_" gradientUnits="userSpaceOnUse" x1="289.923" y1="499.5209" x2="335.6277" y2="525.9084" gradientTransform="matrix(1 0 0 1 0 -196)">
									<stop  offset="0.125" style="stop-color:#1BA2DC"/>
									<stop  offset="0.25" style="stop-color:#3DAD1A"/>
									<stop  offset="0.5" style="stop-color:#EEA600"/>
									<stop  offset="0.75" style="stop-color:#E81D63"/>
									<stop  offset="0.875" style="stop-color:#500E8E"/>
								</linearGradient>
								<rect x="289.3" y="304.6" class="st24" width="46.9" height="24.2"/>
							</g>
						</g>
					</g>
				</g>
			</g>
			<g>
				<g>
					<g>
						<g>
							<g>
								<defs>
									<path id="SVGID_23_" d="M320.7,311.4c0.1,0.9,0.9,1.4,1.8,1.4c1,0,1.6-0.8,2.1-0.8c0.4,0,0.8,0.4,0.8,0.8
										c0,0.8-1.7,1.6-3.1,1.6c-2.1,0-3.5-1.5-3.5-3.6c0-1.9,1.4-3.6,3.4-3.6s3.4,1.8,3.4,3.4c0,0.6-0.2,0.8-0.8,0.8L320.7,311.4
										L320.7,311.4z M323.6,310.1c-0.1-0.8-0.6-1.4-1.5-1.4c-0.8,0-1.4,0.6-1.5,1.4H323.6z"/>
								</defs>
								<clipPath id="SVGID_24_">
									<use xlink:href="#SVGID_23_"  style="overflow:visible;"/>
								</clipPath>
								
									<linearGradient id="SVGID_25_" gradientUnits="userSpaceOnUse" x1="289.923" y1="499.5209" x2="335.6277" y2="525.9084" gradientTransform="matrix(1 0 0 1 0 -196)">
									<stop  offset="0.125" style="stop-color:#1BA2DC"/>
									<stop  offset="0.25" style="stop-color:#3DAD1A"/>
									<stop  offset="0.5" style="stop-color:#EEA600"/>
									<stop  offset="0.75" style="stop-color:#E81D63"/>
									<stop  offset="0.875" style="stop-color:#500E8E"/>
								</linearGradient>
								<rect x="289.3" y="304.6" class="st25" width="46.9" height="24.2"/>
							</g>
						</g>
					</g>
				</g>
			</g>
			<g>
				<g>
					<g>
						<g>
							<g>
								<defs>
									<path id="SVGID_26_" d="M330.3,309.3c-0.4,0-1.1-0.5-1.7-0.5c-0.3,0-0.6,0.2-0.6,0.5c0,0.9,3.2,0.7,3.2,2.9
										c0,1.2-1.1,2.2-2.7,2.2c-1.1,0-2.6-0.6-2.6-1.4c0-0.3,0.3-0.8,0.8-0.8c0.7,0,1.1,0.6,1.9,0.6c0.6,0,0.7-0.2,0.7-0.5
										c0-0.9-3.2-0.7-3.2-2.9c0-1.3,1.1-2.2,2.5-2.2c0.9,0,2.3,0.4,2.3,1.4C331,308.9,330.7,309.3,330.3,309.3z"/>
								</defs>
								<clipPath id="SVGID_27_">
									<use xlink:href="#SVGID_26_"  style="overflow:visible;"/>
								</clipPath>
								
									<linearGradient id="SVGID_28_" gradientUnits="userSpaceOnUse" x1="289.923" y1="499.5209" x2="335.6277" y2="525.9084" gradientTransform="matrix(1 0 0 1 0 -196)">
									<stop  offset="0.125" style="stop-color:#1BA2DC"/>
									<stop  offset="0.25" style="stop-color:#3DAD1A"/>
									<stop  offset="0.5" style="stop-color:#EEA600"/>
									<stop  offset="0.75" style="stop-color:#E81D63"/>
									<stop  offset="0.875" style="stop-color:#500E8E"/>
								</linearGradient>
								<rect x="289.3" y="304.6" class="st26" width="46.9" height="24.2"/>
							</g>
						</g>
					</g>
				</g>
			</g>
			<g>
				<g>
					<g>
						<g>
							<g>
								<defs>
									<path id="SVGID_29_" d="M289.5,320.9c-0.1-0.4-0.2-0.6-0.2-0.9c0-0.4,0.4-0.8,0.9-0.8s0.8,0.3,0.9,0.7l1.1,3.6l0,0l1.1-3.5
										c0.1-0.5,0.4-0.8,0.9-0.8s0.8,0.3,0.9,0.8l1.1,3.5l0,0l1.1-3.6c0.1-0.4,0.4-0.7,0.9-0.7s0.9,0.3,0.9,0.9
										c0,0.2-0.1,0.4-0.2,0.7l-1.6,4.5c-0.2,0.5-0.5,0.9-1.1,0.9s-0.9-0.3-1.1-0.9l-1-3l0,0l-1,3c-0.2,0.5-0.5,0.9-1.1,0.9
										s-0.9-0.4-1.1-0.9L289.5,320.9z"/>
								</defs>
								<clipPath id="SVGID_30_">
									<use xlink:href="#SVGID_29_"  style="overflow:visible;"/>
								</clipPath>
								
									<linearGradient id="SVGID_31_" gradientUnits="userSpaceOnUse" x1="289.923" y1="499.5209" x2="335.6277" y2="525.9084" gradientTransform="matrix(1 0 0 1 0 -196)">
									<stop  offset="0.125" style="stop-color:#1BA2DC"/>
									<stop  offset="0.25" style="stop-color:#3DAD1A"/>
									<stop  offset="0.5" style="stop-color:#EEA600"/>
									<stop  offset="0.75" style="stop-color:#E81D63"/>
									<stop  offset="0.875" style="stop-color:#500E8E"/>
								</linearGradient>
								<rect x="289.3" y="304.6" class="st27" width="46.9" height="24.2"/>
							</g>
						</g>
					</g>
				</g>
			</g>
			<g>
				<g>
					<g>
						<g>
							<g>
								<defs>
									<path id="SVGID_32_" d="M306.1,322.8c0,2-1.3,3.6-3.4,3.6c-2,0-3.4-1.7-3.4-3.6s1.4-3.6,3.4-3.6
										C304.7,319.1,306.1,320.9,306.1,322.8z M301.2,322.8c0,0.9,0.5,1.9,1.5,1.9s1.5-1,1.5-1.9s-0.5-1.9-1.5-1.9
										S301.2,321.9,301.2,322.8z"/>
								</defs>
								<clipPath id="SVGID_33_">
									<use xlink:href="#SVGID_32_"  style="overflow:visible;"/>
								</clipPath>
								
									<linearGradient id="SVGID_34_" gradientUnits="userSpaceOnUse" x1="289.923" y1="499.5209" x2="335.6277" y2="525.9084" gradientTransform="matrix(1 0 0 1 0 -196)">
									<stop  offset="0.125" style="stop-color:#1BA2DC"/>
									<stop  offset="0.25" style="stop-color:#3DAD1A"/>
									<stop  offset="0.5" style="stop-color:#EEA600"/>
									<stop  offset="0.75" style="stop-color:#E81D63"/>
									<stop  offset="0.875" style="stop-color:#500E8E"/>
								</linearGradient>
								<rect x="289.3" y="304.6" class="st28" width="46.9" height="24.2"/>
							</g>
						</g>
					</g>
				</g>
			</g>
			<g>
				<g>
					<g>
						<g>
							<g>
								<defs>
									<path id="SVGID_35_" d="M306.6,320.3c0-0.6,0.4-1,0.9-1s0.8,0.3,0.9,0.7c0.4-0.5,0.9-0.8,1.8-0.8c1.5,0,2.6,0.9,2.6,2.5
										v3.6c0,0.6-0.4,1-0.9,1s-0.9-0.4-0.9-1V322c0-0.9-0.5-1.3-1.2-1.3c-0.8,0-1.2,0.6-1.2,1.3v3.3c0,0.6-0.4,1-0.9,1
										s-0.9-0.4-0.9-1v-5H306.6z"/>
								</defs>
								<clipPath id="SVGID_36_">
									<use xlink:href="#SVGID_35_"  style="overflow:visible;"/>
								</clipPath>
								
									<linearGradient id="SVGID_37_" gradientUnits="userSpaceOnUse" x1="289.923" y1="499.5209" x2="335.6277" y2="525.9084" gradientTransform="matrix(1 0 0 1 0 -196)">
									<stop  offset="0.125" style="stop-color:#1BA2DC"/>
									<stop  offset="0.25" style="stop-color:#3DAD1A"/>
									<stop  offset="0.5" style="stop-color:#EEA600"/>
									<stop  offset="0.75" style="stop-color:#E81D63"/>
									<stop  offset="0.875" style="stop-color:#500E8E"/>
								</linearGradient>
								<rect x="289.3" y="304.6" class="st29" width="46.9" height="24.2"/>
							</g>
						</g>
					</g>
				</g>
			</g>
			<g>
				<g>
					<g>
						<g>
							<g>
								<defs>
									<path id="SVGID_38_" d="M319.9,325.3c0,0.6-0.4,1-0.9,1s-0.8-0.3-0.9-0.8c-0.4,0.6-1.1,0.9-1.7,0.9c-1.9,0-3.1-1.8-3.1-3.5
										c0-1.8,1-3.7,3-3.7c0.6,0,1.3,0.2,1.8,0.7v-2.5c0-0.6,0.4-1,0.9-1s0.9,0.4,0.9,1L319.9,325.3L319.9,325.3z M316.6,320.9
										c-1,0-1.5,1-1.5,1.9s0.5,1.9,1.5,1.9s1.5-1,1.5-2C318,321.8,317.6,320.9,316.6,320.9z"/>
								</defs>
								<clipPath id="SVGID_39_">
									<use xlink:href="#SVGID_38_"  style="overflow:visible;"/>
								</clipPath>
								
									<linearGradient id="SVGID_40_" gradientUnits="userSpaceOnUse" x1="289.923" y1="499.5209" x2="335.6277" y2="525.9084" gradientTransform="matrix(1 0 0 1 0 -196)">
									<stop  offset="0.125" style="stop-color:#1BA2DC"/>
									<stop  offset="0.25" style="stop-color:#3DAD1A"/>
									<stop  offset="0.5" style="stop-color:#EEA600"/>
									<stop  offset="0.75" style="stop-color:#E81D63"/>
									<stop  offset="0.875" style="stop-color:#500E8E"/>
								</linearGradient>
								<rect x="289.3" y="304.6" class="st30" width="46.9" height="24.2"/>
							</g>
						</g>
					</g>
				</g>
			</g>
			<g>
				<g>
					<g>
						<g>
							<g>
								<defs>
									<path id="SVGID_41_" d="M322.2,323.4c0.1,0.9,0.9,1.4,1.8,1.4c1,0,1.6-0.8,2.1-0.8c0.4,0,0.8,0.4,0.8,0.8
										c0,0.8-1.7,1.6-3.1,1.6c-2.1,0-3.5-1.5-3.5-3.6c0-1.9,1.4-3.6,3.4-3.6s3.4,1.8,3.4,3.4c0,0.6-0.2,0.8-0.8,0.8L322.2,323.4
										L322.2,323.4z M325.1,322.1c-0.1-0.8-0.6-1.4-1.5-1.4c-0.8,0-1.4,0.6-1.5,1.4H325.1z"/>
								</defs>
								<clipPath id="SVGID_42_">
									<use xlink:href="#SVGID_41_"  style="overflow:visible;"/>
								</clipPath>
								
									<linearGradient id="SVGID_43_" gradientUnits="userSpaceOnUse" x1="289.923" y1="499.5209" x2="335.6277" y2="525.9084" gradientTransform="matrix(1 0 0 1 0 -196)">
									<stop  offset="0.125" style="stop-color:#1BA2DC"/>
									<stop  offset="0.25" style="stop-color:#3DAD1A"/>
									<stop  offset="0.5" style="stop-color:#EEA600"/>
									<stop  offset="0.75" style="stop-color:#E81D63"/>
									<stop  offset="0.875" style="stop-color:#500E8E"/>
								</linearGradient>
								<rect x="289.3" y="304.6" class="st31" width="46.9" height="24.2"/>
							</g>
						</g>
					</g>
				</g>
			</g>
			<g>
				<g>
					<g>
						<g>
							<g>
								<defs>
									<path id="SVGID_44_" d="M327.7,320.2c0-0.6,0.5-0.9,1-0.9s0.9,0.2,0.9,0.8l0,0c0.4-0.5,0.7-0.8,1.3-0.8
										c0.5,0,0.9,0.3,0.9,1c0,0.6-0.6,0.7-1.1,0.9c-0.6,0.3-1.1,0.5-1.1,1.2v2.9c0,0.6-0.4,1-0.9,1s-0.9-0.4-0.9-1L327.7,320.2
										L327.7,320.2z"/>
								</defs>
								<clipPath id="SVGID_45_">
									<use xlink:href="#SVGID_44_"  style="overflow:visible;"/>
								</clipPath>
								
									<linearGradient id="SVGID_46_" gradientUnits="userSpaceOnUse" x1="290.323" y1="499.5209" x2="336.0276" y2="525.9084" gradientTransform="matrix(1 0 0 1 0 -196)">
									<stop  offset="0.125" style="stop-color:#1BA2DC"/>
									<stop  offset="0.25" style="stop-color:#3DAD1A"/>
									<stop  offset="0.5" style="stop-color:#EEA600"/>
									<stop  offset="0.75" style="stop-color:#E81D63"/>
									<stop  offset="0.875" style="stop-color:#500E8E"/>
								</linearGradient>
								<rect x="289.7" y="304.6" class="st32" width="46.9" height="24.2"/>
							</g>
						</g>
					</g>
				</g>
			</g>
			<g>
				<g>
					<g>
						<g>
							<g>
								<defs>
									<path id="SVGID_47_" d="M336.1,321.3c-0.4,0-1.1-0.5-1.7-0.5c-0.3,0-0.6,0.2-0.6,0.5c0,0.9,3.2,0.7,3.2,2.9
										c0,1.2-1.1,2.2-2.7,2.2c-1.1,0-2.6-0.6-2.6-1.4c0-0.3,0.3-0.8,0.8-0.8c0.7,0,1.1,0.6,1.9,0.6c0.6,0,0.7-0.2,0.7-0.5
										c0-0.9-3.2-0.7-3.2-2.9c0-1.3,1.1-2.2,2.5-2.2c0.9,0,2.3,0.4,2.3,1.4C336.9,320.9,336.6,321.3,336.1,321.3z"/>
								</defs>
								<clipPath id="SVGID_48_">
									<use xlink:href="#SVGID_47_"  style="overflow:visible;"/>
								</clipPath>
								
									<linearGradient id="SVGID_49_" gradientUnits="userSpaceOnUse" x1="290.7231" y1="499.5208" x2="336.4276" y2="525.9084" gradientTransform="matrix(1 0 0 1 0 -196)">
									<stop  offset="0.125" style="stop-color:#1BA2DC"/>
									<stop  offset="0.25" style="stop-color:#3DAD1A"/>
									<stop  offset="0.5" style="stop-color:#EEA600"/>
									<stop  offset="0.75" style="stop-color:#E81D63"/>
									<stop  offset="0.875" style="stop-color:#500E8E"/>
								</linearGradient>
								<rect x="290.1" y="304.6" class="st33" width="46.9" height="24.2"/>
							</g>
						</g>
					</g>
				</g>
			</g>
		</g>
	</g>
</g>
</svg>
