<?xml version="1.0" encoding="utf-8"?>
<!-- Generator: Adobe Illustrator 21.1.0, SVG Export Plug-In . SVG Version: 6.00 Build 0)  -->
<svg version="1.1" id="Layer_1" xmlns="http://www.w3.org/2000/svg" xmlns:xlink="http://www.w3.org/1999/xlink" x="0px" y="0px"
	 viewBox="0 0 1600 900" style="enable-background:new 0 0 1600 900;" xml:space="preserve">
<style type="text/css">
	.st0{fill:#F5F5F5;}
	.st1{fill:#E3C9B2;}
	.st2{fill:none;stroke:#222222;stroke-linecap:round;stroke-linejoin:round;stroke-miterlimit:10;}
	.st3{fill:#222222;}
	.st4{fill:#FFFFFF;}
</style>
<g>
	<rect class="st0" width="1600" height="900"/>
</g>
<g>
	<g>
		<g>
			<g>
				<path class="st1" d="M383.3,277.7c-6.4,0-11.7-5.2-11.7-11.7s5.2-11.7,11.7-11.7S395,259.5,395,266S389.8,277.7,383.3,277.7z
					 M383.3,256.5c-5.3,0-9.6,4.3-9.6,9.6c0,5.3,4.3,9.6,9.6,9.6s9.6-4.3,9.6-9.6C392.9,260.7,388.6,256.5,383.3,256.5z"/>
			</g>
			<g>
				<path class="st2" d="M383.1,311"/>
			</g>
			<g>
				<path class="st3" d="M398.8,312.1H368c-0.6,0-1.1-0.5-1.1-1.1s0.5-1.1,1.1-1.1h29.9c0.3-2.5,1-9.3,1.2-14.7c0-1-0.2-1.7-0.6-2.3
					c-4.7-5.5-9.8-8.5-14.9-8.5c-0.6,0-1.1-0.5-1.1-1.1s0.5-1.1,1.1-1.1c4,0,10,1.6,16.5,9.3c0.7,1,1.1,2.2,1.1,3.7
					c-0.2,6.8-1.3,15.7-1.3,15.8C399.8,311.7,399.4,312.1,398.8,312.1z"/>
			</g>
			<g>
				<path class="st3" d="M368,312.1c-0.5,0-1-0.4-1.1-0.9c0-0.1-1.1-9-1.3-15.8c0-1.5,0.4-2.7,1.1-3.6c3-3.5,9.1-9.3,16.8-9.3
					c0.6,0,1.1,0.5,1.1,1.1s-0.5,1.1-1.1,1.1c-6.9,0-12.4,5.4-15.1,8.5c-0.4,0.5-0.6,1.3-0.6,2.3c0.2,6.6,1.3,15.5,1.3,15.6
					c0.1,0.6-0.3,1.1-0.9,1.2C368.1,312.1,368.1,312.1,368,312.1z"/>
			</g>
		</g>
		<g>
			<g>
				<path class="st1" d="M383.3,201.3c-6.4,0-11.7-5.2-11.7-11.7s5.2-11.7,11.7-11.7s11.7,5.2,11.7,11.7S389.8,201.3,383.3,201.3z
					 M383.3,180c-5.3,0-9.6,4.3-9.6,9.6s4.3,9.6,9.6,9.6s9.6-4.3,9.6-9.6S388.6,180,383.3,180z"/>
			</g>
			<g>
				<path class="st2" d="M383.1,234.6"/>
			</g>
			<g>
				<path class="st3" d="M398.8,235.7H368c-0.6,0-1.1-0.5-1.1-1.1s0.5-1.1,1.1-1.1h29.9c0.3-2.5,1-9.3,1.2-14.7c0-1-0.2-1.7-0.6-2.3
					c-4.7-5.5-9.8-8.5-14.9-8.5c-0.6,0-1.1-0.5-1.1-1.1s0.5-1.1,1.1-1.1c3.9,0,10,1.6,16.5,9.3c0.7,1,1.1,2.2,1.1,3.7
					c-0.2,6.8-1.3,15.8-1.3,15.8C399.8,235.3,399.4,235.7,398.8,235.7z"/>
			</g>
			<g>
				<path class="st3" d="M368,235.7c-0.5,0-1-0.4-1.1-0.9c0-0.1-1.1-9-1.3-15.8c0-1.5,0.4-2.7,1.1-3.6c3-3.5,9.1-9.3,16.8-9.3
					c0.6,0,1.1,0.5,1.1,1.1s-0.5,1.1-1.1,1.1c-6.9,0-12.4,5.4-15.1,8.5c-0.4,0.5-0.6,1.3-0.6,2.3c0.2,6.6,1.3,15.5,1.3,15.6
					c0.1,0.6-0.3,1.1-0.9,1.2C368.1,235.7,368.1,235.7,368,235.7z"/>
			</g>
		</g>
		<g>
			<g>
				<path class="st1" d="M362.7,340.8h-28c-0.6,0-1.1-0.5-1.1-1.1s0.5-1.1,1.1-1.1h28c0.6,0,1.1,0.5,1.1,1.1
					S363.3,340.8,362.7,340.8z"/>
			</g>
			<g>
				<path class="st1" d="M379.7,340.6h-10.2c-0.6,0-1.1-0.5-1.1-1.1s0.5-1.1,1.1-1.1h10.2c0.6,0,1.1,0.5,1.1,1.1
					S380.3,340.6,379.7,340.6z"/>
			</g>
			<g>
				<path class="st1" d="M379.9,349.5h-20.8c-0.6,0-1.1-0.5-1.1-1.1s0.5-1.1,1.1-1.1h20.8c0.6,0,1.1,0.5,1.1,1.1
					S380.5,349.5,379.9,349.5z"/>
			</g>
			<g>
				<path class="st1" d="M353.2,349.5h-7.4c-0.6,0-1.1-0.5-1.1-1.1s0.5-1.1,1.1-1.1h7.4c0.6,0,1.1,0.5,1.1,1.1
					S353.7,349.5,353.2,349.5z"/>
			</g>
		</g>
		<g>
			<g>
				<g>
					<path class="st3" d="M339.4,98c-0.3,0-0.5-0.1-0.8-0.3l-4.9-4.9c-0.4-0.4-0.4-1.1,0-1.5s1.1-0.4,1.5,0l4.9,4.9
						c0.4,0.4,0.4,1.1,0,1.5C339.9,97.9,339.6,98,339.4,98z"/>
				</g>
				<g>
					<path class="st3" d="M350.6,109.3c-0.3,0-0.5-0.1-0.8-0.3l-4.9-4.9c-0.4-0.4-0.4-1.1,0-1.5s1.1-0.4,1.5,0l4.9,4.9
						c0.4,0.4,0.4,1.1,0,1.5C351.2,109.2,350.9,109.3,350.6,109.3z"/>
				</g>
			</g>
			<g>
				<g>
					<path class="st3" d="M334.5,109.3c-0.3,0-0.5-0.1-0.8-0.3c-0.4-0.4-0.4-1.1,0-1.5l4.9-4.9c0.4-0.4,1.1-0.4,1.5,0s0.4,1.1,0,1.5
						l-4.9,4.9C335,109.2,334.7,109.3,334.5,109.3z"/>
				</g>
				<g>
					<path class="st3" d="M345.7,98c-0.3,0-0.5-0.1-0.8-0.3c-0.4-0.4-0.4-1.1,0-1.5l4.9-4.9c0.4-0.4,1.1-0.4,1.5,0s0.4,1.1,0,1.5
						l-4.9,4.9C346.3,97.9,346,98,345.7,98z"/>
				</g>
			</g>
		</g>
		<g>
			<g>
				<g>
					<path class="st3" d="M301.1,316.8c-0.3,0-0.5-0.1-0.8-0.3l-4.9-4.9c-0.4-0.4-0.4-1.1,0-1.5s1.1-0.4,1.5,0l4.9,4.9
						c0.4,0.4,0.4,1.1,0,1.5C301.7,316.7,301.4,316.8,301.1,316.8z"/>
				</g>
				<g>
					<path class="st3" d="M312.4,328c-0.3,0-0.5-0.1-0.8-0.3l-4.9-4.9c-0.4-0.4-0.4-1.1,0-1.5s1.1-0.4,1.5,0l4.9,4.9
						c0.4,0.4,0.4,1.1,0,1.5C312.9,327.9,312.7,328,312.4,328z"/>
				</g>
			</g>
			<g>
				<g>
					<path class="st3" d="M296.2,328c-0.3,0-0.5-0.1-0.8-0.3c-0.4-0.4-0.4-1.1,0-1.5l4.9-4.9c0.4-0.4,1.1-0.4,1.5,0s0.4,1.1,0,1.5
						l-4.9,4.9C296.8,327.9,296.5,328,296.2,328z"/>
				</g>
				<g>
					<path class="st3" d="M307.5,316.8c-0.3,0-0.5-0.1-0.8-0.3c-0.4-0.4-0.4-1.1,0-1.5l4.9-4.9c0.4-0.4,1.1-0.4,1.5,0s0.4,1.1,0,1.5
						l-4.9,4.9C308,316.7,307.8,316.8,307.5,316.8z"/>
				</g>
			</g>
		</g>
		<g>
			<g>
				<g>
					<path class="st1" d="M140.6,248.2c-0.3,0-0.5-0.1-0.8-0.3l-4.9-4.9c-0.4-0.4-0.4-1.1,0-1.5s1.1-0.4,1.5,0l4.9,4.9
						c0.4,0.4,0.4,1.1,0,1.5C141.1,248.1,140.9,248.2,140.6,248.2z"/>
				</g>
				<g>
					<path class="st1" d="M151.9,259.4c-0.3,0-0.5-0.1-0.8-0.3l-4.9-4.9c-0.4-0.4-0.4-1.1,0-1.5s1.1-0.4,1.5,0l4.9,4.9
						c0.4,0.4,0.4,1.1,0,1.5C152.4,259.3,152.1,259.4,151.9,259.4z"/>
				</g>
			</g>
			<g>
				<g>
					<path class="st1" d="M135.7,259.4c-0.3,0-0.5-0.1-0.8-0.3c-0.4-0.4-0.4-1.1,0-1.5l4.9-4.9c0.4-0.4,1.1-0.4,1.5,0s0.4,1.1,0,1.5
						l-4.9,4.9C136.3,259.3,136,259.4,135.7,259.4z"/>
				</g>
				<g>
					<path class="st1" d="M147,248.2c-0.3,0-0.5-0.1-0.8-0.3c-0.4-0.4-0.4-1.1,0-1.5l4.9-4.9c0.4-0.4,1.1-0.4,1.5,0s0.4,1.1,0,1.5
						l-4.9,4.9C147.5,248.1,147.2,248.2,147,248.2z"/>
				</g>
			</g>
		</g>
		<g>
			<g>
				<path class="st3" d="M156.3,179.2c-0.6,0-1.1-0.5-1.1-1.1V155c0-0.6,0.5-1.1,1.1-1.1s1.1,0.5,1.1,1.1v23.1
					C157.4,178.7,156.9,179.2,156.3,179.2z"/>
			</g>
			<g>
				<path class="st3" d="M156.5,196.2c-0.6,0-1.1-0.5-1.1-1.1v-10.4c0-0.6,0.5-1.1,1.1-1.1s1.1,0.5,1.1,1.1v10.4
					C157.6,195.7,157.1,196.2,156.5,196.2z"/>
			</g>
		</g>
		<g>
			<g>
				<path class="st1" d="M171.8,108.9h-20.2c-0.6,0-1.1-0.5-1.1-1.1s0.5-1.1,1.1-1.1h20.2c0.6,0,1.1,0.5,1.1,1.1
					S172.4,108.9,171.8,108.9z"/>
			</g>
			<g>
				<path class="st1" d="M185.6,108.7h-8.7c-0.6,0-1.1-0.5-1.1-1.1s0.5-1.1,1.1-1.1h8.7c0.6,0,1.1,0.5,1.1,1.1
					S186.2,108.7,185.6,108.7z"/>
			</g>
			<g>
				<path class="st1" d="M196.7,118.2h-29.1c-0.6,0-1.1-0.5-1.1-1.1s0.5-1.1,1.1-1.1h29.1c0.6,0,1.1,0.5,1.1,1.1
					S197.2,118.2,196.7,118.2z"/>
			</g>
			<g>
				<path class="st1" d="M162.9,118.2h-11.3c-0.6,0-1.1-0.5-1.1-1.1s0.5-1.1,1.1-1.1h11.3c0.6,0,1.1,0.5,1.1,1.1
					S163.5,118.2,162.9,118.2z"/>
			</g>
		</g>
		<g>
			<path class="st3" d="M213.2,145c-4,0-7.2-3.2-7.2-7.2s3.2-7.2,7.2-7.2s7.2,3.2,7.2,7.2C220.4,141.7,217.2,145,213.2,145z
				 M213.2,132.7c-2.8,0-5.1,2.3-5.1,5.1s2.3,5.1,5.1,5.1s5.1-2.3,5.1-5.1S216,132.7,213.2,132.7z"/>
		</g>
		<g>
			<path class="st1" d="M179,351c-4,0-7.2-3.2-7.2-7.2s3.2-7.2,7.2-7.2s7.2,3.2,7.2,7.2C186.3,347.7,183,351,179,351z M179,338.6
				c-2.8,0-5.1,2.3-5.1,5.1c0,2.8,2.3,5.1,5.1,5.1s5.1-2.3,5.1-5.1C184.1,340.9,181.8,338.6,179,338.6z"/>
		</g>
		<g>
			<path class="st1" d="M268.8,170.3c-0.3,0-0.5-0.1-0.7-0.2c-1.5-0.6-0.7-3,0.3-5.9c0.4-1,0.9-2.7,1-3.4
				c-11.3-6-18.3-17.5-18.3-30.1c0-18.7,15.2-34,34-34c18.9,0.4,33.8,15.4,33.8,34c0,18.7-15.2,34-34,34c-2.2,0-4.4-0.2-6.4-0.7
				c-0.4,0.1-2.7,1.8-4.2,3C271.2,169.3,269.8,170.3,268.8,170.3z M285,98.9c-17.5,0-31.8,14.3-31.8,31.9c0,11.9,6.7,22.8,17.5,28.4
				c1.4,0.9,0.7,3-0.3,5.8c-0.3,0.8-0.7,2.1-0.9,2.9c0.9-0.6,2.4-1.7,3.5-2.5c3.4-2.6,4.8-3.5,5.8-3.4c1.9,0.4,3.9,0.6,6,0.6
				c17.6,0,31.9-14.3,31.9-31.9C316.6,113.3,302.7,99.3,285,98.9z"/>
		</g>
		<g>
			<path class="st3" d="M306.9,126.3h-41.4c-0.6,0-1.1-0.5-1.1-1.1s0.5-1.1,1.1-1.1h41.4c0.6,0,1.1,0.5,1.1,1.1
				C307.9,125.8,307.5,126.3,306.9,126.3z"/>
		</g>
		<g>
			<path class="st3" d="M299.2,140.3h-25.9c-0.6,0-1.1-0.5-1.1-1.1s0.5-1.1,1.1-1.1h25.9c0.6,0,1.1,0.5,1.1,1.1
				C300.3,139.8,299.8,140.3,299.2,140.3z"/>
		</g>
		<g>
			<g>
				<path class="st3" d="M218.1,324.4c-36.9-0.6-63.2-18.7-64.9-19.9c-0.7-0.3-2.9-1.8-1.5-6.3l0.1-0.3c4.6-15.5,13.1-23.9,25.2-25
					c13.7-1.5,20.6,1,20.9,1.1c0.5,0.2,0.8,0.8,0.6,1.4c-0.2,0.5-0.8,0.8-1.4,0.6c-0.1,0-6.8-2.4-19.9-1c-11.2,1.1-19.1,9-23.4,23.5
					l-0.1,0.4c-0.9,3.1,0.4,3.8,0.4,3.8c0.1,0,0.2,0.1,0.2,0.1c0.3,0.2,26.5,18.9,63.7,19.5c37.2-0.6,64.1-19.4,64.3-19.6
					c0.1,0,0.1-0.1,0.2-0.1c0.4-0.2,1.1-1.3,0.4-3.9c-1.3-5.1-6.8-22.1-23.5-23.8c-13.1-1.4-19.8,1-19.9,1c-0.5,0.2-1.2-0.1-1.4-0.6
					s0.1-1.2,0.6-1.4c0.3-0.1,7.2-2.6,20.9-1.1c18.1,1.9,24,19.9,25.3,25.4c1.1,4.5-0.9,5.9-1.5,6.3
					C282.2,305.5,255.1,323.8,218.1,324.4z"/>
			</g>
			<g>
				<path class="st1" d="M218.9,259.4c-23.8,0-29.8-19.6-31.7-26.1c-0.1-0.5-0.3-1-0.4-1.3c-0.1,0-0.2,0-0.3-0.1
					c-2.3-0.4-7.6-1.4-7.4-13.2c0.4-12.4,5.6-13.7,6.2-13.8c0.6-0.1,1.1,0.3,1.2,0.9c0.1,0.6-0.3,1.1-0.9,1.2c0,0-4,1.1-4.4,11.7
					c-0.2,9.9,3.6,10.6,5.7,11c0.5,0.1,0.8,0.2,1.2,0.3c0.1,0,0.1,0.1,0.2,0.1c0.4,0.3,0.6,0.8,1,2.4c1.9,6.2,7.6,25,30.4,24.6
					c18.9-0.1,23.7-12.1,26.9-20.1c1.4-3.4,2.4-5.9,4.2-6.4c3.9-1.2,6.3-2,6.5-12.6c0.2-10.5-4.7-11.9-4.7-11.9
					c-0.6-0.1-0.9-0.7-0.8-1.3c0.1-0.6,0.7-0.9,1.3-0.8c0.3,0.1,6.6,1.6,6.4,14c-0.2,10.9-2.7,12.9-8,14.6c-0.9,0.3-1.9,2.7-2.9,5.2
					c-3.2,7.9-8.5,21.2-28.9,21.4C219.4,259.4,219.1,259.4,218.9,259.4z"/>
			</g>
			<g>
				<path class="st1" d="M217,296.8c-6,0-16.5-9.9-19.4-16.8c-1.5-3.6-0.6-5.5,0.4-6.5c3.5-3.5,1.6-16.6,0.6-21.3
					c-0.1-0.6,0.2-1.1,0.8-1.3c0.6-0.1,1.1,0.2,1.3,0.8c0.4,1.9,3.8,18.3-1.1,23.3c-1,0.9-0.5,2.8,0.1,4.1
					c2.8,6.7,12.7,15.5,17.4,15.5c7.2,0,14.7-6.4,18.6-12.4c2.2-3.4,3.2-6.5,2.5-8c-2.5-5.7-2.8-12.6-0.9-22.3
					c0.1-0.6,0.7-1,1.2-0.8c0.6,0.1,1,0.7,0.8,1.2c-1.8,9.2-1.6,15.7,0.8,21c1,2.2,0,5.9-2.7,10C233.1,290.1,225.1,296.8,217,296.8z
					"/>
			</g>
			<g>
				<path class="st3" d="M185.6,207.2L185.6,207.2c-0.6,0-1-0.4-1-0.9c-0.2-1-4-24.1,1.9-31.6c6.4-8.1,33.3-8.9,33.5-8.9l0.8,0.1
					c16.2,1.3,27.1,4.6,31.6,9.4c6.2,6.8,3.1,22.2,1.9,28c-0.2,0.9-0.4,1.8-0.4,2c0,0.5-0.4,1.1-1,1.2c-1,0.1-1.2-0.6-1.5-2
					c-1.7-6.9-3.5-10.8-5.3-11.4c-3.5-1.3-17.4-1.2-22.6-1.2H222c-0.9,0-1.9,0-2.7-0.3c-2.8-0.6-10-2.1-13.8-6.2
					c-0.1,2.1,0.4,5.7,1.1,6.2c0.5,0.3,1.4,0.9,1,1.9s-1.2,0.8-3.9,0.2c-3-0.7-9.3-2-11.3-0.4c-2.8,2.2-3.5,4.6-4.8,9
					c-0.4,1.2-0.8,2.6-1.3,4.1C186.5,206.9,186.1,207.2,185.6,207.2z M219.9,167.9c-3.2,0-26.5,1.5-31.8,8.1c-3.9,4.9-3,18-2.1,25.2
					c1.3-4.3,2.2-7,5.3-9.5c2.5-2.1,7.8-1.2,13,0c-0.9-2.3-0.9-6.1-0.7-7.4c0.1-0.5,0.3-1.7,1.3-2c0.4-0.1,1.1,0,1.7,0.9
					c2.9,4.1,10.5,5.7,13.3,6.3c0.6,0.2,1.6,0.2,2.1,0.2h1.5c9.6,0,19.9,0.1,23.3,1.3c2.7,0.9,4.5,5.1,5.8,9.5
					c1.2-6.5,3-18.6-1.8-23.9c-4-4.4-14.7-7.5-30.2-8.7L219.9,167.9z"/>
			</g>
		</g>
		<g>
			<path class="st3" d="M340,281.7c-0.2,0-0.4-0.1-0.6-0.2l-55.8-41.2c-0.5-0.3-0.6-1-0.2-1.5c0.3-0.5,1-0.6,1.5-0.2l55.8,41.2
				c0.5,0.3,0.6,1,0.2,1.5C340.6,281.6,340.3,281.7,340,281.7z"/>
		</g>
		<g>
			<path class="st3" d="M284.1,195.3c-0.3,0-0.6-0.1-0.9-0.4c-0.3-0.5-0.2-1.1,0.2-1.5l55.8-41.2c0.5-0.3,1.1-0.2,1.5,0.2
				c0.3,0.5,0.2,1.1-0.2,1.5l-55.8,41.2C284.6,195.2,284.4,195.3,284.1,195.3z"/>
		</g>
		<g>
			<path class="st3" d="M340.4,218h-56.7c-0.6,0-1.1-0.5-1.1-1.1s0.5-1.1,1.1-1.1h56.7c0.6,0,1.1,0.5,1.1,1.1S341,218,340.4,218z"/>
		</g>
		<g>
			<g>
				<path class="st1" d="M383.3,124.8c-6.4,0-11.7-5.2-11.7-11.7c0-6.4,5.2-11.7,11.7-11.7s11.7,5.2,11.7,11.7
					C395,119.6,389.8,124.8,383.3,124.8z M383.3,103.6c-5.3,0-9.6,4.3-9.6,9.6c0,5.3,4.3,9.6,9.6,9.6s9.6-4.3,9.6-9.6
					S388.6,103.6,383.3,103.6z"/>
			</g>
			<g>
				<path class="st2" d="M383.1,158.1"/>
			</g>
			<g>
				<path class="st3" d="M398.8,159.2H368c-0.6,0-1.1-0.5-1.1-1.1s0.5-1.1,1.1-1.1h29.9c0.3-2.5,1-9.3,1.2-14.7c0-1-0.2-1.7-0.6-2.3
					c-4.7-5.5-9.8-8.5-14.9-8.5c-0.6,0-1.1-0.5-1.1-1.1s0.5-1.1,1.1-1.1c3.9,0,10,1.6,16.5,9.3c0.7,1,1.1,2.2,1.1,3.7
					c-0.2,6.8-1.3,15.8-1.3,15.8C399.8,158.8,399.4,159.2,398.8,159.2z"/>
			</g>
			<g>
				<path class="st3" d="M368,159.2c-0.5,0-1-0.4-1.1-0.9c0-0.1-1.1-9-1.3-15.8c0-1.5,0.4-2.7,1.1-3.6c3-3.5,9.1-9.3,16.8-9.3
					c0.6,0,1.1,0.5,1.1,1.1s-0.5,1.1-1.1,1.1c-6.9,0-12.4,5.4-15.1,8.5c-0.4,0.5-0.6,1.3-0.6,2.3c0.2,6.6,1.3,15.5,1.3,15.6
					c0.1,0.6-0.3,1.1-0.9,1.2C368.1,159.2,368.1,159.2,368,159.2z"/>
			</g>
		</g>
	</g>
</g>
<g>
	<g>
		<g>
			<g>
				<path class="st1" d="M915.2,554.1h-34.8c-0.6,0-1.1-0.5-1.1-1.1s0.5-1.1,1.1-1.1h34.8c0.6,0,1.1,0.5,1.1,1.1
					S915.8,554.1,915.2,554.1z"/>
			</g>
			<g>
				<path class="st1" d="M935.6,553.9h-13.8c-0.6,0-1.1-0.5-1.1-1.1s0.5-1.1,1.1-1.1h13.8c0.6,0,1.1,0.5,1.1,1.1
					S936.2,553.9,935.6,553.9z"/>
			</g>
			<g>
				<path class="st1" d="M935.6,565h-25.5c-0.6,0-1.1-0.5-1.1-1.1s0.5-1.1,1.1-1.1h25.5c0.6,0,1.1,0.5,1.1,1.1
					C936.6,564.5,936.2,565,935.6,565z"/>
			</g>
			<g>
				<path class="st1" d="M904.6,565h-10.8c-0.6,0-1.1-0.5-1.1-1.1s0.5-1.1,1.1-1.1h10.8c0.6,0,1.1,0.5,1.1,1.1
					C905.6,564.5,905.2,565,904.6,565z"/>
			</g>
		</g>
		<g>
			<g>
				<g>
					<path class="st1" d="M822.2,755.9c-0.3,0-0.5-0.1-0.8-0.3l-4.9-4.9c-0.4-0.4-0.4-1.1,0-1.5s1.1-0.4,1.5,0l4.9,4.9
						c0.4,0.4,0.4,1.1,0,1.5C822.7,755.8,822.5,755.9,822.2,755.9z"/>
				</g>
				<g>
					<path class="st1" d="M833.4,767.1c-0.3,0-0.5-0.1-0.8-0.3l-4.9-4.9c-0.4-0.4-0.4-1.1,0-1.5s1.1-0.4,1.5,0l4.9,4.9
						c0.4,0.4,0.4,1.1,0,1.5C834,767,833.7,767.1,833.4,767.1z"/>
				</g>
			</g>
			<g>
				<g>
					<path class="st1" d="M817.3,767.1c-0.3,0-0.5-0.1-0.8-0.3c-0.4-0.4-0.4-1.1,0-1.5l4.9-4.9c0.4-0.4,1.1-0.4,1.5,0s0.4,1.1,0,1.5
						l-4.9,4.9C817.8,767,817.6,767.1,817.3,767.1z"/>
				</g>
				<g>
					<path class="st1" d="M828.6,755.9c-0.3,0-0.5-0.1-0.8-0.3c-0.4-0.4-0.4-1.1,0-1.5l4.9-4.9c0.4-0.4,1.1-0.4,1.5,0s0.4,1.1,0,1.5
						l-4.9,4.9C829.1,755.8,828.8,755.9,828.6,755.9z"/>
				</g>
			</g>
		</g>
		<g>
			<g>
				<g>
					<path class="st1" d="M688,556.9c-0.3,0-0.5-0.1-0.8-0.3l-4.9-4.9c-0.4-0.4-0.4-1.1,0-1.5s1.1-0.4,1.5,0l4.9,4.9
						c0.4,0.4,0.4,1.1,0,1.5C688.5,556.8,688.3,556.9,688,556.9z"/>
				</g>
				<g>
					<path class="st1" d="M699.2,568.4c-0.3,0-0.6-0.1-0.8-0.3l-4.9-5.1c-0.4-0.4-0.4-1.1,0-1.5s1.1-0.4,1.5,0l4.9,5.1
						c0.4,0.4,0.4,1.1,0,1.5C699.8,568.3,699.5,568.4,699.2,568.4z"/>
				</g>
			</g>
			<g>
				<g>
					<path class="st1" d="M683.1,568.4c-0.3,0-0.5-0.1-0.7-0.3c-0.4-0.4-0.4-1.1,0-1.5l4.9-5.1c0.4-0.4,1.1-0.4,1.5,0s0.4,1.1,0,1.5
						l-4.9,5.1C683.7,568.3,683.4,568.4,683.1,568.4z"/>
				</g>
				<g>
					<path class="st1" d="M694.4,556.9c-0.3,0-0.5-0.1-0.8-0.3c-0.4-0.4-0.4-1.1,0-1.5l4.9-4.9c0.4-0.4,1.1-0.4,1.5,0s0.4,1.1,0,1.5
						l-4.9,4.9C694.9,556.8,694.6,556.9,694.4,556.9z"/>
				</g>
			</g>
		</g>
		<g>
			<g>
				<g>
					<path class="st1" d="M891.4,788.4c-0.3,0-0.6-0.1-0.8-0.3l-4.9-5.1c-0.4-0.4-0.4-1.1,0-1.5s1.1-0.4,1.5,0l4.9,5.1
						c0.4,0.4,0.4,1.1,0,1.5C891.9,788.3,891.7,788.4,891.4,788.4z"/>
				</g>
				<g>
					<path class="st1" d="M902.7,799.6c-0.3,0-0.5-0.1-0.8-0.3l-4.9-4.9c-0.4-0.4-0.4-1.1,0-1.5s1.1-0.4,1.5,0l4.9,4.9
						c0.4,0.4,0.4,1.1,0,1.5C903.2,799.5,902.9,799.6,902.7,799.6z"/>
				</g>
			</g>
			<g>
				<g>
					<path class="st1" d="M886.5,799.6c-0.3,0-0.5-0.1-0.8-0.3c-0.4-0.4-0.4-1.1,0-1.5l4.9-4.9c0.4-0.4,1.1-0.4,1.5,0s0.4,1.1,0,1.5
						l-4.9,4.9C887.1,799.5,886.8,799.6,886.5,799.6z"/>
				</g>
				<g>
					<path class="st1" d="M897.8,788.4c-0.3,0-0.5-0.1-0.7-0.3c-0.4-0.4-0.4-1.1,0-1.5l4.9-5.1c0.4-0.4,1.1-0.4,1.5,0s0.4,1.1,0,1.5
						l-4.9,5.1C898.3,788.2,898.1,788.4,897.8,788.4z"/>
				</g>
			</g>
		</g>
		<g>
			<g>
				<path class="st3" d="M687.3,681.1c-0.6,0-1.1-0.5-1.1-1.1v-30.6c0-0.6,0.5-1.1,1.1-1.1s1.1,0.5,1.1,1.1V680
					C688.4,680.6,687.9,681.1,687.3,681.1z"/>
			</g>
			<g>
				<path class="st3" d="M687.6,703.4c-0.6,0-1.1-0.5-1.1-1.1V689c0-0.6,0.5-1.1,1.1-1.1s1.1,0.5,1.1,1.1v13.4
					C688.6,702.9,688.1,703.4,687.6,703.4z"/>
			</g>
		</g>
		<g>
			<g>
				<path class="st3" d="M927.5,734.6c-0.6,0-1.1-0.5-1.1-1.1v-30.4c0-0.6,0.5-1.1,1.1-1.1s1.1,0.5,1.1,1.1v30.4
					C928.6,734.2,928.1,734.6,927.5,734.6z"/>
			</g>
			<g>
				<path class="st3" d="M927.7,756.9c-0.6,0-1.1-0.5-1.1-1.1v-13.4c0-0.6,0.5-1.1,1.1-1.1s1.1,0.5,1.1,1.1v13.4
					C928.8,756.5,928.3,756.9,927.7,756.9z"/>
			</g>
		</g>
		<g>
			<g>
				<path class="st1" d="M689,743.6h-24.6c-0.6,0-1.1-0.5-1.1-1.1s0.5-1.1,1.1-1.1H689c0.6,0,1.1,0.5,1.1,1.1S689.6,743.6,689,743.6
					z"/>
			</g>
			<g>
				<path class="st1" d="M706.9,743.3h-9.6c-0.6,0-1.1-0.5-1.1-1.1s0.5-1.1,1.1-1.1h9.6c0.6,0,1.1,0.5,1.1,1.1
					C707.9,742.9,707.5,743.3,706.9,743.3z"/>
			</g>
			<g>
				<path class="st1" d="M719.6,755h-34.8c-0.6,0-1.1-0.5-1.1-1.1s0.5-1.1,1.1-1.1h34.8c0.6,0,1.1,0.5,1.1,1.1
					C720.7,754.5,720.2,755,719.6,755z"/>
			</g>
			<g>
				<path class="st1" d="M675.9,755h-11.5c-0.6,0-1.1-0.5-1.1-1.1s0.5-1.1,1.1-1.1h11.5c0.6,0,1.1,0.5,1.1,1.1
					C676.9,754.5,676.5,755,675.9,755z"/>
			</g>
		</g>
		<g>
			<path class="st3" d="M750.6,726.1c-4,0-7.2-3.2-7.2-7.2s3.2-7.2,7.2-7.2s7.2,3.2,7.2,7.2C757.8,722.9,754.6,726.1,750.6,726.1z
				 M750.6,713.8c-2.8,0-5.1,2.3-5.1,5.1s2.3,5.1,5.1,5.1s5.1-2.3,5.1-5.1S753.4,713.8,750.6,713.8z"/>
		</g>
		<g>
			<path class="st3" d="M911.8,610.8c-4,0-7.2-3.2-7.2-7.2s3.2-7.2,7.2-7.2s7.2,3.2,7.2,7.2S915.8,610.8,911.8,610.8z M911.8,598.5
				c-2.8,0-5.1,2.3-5.1,5.1s2.3,5.1,5.1,5.1s5.1-2.3,5.1-5.1C916.9,600.8,914.6,598.5,911.8,598.5z"/>
		</g>
		<g>
			<path class="st1" d="M867.1,730.3c-6.8,0-10.5-0.1-10.5-0.1c-0.6,0-1-0.5-1-1.1s0.4-1,1.1-1c0.1,0,8.2,0.2,23.1,0
				c15.4-0.2,16.4-14.5,16.4-14.7v-25.1c0-0.3,0.1-0.6,0.3-0.8s0.5-0.3,0.8-0.3c0.1,0,6,0.2,11,0c1.7-0.1,3-0.6,3.6-1.6
				c0.6-0.9,0.5-2.1,0.2-2.9l-0.1-0.1c-4.3-7.7-14.5-26.7-16.6-37.7c-0.3-1.3-0.5-2.6-0.7-3.7c-1.7-9.7-2.7-15.1-13.4-30
				c-15-19-38.6-20.2-38.8-20.2h-38.6c-0.6,0-1.1-0.5-1.1-1.1s0.5-1.1,1.1-1.1h38.6c5,0,26.7,3.6,40.5,21c11,15.4,12,21.2,13.8,30.9
				c0.2,1.2,0.4,2.4,0.7,3.7c2.1,10.9,13,31.1,16.3,37l0.1,0.2c0.6,1.3,0.8,3.2-0.3,4.9c-0.7,1.1-2.2,2.5-5.3,2.6
				c-3.8,0.2-8.1,0.1-10,0v24c0,3.5-3.1,16.6-18.5,16.8C874.8,730.2,870.5,730.3,867.1,730.3z"/>
		</g>
		<g>
			<path class="st1" d="M864.7,764.6c-0.6,0-1.1-0.5-1.1-1.1v-34.2c0-0.6,0.5-1.1,1.1-1.1s1.1,0.5,1.1,1.1v34.2
				C865.7,764.1,865.2,764.6,864.7,764.6z"/>
		</g>
		<g>
			<path class="st1" d="M884.8,649.1c-0.1,0-0.1,0-0.2,0c-0.6-0.1-0.9-0.7-0.8-1.2c2.3-11.9-7.5-32.2-22.3-38.7
				c-0.5-0.2-0.8-0.9-0.5-1.4c0.2-0.5,0.9-0.8,1.4-0.5c14.7,6.5,26.3,26.9,23.5,41.1C885.8,648.7,885.3,649.1,884.8,649.1z"/>
		</g>
		<g>
			<path class="st1" d="M789.8,808.1c-0.2,0-0.4,0-0.4,0h-85.1c-0.6,0-1.1-0.5-1.1-1.1s0.5-1.1,1.1-1.1h85.2c0.1,0,4.2,0.2,6.9-2.3
				c1.6-1.5,2.4-3.7,2.4-6.6v-62.6c0-0.6,0.5-1.1,1.1-1.1s1.1,0.5,1.1,1.1V797c0,3.5-1,6.2-3.1,8.1
				C795,807.9,791.1,808.1,789.8,808.1z"/>
		</g>
		<g>
			<g>
				<path class="st3" d="M847.9,785.8c-0.6,0-1.1-0.5-1.1-1.1V769c0-0.6,0.5-1.1,1.1-1.1s1.1,0.5,1.1,1.1v15.7
					C848.9,785.3,848.5,785.8,847.9,785.8z"/>
			</g>
			<g>
				<path class="st3" d="M847.9,793.7c-0.6,0-1.1-0.5-1.1-1.1v-3.8c0-0.6,0.5-1.1,1.1-1.1s1.1,0.5,1.1,1.1v3.8
					C848.9,793.2,848.5,793.7,847.9,793.7z"/>
			</g>
		</g>
		<g>
			<g>
				<path class="st3" d="M847.9,755.9c-0.6,0-1.1-0.5-1.1-1.1v-15.5c0-0.6,0.5-1.1,1.1-1.1s1.1,0.5,1.1,1.1v15.5
					C848.9,755.4,848.5,755.9,847.9,755.9z"/>
			</g>
			<g>
				<path class="st3" d="M847.9,763.9c-0.6,0-1.1-0.5-1.1-1.1V759c0-0.6,0.5-1.1,1.1-1.1s1.1,0.5,1.1,1.1v3.8
					C848.9,763.5,848.5,763.9,847.9,763.9z"/>
			</g>
		</g>
		<g>
			<path class="st3" d="M847.9,806.4c-0.6,0-1.1-0.5-1.1-1.1V797c0-0.6,0.5-1.1,1.1-1.1s1.1,0.5,1.1,1.1v8.3
				C848.9,805.9,848.5,806.4,847.9,806.4z"/>
		</g>
		<g>
			<g>
				<path class="st3" d="M785.7,787.7c-0.6,0-1.1-0.5-1.1-1.1v-15.3c0-0.6,0.5-1.1,1.1-1.1s1.1,0.5,1.1,1.1v15.3
					C786.7,787.2,786.3,787.7,785.7,787.7z"/>
			</g>
			<g>
				<path class="st3" d="M785.7,768.2c-0.6,0-1.1-0.5-1.1-1.1v-3.8c0-0.6,0.5-1.1,1.1-1.1s1.1,0.5,1.1,1.1v3.8
					C786.7,767.7,786.3,768.2,785.7,768.2z"/>
			</g>
		</g>
		<g>
			<g>
				<path class="st3" d="M785.7,758c-0.6,0-1.1-0.5-1.1-1.1v-15.3c0-0.6,0.5-1.1,1.1-1.1s1.1,0.5,1.1,1.1v15.3
					C786.7,757.5,786.3,758,785.7,758z"/>
			</g>
			<g>
				<path class="st3" d="M785.7,738.5c-0.6,0-1.1-0.5-1.1-1.1v-3.8c0-0.6,0.5-1.1,1.1-1.1s1.1,0.5,1.1,1.1v3.8
					C786.7,738,786.3,738.5,785.7,738.5z"/>
			</g>
		</g>
		<g>
			<g>
				<path class="st3" d="M771.4,795.2h-15.3c-0.6,0-1.1-0.5-1.1-1.1s0.5-1.1,1.1-1.1h15.3c0.6,0,1.1,0.5,1.1,1.1
					S772,795.2,771.4,795.2z"/>
			</g>
			<g>
				<path class="st3" d="M779.5,795.2h-3.8c-0.6,0-1.1-0.5-1.1-1.1s0.5-1.1,1.1-1.1h3.8c0.6,0,1.1,0.5,1.1,1.1
					S780.1,795.2,779.5,795.2z"/>
			</g>
		</g>
		<g>
			<g>
				<path class="st3" d="M739.6,795.2h-15.3c-0.6,0-1.1-0.5-1.1-1.1s0.5-1.1,1.1-1.1h15.3c0.6,0,1.1,0.5,1.1,1.1
					C740.6,794.7,740.2,795.2,739.6,795.2z"/>
			</g>
			<g>
				<path class="st3" d="M747.7,795.2h-3.8c-0.6,0-1.1-0.5-1.1-1.1s0.5-1.1,1.1-1.1h3.8c0.6,0,1.1,0.5,1.1,1.1
					C748.7,794.7,748.2,795.2,747.7,795.2z"/>
			</g>
		</g>
		<g>
			<g>
				<path class="st3" d="M707.7,795.2h-15.3c-0.6,0-1.1-0.5-1.1-1.1s0.5-1.1,1.1-1.1h15.3c0.6,0,1.1,0.5,1.1,1.1
					S708.3,795.2,707.7,795.2z"/>
			</g>
			<g>
				<path class="st3" d="M715.8,795.2H712c-0.6,0-1.1-0.5-1.1-1.1s0.5-1.1,1.1-1.1h3.8c0.6,0,1.1,0.5,1.1,1.1
					C716.9,794.7,716.4,795.2,715.8,795.2z"/>
			</g>
		</g>
		<g>
			<path class="st3" d="M820.3,657.1h-55c-0.6,0-1.1-0.5-1.1-1.1v-8.9c0-0.6,0.5-1.1,1.1-1.1h55c0.6,0,1.1,0.5,1.1,1.1v8.9
				C821.3,656.6,820.9,657.1,820.3,657.1z M766.3,655h52.9v-6.8h-52.9V655z"/>
		</g>
		<g>
			<path class="st1" d="M800.5,721h-15.1c-0.5,0-1-0.4-1.1-1l-5.7-56.7c0-0.3,0.1-0.6,0.3-0.8s0.5-0.3,0.8-0.3H806
				c0.3,0,0.6,0.1,0.8,0.3s0.3,0.5,0.3,0.8l-5.5,56.7C801.5,720.6,801.1,721,800.5,721z M786.4,718.9h13.2l5.3-54.6h-24L786.4,718.9
				z"/>
		</g>
		<g>
			<path class="st3" d="M822.2,644.8c-0.3,0-0.6-0.1-0.8-0.4c-0.4-0.5-0.3-1.1,0.2-1.5c18.6-15,18.7-24.2,12-38.2
				c-3.5-6.7-8.6-8.8-11.9-9.4c2.3,2.3,3.4,6.3,3.3,9.2c-0.2,2.8-2.7,7.3-5.5,7.6c-1.4,0.1-3.2-0.6-4.2-4.6
				c-3.2-11.9-10.4-15.8-16.8-19.3c-4.9-2.6-9.4-5.1-11.4-10.6c-0.7-3.1,0.2-5.9,1.2-7.8c-5.2,3-8.3,6.5-10.9,15.8
				c-2.1,8.1,3.1,17.1,5.6,21.4c0.8,1.4,1.1,2,1.2,2.4c0,0.1,0,0.2,0,0.3c0,0.8-0.8,1.6-2.1,2c-2.1,0.6-5.1,0.2-7.3-3.1
				c-1.7-2.5-2.3-4.9-3-7.5c-0.4-1.7-0.9-3.5-1.8-5.5c-1.7-3.4-4.1-4.3-5.9-4.5c-1-0.1-1.8,0-2.4,0.2c2.9,1,5.2,3.1,6,5.7
				c0.8,2.5,0.1,5.2-1.9,7.3c-0.8,0.9-1.7,1.7-2.5,2.6c-3.1,3.1-6.1,6-8.1,14c-2.2,9.6,10.3,19.8,10.5,19.9c0.5,0.4,0.5,1,0.2,1.5
				c-0.4,0.5-1,0.5-1.5,0.2c-0.6-0.5-13.7-11.2-11.2-22.1c2.1-8.6,5.4-11.8,8.6-15c0.8-0.8,1.6-1.6,2.4-2.5c1.5-1.6,2-3.4,1.4-5.2
				c-0.7-2.2-2.8-3.9-5.5-4.5c-1.4-0.2-1.6-1.1-1.6-1.5c0-1,1-1.9,2.7-2.4c3.2-0.8,8,0.1,10.7,5.5c0.9,2.1,1.4,4,1.9,5.8
				c0.6,2.5,1.2,4.6,2.7,6.8c1.2,1.8,2.6,2.3,3.5,2.4c0.7,0.1,1.4-0.1,1.8-0.3c-0.2-0.4-0.5-0.9-0.8-1.4c-2.6-4.6-8.1-14.1-5.8-23.1
				c2.9-10.6,6.7-14.4,12.8-17.7c2.3-1.3,2.9-1.7,3.6-0.9c0.6,0.7,0.1,1.4-0.4,2.2c-1,1.5-3.2,4.7-2.3,8.3c1.6,4.6,5.7,6.8,10.4,9.3
				c6.8,3.6,14.5,7.8,17.9,20.6c0.5,2,1.2,3.1,2,3c1.4-0.1,3.5-3.4,3.6-5.6c0.2-3.5-1.7-8.2-4.4-8.7c-1.2-0.2-1.4-0.8-1.4-1.3
				c0-0.3,0.1-1,1.2-1.3c2.8-0.7,12.1,0.4,17.3,10.6c7,14.7,7,25.1-12.6,40.8C822.7,644.7,822.4,644.8,822.2,644.8z"/>
		</g>
		<g>
			<path class="st1" d="M783.3,643.3c-0.3,0-0.5-0.1-0.7-0.3c-2.8-2.6-4.5-4.5-3.3-9.3c0.8-4.2,5.3-6.6,7.2-7.5
				c1.6-0.9,2.7-1.3,3.4-0.6s0.2,1.6-0.2,2.2c-0.1,0.2-0.2,0.4-0.3,0.6c0,0.2-0.2,1.3,0.4,2.5c0.3,0.7,0.8,1,1.4,0.9
				c2-0.3,4.7-3.3,5.1-5.7c0.7-3.9-0.6-5.4-3.2-6.7c-0.2-0.1-0.5-0.3-0.7-0.4c-1-0.5-2-1-1.7-2.1s1.6-1,3.7-0.8h0.3
				c2.8,0.2,11.3,0.9,14.6,8.5c3.4,7.7,1.8,12-6.7,18.3c-0.5,0.3-1.1,0.2-1.5-0.2c-0.3-0.5-0.2-1.1,0.2-1.5c7.7-5.7,9-9,6-15.7
				c-2.5-5.6-8.4-6.8-11.7-7.1c2.1,1.4,3.7,3.7,2.9,8.1c-0.5,3.3-3.9,7-6.8,7.4c-1.6,0.2-2.9-0.5-3.6-2c-0.8-1.5-0.7-2.9-0.6-3.7
				c-1.4,0.7-5.3,2.8-5.9,6c-0.9,3.8,0.1,4.9,2.7,7.3c0.4,0.4,0.5,1.1,0.1,1.5C783.9,643.2,783.6,643.3,783.3,643.3z"/>
		</g>
		<g>
			<path class="st3" d="M815,664.3h-44.2c-0.6,0-1.1-0.5-1.1-1.1V656c0-0.6,0.5-1.1,1.1-1.1H815c0.6,0,1.1,0.5,1.1,1.1v7.2
				C816,663.9,815.6,664.3,815,664.3z M771.9,662.2h42v-5.1h-42V662.2z"/>
		</g>
	</g>
</g>
<g>
	<g>
		<g>
			<path class="st3" d="M1304.2,227.3c-0.6,0-1.1-0.4-1.1-1.1v-11.3c-0.2-1.7,0.6-5.3,4.7-6.6c2.3-0.6,12.3-4.7,12.5-4.7
				c0.6-0.2,1.1,0,1.3,0.6c0.2,0.6,0,1.1-0.6,1.3c-0.4,0.2-10.2,4-12.7,4.7c-3.4,1.1-3,4.2-3,4.5V226
				C1305.2,226.8,1304.8,227.3,1304.2,227.3z"/>
		</g>
		<g>
			<path class="st3" d="M1364.7,227.3c-0.6,0-1.1-0.4-1.1-1.1v-11.3c0-0.2,0.2-3.4-3.2-4.5c-2.1-0.8-5.3-1.9-5.3-1.9
				c-0.6-0.2-0.8-0.8-0.6-1.3c0.2-0.6,0.8-0.8,1.3-0.6c0.2,0,3.2,1.1,5.3,1.9c4,1.3,4.7,4.9,4.5,6.6v11
				C1365.7,226.8,1365.3,227.3,1364.7,227.3z"/>
		</g>
		<g>
			<path class="st3" d="M1379.1,227.3c-0.4,0-0.8-0.2-1.1-0.6l-7.2-19.3c0,0-1.1-3.4-4-4c-3.2-0.8-10.8-3.4-11-3.4
				c-0.6-0.2-0.8-0.8-0.6-1.3c0.2-0.4,0.8-0.8,1.3-0.6c0,0,7.9,2.5,11,3.4c3.8,1.1,5.3,5.1,5.3,5.3l7.2,19.3c0.2,0.6,0,1.1-0.6,1.3
				C1379.3,227.3,1379.3,227.3,1379.1,227.3z"/>
		</g>
		<g>
			<path class="st1" d="M1293.1,343.6c-0.2,0-0.6,0-0.8-0.2l-46.3-46.3c-0.4-0.4-0.4-1.1,0-1.5s1.1-0.4,1.5,0l46.3,46.3
				c0.4,0.4,0.4,1.1,0,1.5C1293.8,343.6,1293.3,343.6,1293.1,343.6z"/>
		</g>
		<g>
			<path class="st1" d="M1375.9,343.2c-0.2,0-0.6,0-0.8-0.2c-0.4-0.4-0.4-1.1,0-1.5l45-44.8c0.4-0.4,1.1-0.4,1.5,0s0.4,1.1,0,1.5
				l-45,44.8C1376.6,343.2,1376.1,343.2,1375.9,343.2z"/>
		</g>
		<g>
			<g>
				<path class="st3" d="M1358.3,109.2c-0.2,0-0.6,0-0.6-0.2l-9.8-9.6c-0.4-0.4-0.4-1.1,0-1.5s1.1-0.4,1.5,0l8.9,8.9L1380,85
					c0.4-0.4,1.1-0.4,1.5,0s0.4,1.1,0,1.5L1359,109C1358.9,109.2,1358.5,109.2,1358.3,109.2z"/>
			</g>
			<g>
				<path class="st3" d="M1307.6,132.3c-0.2,0-0.6,0-0.8-0.2l-9.1-9.1c-0.4-0.4-0.4-0.1,0-0.5s1.1-1.4,1.5-1l8.3,8.3l31.9-31.9
					c0.4-0.4,1.1-0.4,1.5,0s0.4,1.1,0,1.5l-32.3,32.7C1308.2,132.3,1307.8,132.3,1307.6,132.3z"/>
			</g>
			<g>
				<path class="st3" d="M1268.9,144c-0.2,0-0.6,0-0.8-0.2l-7.4-7.4c-0.4-0.4-0.4-1.1,0-1.5s1.1-0.4,1.5,0l6.6,6.6l20-20
					c0.4-0.4,1.1-0.4,1.5,0s0.4,1.1,0,1.5C1290.1,123,1269.1,144,1268.9,144z"/>
			</g>
			<g>
				<path class="st3" d="M1221.1,168.2c-0.2,0-0.6,0-0.8-0.2c-0.4-0.4-0.4-1.1,0-1.5l31.4-31.4c0.4-0.4,1.1-0.4,1.5,0s0.4,1.1,0,1.5
					L1222,168C1221.8,168.2,1221.3,168.2,1221.1,168.2z"/>
			</g>
			<g>
				<path class="st1" d="M1256.8,138.7c-3.8,0-7-3.2-7-7s3.2-7,7-7s7,3.2,7,7S1260.6,138.7,1256.8,138.7z M1256.8,126.8
					c-2.8,0-4.9,2.1-4.9,4.9s2.1,4.9,4.9,4.9s4.9-2.1,4.9-4.9S1259.6,126.8,1256.8,126.8z"/>
			</g>
			<g>
				<path class="st1" d="M1294.2,125.3c-3.8,0-7-3.2-7-7s3.2-7,7-7s7,3.2,7,7C1301.2,122.2,1298,125.3,1294.2,125.3z M1294.2,113.4
					c-2.8,0-4.9,2.1-4.9,4.9s2.1,4.9,4.9,4.9s4.9-2.1,4.9-4.9C1299.1,115.6,1296.9,113.4,1294.2,113.4z"/>
			</g>
			<g>
				<path class="st1" d="M1344.5,101.3c-3.8,0-7-3.2-7-7s3.2-7,7-7s7,3.2,7,7C1351.5,98.2,1348.3,101.3,1344.5,101.3z M1344.5,89.4
					c-2.8,0-4.9,2.1-4.9,4.9s2.1,4.9,4.9,4.9s4.9-2.1,4.9-4.9C1349.4,91.6,1347.3,89.4,1344.5,89.4z"/>
			</g>
			<g>
				<path class="st3" d="M1392.9,98.4c-0.2,0-0.6-0.2-0.8-0.2l-24.2-24c-0.2-0.2-0.4-0.8-0.2-1.3c0.2-0.4,0.6-0.6,1.1-0.6l24.2,0.8
					c0.6,0,1.1,0.4,1.1,1.1v23.1c0,0.4-0.2,0.8-0.6,1.1C1393.1,98.4,1393.1,98.4,1392.9,98.4z M1371.5,74.4l20.4,20.4V75.2
					L1371.5,74.4z"/>
			</g>
		</g>
		<g>
			<g>
				<path class="st1" d="M1245.3,89h-34.8c-0.6,0-1.1-0.4-1.1-1.1c0-0.6,0.4-1.1,1.1-1.1h34.8c0.6,0,1.1,0.4,1.1,1.1
					S1246,89,1245.3,89z"/>
			</g>
			<g>
				<path class="st1" d="M1265.7,88.8h-13.8c-0.6,0-1.1-0.4-1.1-1.1s0.4-1.1,1.1-1.1h13.8c0.6,0,1.1,0.4,1.1,1.1
					S1266.4,88.8,1265.7,88.8z"/>
			</g>
			<g>
				<path class="st1" d="M1265.7,99.9h-25.5c-0.6,0-1.1-0.4-1.1-1.1s0.4-1.1,1.1-1.1h25.5c0.6,0,1.1,0.4,1.1,1.1
					S1266.4,99.9,1265.7,99.9z"/>
			</g>
			<g>
				<path class="st1" d="M1234.5,99.9h-10.6c-0.6,0-1.1-0.4-1.1-1.1s0.4-1.1,1.1-1.1h10.6c0.6,0,1.1,0.4,1.1,1.1
					S1235.1,99.9,1234.5,99.9z"/>
			</g>
		</g>
		<g>
			<g>
				<g>
					<path class="st1" d="M1260.8,175.7c-0.2,0-0.4,0-0.6-0.2l-5.1-4.9c-0.4-0.4-0.4-1.1,0-1.5s1.1-0.4,1.5,0l5.1,4.9
						c0.4,0.4,0.4,1.1,0,1.5C1261.5,175.5,1261.1,175.7,1260.8,175.7z"/>
				</g>
				<g>
					<path class="st1" d="M1272.1,186.9c-0.2,0-0.4,0-0.6-0.2l-5.1-4.9c-0.4-0.4-0.4-1.1,0-1.5s1.1-0.4,1.5,0l5.1,4.9
						c0.4,0.4,0.4,1.1,0,1.5C1272.7,186.7,1272.3,186.9,1272.1,186.9z"/>
				</g>
			</g>
			<g>
				<g>
					<path class="st1" d="M1255.7,186.9c-0.2,0-0.6-0.2-0.8-0.4c-0.4-0.4-0.4-1.1,0-1.5l5.1-4.9c0.4-0.4,1.1-0.4,1.5,0
						s0.4,1.1,0,1.5l-5.1,4.9C1256.2,186.9,1256,186.9,1255.7,186.9z"/>
				</g>
				<g>
					<path class="st1" d="M1267,175.7c-0.2,0-0.6-0.2-0.8-0.4c-0.4-0.4-0.4-1.1,0-1.5l5.1-4.9c0.4-0.4,1.1-0.4,1.5,0s0.4,1.1,0,1.5
						l-5.1,4.9C1267.4,175.7,1267.2,175.7,1267,175.7z"/>
				</g>
			</g>
		</g>
		<g>
			<g>
				<g>
					<path class="st1" d="M1449.2,237c-0.2,0-0.6,0-0.8-0.2l-4.9-4.9c-0.4-0.4-0.4-1.1,0-1.5s1.1-0.4,1.5,0l4.9,4.9
						c0.4,0.4,0.4,1.1,0,1.5C1449.8,237,1449.4,237,1449.2,237z"/>
				</g>
				<g>
					<path class="st1" d="M1460.5,248.5c-0.2,0-0.6-0.2-0.8-0.4l-4.9-5.1c-0.4-0.4-0.4-1.1,0-1.5s1.1-0.4,1.5,0l4.9,5.1
						c0.4,0.4,0.4,1.1,0,1.5C1460.9,248.5,1460.7,248.5,1460.5,248.5z"/>
				</g>
			</g>
			<g>
				<g>
					<path class="st1" d="M1444.3,248.5c-0.2,0-0.4,0-0.6-0.2c-0.4-0.4-0.4-1.1,0-1.5l4.9-5.1c0.4-0.4,1.1-0.4,1.5,0s0.4,1.1,0,1.5
						l-4.9,5.1C1444.9,248.3,1444.5,248.5,1444.3,248.5z"/>
				</g>
				<g>
					<path class="st1" d="M1455.6,237c-0.2,0-0.6,0-0.8-0.2c-0.4-0.4-0.4-1.1,0-1.5l4.9-4.9c0.4-0.4,1.1-0.4,1.5,0s0.4,1.1,0,1.5
						l-4.9,4.9C1456.2,237,1455.8,237,1455.6,237z"/>
				</g>
			</g>
		</g>
		<g>
			<g>
				<g>
					<path class="st1" d="M1357.5,357.4c-0.2,0-0.4,0-0.6-0.2l-5.1-4.9c-0.4-0.4-0.4-1.1,0-1.5s1.1-0.4,1.5,0l5.1,4.9
						c0.4,0.4,0.4,1.1,0,1.5C1358.1,357.2,1357.7,357.4,1357.5,357.4z"/>
				</g>
				<g>
					<path class="st1" d="M1368.7,368.7c-0.2,0-0.4,0-0.6-0.2l-5.1-4.9c-0.4-0.4-0.4-1.1,0-1.5s1.1-0.4,1.5,0l5.1,4.9
						c0.4,0.4,0.4,1.1,0,1.5C1369.4,368.5,1368.9,368.7,1368.7,368.7z"/>
				</g>
			</g>
			<g>
				<g>
					<path class="st1" d="M1352.4,368.7c-0.2,0-0.6-0.2-0.8-0.4c-0.4-0.4-0.4-1.1,0-1.5l5.1-4.9c0.4-0.4,1.1-0.4,1.5,0
						s0.4,1.1,0,1.5l-5.1,4.9C1352.8,368.7,1352.6,368.7,1352.4,368.7z"/>
				</g>
				<g>
					<path class="st1" d="M1363.6,357.4c-0.2,0-0.6-0.2-0.8-0.4c-0.4-0.4-0.4-1.1,0-1.5l5.1-4.9c0.4-0.4,1.1-0.4,1.5,0
						s0.4,1.1,0,1.5l-5.1,4.9C1364,357.4,1363.8,357.4,1363.6,357.4z"/>
				</g>
			</g>
		</g>
		<g>
			<g>
				<g>
					<path class="st1" d="M1221.6,305.8c-0.2,0-0.6,0-0.8-0.2l-4.9-4.9c-0.4-0.4-0.4-1.1,0-1.5s1.1-0.4,1.5,0l4.9,4.9
						c0.4,0.4,0.4,1.1,0,1.5C1222.2,305.8,1221.8,305.8,1221.6,305.8z"/>
				</g>
				<g>
					<path class="st1" d="M1232.8,317.1c-0.2,0-0.6,0-0.8-0.2l-4.9-4.9c-0.4-0.4-0.4-1.1,0-1.5s1.1-0.4,1.5,0l4.9,4.9
						c0.4,0.4,0.4,1.1,0,1.5C1233.4,317.1,1233,317.1,1232.8,317.1z"/>
				</g>
			</g>
			<g>
				<g>
					<path class="st1" d="M1216.7,317.1c-0.2,0-0.6,0-0.8-0.2c-0.4-0.4-0.4-1.1,0-1.5l4.9-4.9c0.4-0.4,1.1-0.4,1.5,0s0.4,1.1,0,1.5
						l-4.9,4.9C1217.3,317.1,1216.9,317.1,1216.7,317.1z"/>
				</g>
				<g>
					<path class="st1" d="M1227.9,305.8c-0.2,0-0.6,0-0.8-0.2c-0.4-0.4-0.4-1.1,0-1.5l4.9-4.9c0.4-0.4,1.1-0.4,1.5,0s0.4,1.1,0,1.5
						l-4.9,4.9C1228.6,305.8,1228.1,305.8,1227.9,305.8z"/>
				</g>
			</g>
		</g>
		<g>
			<g>
				<path class="st3" d="M1227.7,236.4c-0.6,0-1.1-0.4-1.1-1.1V205c0-0.6,0.4-1.1,1.1-1.1c0.6,0,1.1,0.4,1.1,1.1v30.4
					C1228.8,236,1228.4,236.4,1227.7,236.4z"/>
			</g>
			<g>
				<path class="st3" d="M1228.1,258.7c-0.6,0-1.1-0.4-1.1-1.1v-13.4c0-0.6,0.4-1.1,1.1-1.1c0.6,0,1.1,0.4,1.1,1.1v13.4
					C1229.2,258.3,1228.8,258.7,1228.1,258.7z"/>
			</g>
		</g>
		<g>
			<g>
				<path class="st3" d="M1448.6,321.3c-0.6,0-1.1-0.4-1.1-1.1v-30.4c0-0.6,0.4-1.1,1.1-1.1s1.1,0.4,1.1,1.1v30.4
					C1449.6,320.9,1449.2,321.3,1448.6,321.3z"/>
			</g>
			<g>
				<path class="st3" d="M1449,343.6c-0.6,0-1.1-0.4-1.1-1.1v-13.4c0-0.6,0.4-1.1,1.1-1.1c0.6,0,1.1,0.4,1.1,1.1v13.4
					C1450,343.2,1449.6,343.6,1449,343.6z"/>
			</g>
		</g>
		<g>
			<g>
				<path class="st1" d="M1444.1,358.9h-35c-0.6,0-1.1-0.4-1.1-1.1s0.4-1.1,1.1-1.1h35c0.6,0,1.1,0.4,1.1,1.1
					S1444.7,358.9,1444.1,358.9z"/>
			</g>
			<g>
				<path class="st1" d="M1464.5,358.7h-14c-0.6,0-1.1-0.4-1.1-1.1s0.4-1.1,1.1-1.1h14c0.6,0,1.1,0.4,1.1,1.1
					S1465.1,358.7,1464.5,358.7z"/>
			</g>
			<g>
				<path class="st1" d="M1464.5,369.8h-25.7c-0.6,0-1.1-0.4-1.1-1.1s0.4-1.1,1.1-1.1h25.7c0.6,0,1.1,0.4,1.1,1.1
					S1465.1,369.8,1464.5,369.8z"/>
			</g>
			<g>
				<path class="st1" d="M1433.3,369.8h-10.8c-0.6,0-1.1-0.4-1.1-1.1s0.4-1.1,1.1-1.1h10.8c0.6,0,1.1,0.4,1.1,1.1
					S1433.9,369.8,1433.3,369.8z"/>
			</g>
		</g>
		<g>
			<path class="st3" d="M1279.7,369.3c-4,0-7.2-3.2-7.2-7.2s3.2-7.2,7.2-7.2s7.2,3.2,7.2,7.2C1287,366.1,1283.8,369.3,1279.7,369.3z
				 M1279.7,357c-2.8,0-5.1,2.3-5.1,5.1c0,2.8,2.3,5.1,5.1,5.1s5.1-2.3,5.1-5.1C1284.8,359.3,1282.5,357,1279.7,357z"/>
		</g>
		<g>
			<path class="st3" d="M1407.6,203.9c-4,0-7.2-3.2-7.2-7.2s3.2-7.2,7.2-7.2s7.2,3.2,7.2,7.2S1411.6,203.9,1407.6,203.9z
				 M1407.6,191.6c-2.8,0-5.1,2.3-5.1,5.1s2.3,5.1,5.1,5.1s5.1-2.3,5.1-5.1S1410.3,191.6,1407.6,191.6z"/>
		</g>
		<g>
			<path class="st3" d="M1427.5,170.6c-19.3,0-35-15.7-35-35s15.7-35,35-35s35,15.7,35,35S1446.9,170.6,1427.5,170.6z M1427.5,102.6
				c-18,0-32.9,14.9-32.9,32.9s14.9,32.9,32.9,32.9s32.9-14.9,32.9-32.9S1445.6,102.6,1427.5,102.6z"/>
		</g>
		<g>
			<path class="st3" d="M1431.4,134.9c-0.4,0-0.8-0.2-1.1-0.6c-0.2-0.6,0-1.1,0.4-1.5l17.8-8.3c0.4-0.2,1.1,0,1.5,0.4
				c0.2,0.6,0,1.1-0.4,1.5l-17.8,8.3C1431.6,134.9,1431.6,134.9,1431.4,134.9z"/>
		</g>
		<g>
			<path class="st3" d="M1434.3,150.6c-0.4,0-0.8-0.2-0.8-0.6l-5.1-10.2c-0.2-0.4,0-1.1,0.4-1.5c0.4-0.2,1.1,0,1.5,0.4l5.1,10.2
				c0.2,0.4,0,1.1-0.4,1.5C1434.8,150.6,1434.5,150.6,1434.3,150.6z"/>
		</g>
		<g>
			<g>
				<path class="st1" d="M1427.3,112.6c-0.6,0-1.1-0.4-1.1-1.1v-5.3c0-0.6,0.4-1.1,1.1-1.1s1.1,0.4,1.1,1.1v5.3
					C1428.4,112.2,1428,112.6,1427.3,112.6z"/>
			</g>
			<g>
				<path class="st1" d="M1427.3,165.5c-0.6,0-1.1-0.4-1.1-1.1v-5.3c0-0.6,0.4-1.1,1.1-1.1s1.1,0.4,1.1,1.1v5.3
					C1428.4,165,1428,165.5,1427.3,165.5z"/>
			</g>
		</g>
		<g>
			<g>
				<path class="st1" d="M1403.5,136.4h-5.3c-0.6,0-1.1-0.4-1.1-1.1c0-0.6,0.4-1.1,1.1-1.1h5.3c0.6,0,1.1,0.4,1.1,1.1
					S1404.2,136.4,1403.5,136.4z"/>
			</g>
			<g>
				<path class="st1" d="M1456.4,136.4h-5.3c-0.6,0-1.1-0.4-1.1-1.1c0-0.6,0.4-1.1,1.1-1.1h5.3c0.6,0,1.1,0.4,1.1,1.1
					S1457.1,136.4,1456.4,136.4z"/>
			</g>
		</g>
		<g>
			<path class="st3" d="M1415.6,343.6h-163.7c-3.4,0-6.2-2.8-6.2-6.2V231.3c0-3.4,2.8-6.2,6.2-6.2h163.7c3.4,0,6.2,2.8,6.2,6.2
				v106.2c0.2,1.5-0.4,3-1.5,4.2C1419,343,1417.3,343.6,1415.6,343.6z M1251.9,227.3c-2.1,0-4,1.9-4,4v106.2c0,2.1,1.9,4,4,4h163.7
				c1.3,0,2.3-0.4,3.2-1.3c0.6-0.6,1.1-1.7,0.8-2.5V231.5c0-2.1-1.9-4-4-4h-163.7V227.3z"/>
		</g>
		<g>
			<path class="st3" d="M1347.1,263.8h-25.9c-0.6,0-1.1-0.4-1.1-1.1s0.4-1.1,1.1-1.1h25.9c0.6,0,1.1,0.4,1.1,1.1
				S1347.7,263.8,1347.1,263.8z"/>
		</g>
		<g>
			<path class="st3" d="M1339.6,285.2c-0.6,0-1.1-0.4-1.1-1.1s0.4-1.1,1.1-1.1c35.2-1.3,55.2-15.3,65.8-26.8
				c11.5-12.5,14.7-24.8,14.7-24.8c0.2-0.6,0.6-0.8,1.3-0.8c0.6,0.2,0.8,0.6,0.8,1.3C1421.8,232.6,1408.6,282.7,1339.6,285.2
				L1339.6,285.2z"/>
		</g>
		<g>
			<path class="st3" d="M1328.4,285.2L1328.4,285.2c-68.4-2.5-82.4-52.7-82.6-53.3s0.2-1.1,0.8-1.3c0.6-0.2,1.1,0.2,1.3,0.8
				c0.2,0.4,13.8,49.3,80.5,51.6c0.6,0,1.1,0.4,1.1,1.1S1329,285.2,1328.4,285.2z"/>
		</g>
		<g>
			<path class="st3" d="M1334.1,333c-3.4,0-6.4-2.8-6.6-6.2v-25.5c0-0.6,0.4-1.1,1.1-1.1c0.6,0,1.1,0.4,1.1,1.1v25.5
				c0.2,2.1,2.1,4,4.5,4s4.2-1.9,4.5-4v-25.5c0-0.6,0.4-1.1,1.1-1.1c0.6,0,1.1,0.4,1.1,1.1v25.5C1340.5,330.3,1337.5,333,1334.1,333
				z"/>
		</g>
		<g>
			<path class="st3" d="M1339.6,292.5c-0.6,0-1.1-0.4-1.1-1.1v-27.6h-8.9v27.6c0,0.6-0.4,1.1-1.1,1.1c-0.6,0-1.1-0.4-1.1-1.1v-28.7
				c0-0.6,0.4-1.1,1.1-1.1h11c0.6,0,1.1,0.4,1.1,1.1v28.7C1340.7,292,1340.3,292.5,1339.6,292.5z"/>
		</g>
		<g>
			<path class="st1" d="M1341.3,302.4h-14.7c-1.9,0-3.4-1.5-3.4-3.4v-5.5c0-1.9,1.5-3.4,3.4-3.4h14.7c1.9,0,3.4,1.5,3.4,3.4v5.5
				C1344.3,301.2,1343,302.4,1341.3,302.4z M1326.7,292.2c-0.6,0-1.3,0.6-1.3,1.3v5.5c0,0.6,0.6,1.3,1.3,1.3h14.7
				c0.8,0,1.3-0.8,1.3-1.5v-5.3c0-0.6-0.6-1.3-1.3-1.3H1326.7L1326.7,292.2z"/>
		</g>
		<g>
			<path class="st1" d="M1342.4,215.4c-1.5,0-2.8-0.4-3.8-1.3c-1.9-1.7-1.9-4.7-1.9-5.7l-0.2-1.3c0-0.6,0.4-1.1,1.1-1.1
				s1.1,0.4,1.1,1.1l0.2,1.3c0,0.8,0,3,1.1,4c0.6,0.6,1.5,0.8,2.5,0.8c0.8,0,1.5-0.4,1.9-0.8c0.8-1.1,0.8-2.8,0.8-3s0.2-0.8,0-5.1
				c0-0.6,0.4-1.1,1.1-1.1s1.1,0.4,1.1,1.1c0.2,4.5,0,4.7,0,5.1l0,0c0,0,0.2,2.5-1.3,4.2c-0.8,1.1-2.1,1.5-3.6,1.5
				C1342.6,215.4,1342.4,215.4,1342.4,215.4z"/>
		</g>
		<g>
			<path class="st1" d="M1333.5,217.9c-1.5,0-2.8-0.4-3.8-1.3c-1.9-1.7-1.9-4.7-1.9-5.7l-0.2-5.1c0-0.6,0.4-1.1,1.1-1.1
				c0.4,0,1.1,0.4,1.1,1.1l0.2,5.1c0,0.8,0,3,1.1,4c0.6,0.6,1.5,0.8,2.5,0.8c0.8,0,1.5-0.4,1.9-0.8c0.8-1.1,0.8-2.8,0.8-3
				s0.2-0.8,0-5.1c0-0.6,0.4-1.1,1.1-1.1c0.6,0,1.1,0.4,1.1,1.1c0.2,4.5,0,4.7,0,5.1l0,0c0,0,0.2,2.5-1.3,4.2
				c-0.8,1.1-2.1,1.5-3.6,1.5C1333.7,217.9,1333.5,217.9,1333.5,217.9z"/>
		</g>
		<g>
			<path class="st1" d="M1351.3,211.8c-4.5,0-5.7-3.6-5.7-5.5V204c0-0.6,0.4-1.1,1.1-1.1c0.6,0,1.1,0.4,1.1,1.1v2.3
				c0,0.6,0.2,3.4,3.6,3.4c1.1,0,1.9-0.2,2.5-0.8c0.8-0.8,0.8-2.5,0.8-3.6v-0.4c0-0.4,0-2.1,0.2-4.5c0.2-6.4,0.4-8.3,0.2-11.5
				c-0.2-3.8-3.4-10-4.7-11.5c-1.7-1.9-2.3-13.4-2.3-13.6c-0.2-0.6,0.2-1.1,0.8-1.3c0.6-0.2,1.1,0.2,1.3,0.8c0,0,0.6,11.3,1.9,12.7
				c1.5,1.9,4.9,8.3,5.1,12.7c0.2,3.2-0.2,5.3-0.2,11.7c0,2.3-0.2,4-0.2,4.5v0.4c0,1.3,0,3.6-1.5,5.1
				C1354.5,211.3,1353,211.8,1351.3,211.8z"/>
		</g>
		<g>
			<path class="st1" d="M1312.9,199.9c-0.6,0-1.1-0.4-1.1-1.1s0-11.3,0.4-15.5c0.4-3.6,3.8-5.9,6.2-7.4c0.6-0.4,1.1-0.6,1.3-0.8
				c0.6-0.6,0.8-9.8,0.8-11.3c0-0.6,0.4-1.1,1.1-1.1s1.1,0.4,1.1,1.1c0,0.8,0,11.3-1.5,13c-0.4,0.4-1.1,0.6-1.7,1.1
				c-1.9,1.3-4.9,3.2-5.3,5.7c-0.2,4-0.2,15.1-0.2,15.3C1313.9,199.4,1313.5,199.9,1312.9,199.9z"/>
		</g>
		<g>
			<path class="st3" d="M1427.5,140.8c-3,0-5.3-2.3-5.3-5.3s2.3-5.3,5.3-5.3s5.3,2.3,5.3,5.3S1430.5,140.8,1427.5,140.8z
				 M1427.5,132.3c-1.7,0-3.2,1.5-3.2,3.2s1.5,3.2,3.2,3.2s3.2-1.5,3.2-3.2S1429.2,132.3,1427.5,132.3z"/>
		</g>
		<g>
			<path class="st3" d="M1347.9,164.4C1347.7,164.4,1347.7,164.4,1347.9,164.4H1322c-0.8,0-1.7-0.4-2.3-1.1
				c-1.5-1.7-1.3-4.5-1.3-4.9l0.6-11.3c0-0.6,0.4-1.1,1.1-1.1s1.1,0.6,1.1,1.1l-0.6,11.3c0,0.6,0,2.5,0.6,3.2
				c0.2,0.2,0.4,0.4,0.8,0.4h25.7c0,0,1.1,0,1.9-0.6c0.4-0.4,0.6-1.1,0.6-2.1c0-2.5-0.8-16.4-0.8-16.6c0-0.6,0.4-1.1,1.1-1.1
				c0.6,0,1.1,0.4,1.1,1.1c0,0.6,0.8,14,0.8,16.6c0,1.5-0.4,2.8-1.5,3.6C1349.8,164.4,1348.3,164.4,1347.9,164.4z"/>
		</g>
		<g>
			<path class="st1" d="M1344.5,158h-8.1c-0.6,0-1.1-0.4-1.1-1.1s0.4-1.1,1.1-1.1h8.1c0.6,0,1.1,0.4,1.1,1.1S1345.1,158,1344.5,158z
				"/>
		</g>
		<g>
			<path class="st3" d="M1289.7,227.3c-0.2,0-0.2,0-0.4,0c-0.6-0.2-0.8-0.8-0.6-1.3l7.2-19.3c0-0.2,1.5-4.2,5.3-5.3
				c3.2-0.8,18.5-5.3,18.7-5.3c0.6-0.2,1.1,0.2,1.3,0.6c0.2,0.4-0.2,1.1-0.6,1.3c-0.2,0-15.5,4.5-18.7,5.3c-2.8,0.6-3.8,4-4,4
				l-7.2,19.3C1290.6,227.1,1290.1,227.3,1289.7,227.3z"/>
		</g>
		<g>
			<path class="st1" d="M1324.5,215.2c-1.5,0-2.8-0.4-3.6-1.3c-1.5-1.5-1.5-4-1.5-5.3v-0.4l-0.2-18.5c0-0.6,0.4-1.1,1.1-1.1l0,0
				c0.6,0,1.1,0.4,1.1,1.1l0.2,18.5v0.4c0,1.1,0,2.8,0.8,3.6c0.4,0.4,1.3,0.6,2.3,0.6c0.8,0,1.5-0.4,1.9-0.8c0.8-1.1,0.8-2.8,0.8-3
				s0.2,0.8,0-3.4c0-0.6,0.4-1.1,1.1-1.1c0.6,0,1.1,0.4,1.1,1.1c0.2,4.5,0,3,0,3.4l0,0c0,0,0.2,2.5-1.3,4.2
				c-0.8,1.1-2.1,1.5-3.6,1.5C1324.8,215.2,1324.5,215.2,1324.5,215.2z"/>
		</g>
	</g>
</g>
<g>
	<g id="Layer_3">
		<g>
			<g>
				<path class="st3" d="M1308.5,774.6c-43.7-0.6-75.2-22.2-77-23.5c-0.7-0.4-3.3-2.1-1.8-7.4l0.1-0.2c6.7-22.9,20-28.9,29.9-29.9
					c16.2-1.7,24.3,1.2,24.7,1.3c0.5,0.2,0.8,0.8,0.6,1.4c-0.2,0.5-0.8,0.8-1.4,0.6c-0.1,0-8.1-2.9-23.7-1.2
					c-9.3,0.9-21.8,6.6-28.1,28.3l-0.1,0.2c-1.2,4,0.6,4.8,0.7,4.9c0.1,0,0.2,0.1,0.2,0.1c0.3,0.2,31.7,22.5,75.8,23.2
					c44.1-0.6,76.1-22.9,76.5-23.2c0.1,0,0.2-0.1,0.2-0.1s1.8-0.9,0.6-4.9c-6.3-21.8-18.8-27.5-28.2-28.5
					c-15.6-1.6-23.6,1.2-23.7,1.2c-0.6,0.2-1.2-0.1-1.4-0.6s0.1-1.2,0.6-1.4c0.3-0.1,8.5-3,24.7-1.3c10,1.1,23.3,7.2,30,29.9
					c1.6,5.5-1,7.2-1.7,7.5C1384.3,752.3,1352.3,773.9,1308.5,774.6z"/>
			</g>
			<g>
				<g>
					<path class="st1" d="M1394.7,792.8h-28c-0.6,0-1.1-0.5-1.1-1.1s0.5-1.1,1.1-1.1h28c0.6,0,1.1,0.5,1.1,1.1
						S1395.3,792.8,1394.7,792.8z"/>
				</g>
				<g>
					<path class="st1" d="M1411.7,793h-10.2c-0.6,0-1.1-0.5-1.1-1.1s0.5-1.1,1.1-1.1h10.2c0.6,0,1.1,0.5,1.1,1.1
						S1412.3,793,1411.7,793z"/>
				</g>
				<g>
					<path class="st1" d="M1411.9,784.1h-20.8c-0.6,0-1.1-0.5-1.1-1.1s0.5-1.1,1.1-1.1h20.8c0.6,0,1.1,0.5,1.1,1.1
						S1412.5,784.1,1411.9,784.1z"/>
				</g>
				<g>
					<path class="st1" d="M1385.2,784.1h-7.4c-0.6,0-1.1-0.5-1.1-1.1s0.5-1.1,1.1-1.1h7.4c0.6,0,1.1,0.5,1.1,1.1
						S1385.8,784.1,1385.2,784.1z"/>
				</g>
			</g>
			<g>
				<g>
					<g>
						<path class="st3" d="M1410,569.9c-0.3,0-0.5-0.1-0.8-0.3l-4.9-4.9c-0.4-0.4-0.4-1.1,0-1.5s1.1-0.4,1.5,0l4.9,4.9
							c0.4,0.4,0.4,1.1,0,1.5C1410.6,569.7,1410.3,569.9,1410,569.9z"/>
					</g>
					<g>
						<path class="st3" d="M1421.3,581.1c-0.3,0-0.5-0.1-0.8-0.3l-4.9-4.9c-0.4-0.4-0.4-1.1,0-1.5s1.1-0.4,1.5,0l4.9,4.9
							c0.4,0.4,0.4,1.1,0,1.5C1421.8,581,1421.5,581.1,1421.3,581.1z"/>
					</g>
				</g>
				<g>
					<g>
						<path class="st3" d="M1405.1,581.1c-0.3,0-0.5-0.1-0.8-0.3c-0.4-0.4-0.4-1.1,0-1.5l4.9-4.9c0.4-0.4,1.1-0.4,1.5,0
							s0.4,1.1,0,1.5l-4.9,4.9C1405.7,581,1405.4,581.1,1405.1,581.1z"/>
					</g>
					<g>
						<path class="st3" d="M1416.4,569.9c-0.3,0-0.5-0.1-0.8-0.3c-0.4-0.4-0.4-1.1,0-1.5l4.9-4.9c0.4-0.4,1.1-0.4,1.5,0
							s0.4,1.1,0,1.5l-4.9,4.9C1416.9,569.7,1416.7,569.9,1416.4,569.9z"/>
					</g>
				</g>
			</g>
			<g>
				<g>
					<g>
						<path class="st1" d="M1238.9,783.9c-0.3,0-0.5-0.1-0.8-0.3l-4.9-4.9c-0.4-0.4-0.4-1.1,0-1.5s1.1-0.4,1.5,0l4.9,4.9
							c0.4,0.4,0.4,1.1,0,1.5C1239.4,783.8,1239.1,783.9,1238.9,783.9z"/>
					</g>
					<g>
						<path class="st1" d="M1250.1,795.2c-0.3,0-0.5-0.1-0.8-0.3l-4.9-4.9c-0.4-0.4-0.4-1.1,0-1.5s1.1-0.4,1.5,0l4.9,4.9
							c0.4,0.4,0.4,1.1,0,1.5C1250.7,795.1,1250.4,795.2,1250.1,795.2z"/>
					</g>
				</g>
				<g>
					<g>
						<path class="st1" d="M1234,795.2c-0.3,0-0.5-0.1-0.8-0.3c-0.4-0.4-0.4-1.1,0-1.5l4.9-4.9c0.4-0.4,1.1-0.4,1.5,0s0.4,1.1,0,1.5
							l-4.9,4.9C1234.5,795.1,1234.3,795.2,1234,795.2z"/>
					</g>
					<g>
						<path class="st1" d="M1245.2,783.9c-0.3,0-0.5-0.1-0.8-0.3c-0.4-0.4-0.4-1.1,0-1.5l4.9-4.9c0.4-0.4,1.1-0.4,1.5,0
							s0.4,1.1,0,1.5l-4.9,4.9C1245.8,783.8,1245.5,783.9,1245.2,783.9z"/>
					</g>
				</g>
			</g>
			<g>
				<g>
					<path class="st3" d="M1465.2,755.9c-0.6,0-1.1-0.5-1.1-1.1v-23.1c0-0.6,0.5-1.1,1.1-1.1s1.1,0.5,1.1,1.1v23.1
						C1466.3,755.4,1465.8,755.9,1465.2,755.9z"/>
				</g>
				<g>
					<path class="st3" d="M1465.2,773.1c-0.6,0-1.1-0.5-1.1-1.1v-10.4c0-0.6,0.5-1.1,1.1-1.1s1.1,0.5,1.1,1.1V772
						C1466.3,772.6,1465.8,773.1,1465.2,773.1z"/>
				</g>
			</g>
			<g>
				<g>
					<path class="st3" d="M1233.3,621.5c-0.6,0-1.1-0.5-1.1-1.1v-23.1c0-0.6,0.5-1.1,1.1-1.1s1.1,0.5,1.1,1.1v23.1
						C1234.4,621,1233.9,621.5,1233.3,621.5z"/>
				</g>
				<g>
					<path class="st3" d="M1233.6,638.4c-0.6,0-1.1-0.5-1.1-1.1V627c0-0.6,0.5-1.1,1.1-1.1s1.1,0.5,1.1,1.1v10.4
						C1234.6,638,1234.1,638.4,1233.6,638.4z"/>
				</g>
			</g>
			<g>
				<g>
					<path class="st1" d="M1246.1,575.8h-20.2c-0.6,0-1.1-0.5-1.1-1.1s0.5-1.1,1.1-1.1h20.2c0.6,0,1.1,0.5,1.1,1.1
						S1246.7,575.8,1246.1,575.8z"/>
				</g>
				<g>
					<path class="st1" d="M1259.9,576h-8.7c-0.6,0-1.1-0.5-1.1-1.1s0.5-1.1,1.1-1.1h8.7c0.6,0,1.1,0.5,1.1,1.1
						S1260.5,576,1259.9,576z"/>
				</g>
				<g>
					<path class="st1" d="M1270.9,566.5h-29.1c-0.6,0-1.1-0.5-1.1-1.1s0.5-1.1,1.1-1.1h29.1c0.6,0,1.1,0.5,1.1,1.1
						S1271.5,566.5,1270.9,566.5z"/>
				</g>
				<g>
					<path class="st1" d="M1237.2,566.5h-11.3c-0.6,0-1.1-0.5-1.1-1.1s0.5-1.1,1.1-1.1h11.3c0.6,0,1.1,0.5,1.1,1.1
						S1237.8,566.5,1237.2,566.5z"/>
				</g>
			</g>
			<g>
				<path class="st3" d="M1211.3,746.1c-4,0-7.2-3.2-7.2-7.2s3.2-7.2,7.2-7.2s7.2,3.2,7.2,7.2
					C1218.5,742.9,1215.2,746.1,1211.3,746.1z M1211.3,733.8c-2.8,0-5.1,2.3-5.1,5.1s2.3,5.1,5.1,5.1c2.8,0,5.1-2.3,5.1-5.1
					S1214.1,733.8,1211.3,733.8z"/>
			</g>
			<g>
				<path class="st1" d="M1463.7,681.3c-4,0-7.2-3.2-7.2-7.2s3.2-7.2,7.2-7.2s7.2,3.2,7.2,7.2C1471,678.1,1467.7,681.3,1463.7,681.3
					z M1463.7,669c-2.8,0-5.1,2.3-5.1,5.1s2.3,5.1,5.1,5.1c2.8,0,5.1-2.3,5.1-5.1C1468.8,671.3,1466.6,669,1463.7,669z"/>
			</g>
			<g>
				<path class="st3" d="M1431.5,750.6c-0.5,0-1-0.4-1.1-1c-0.1-0.7-1.4-16.4,11.3-29.5c3.6-3.6,5.4-7.6,5.4-12
					c0-8.9-7.2-16.1-16.1-16.1s-16.1,7.2-16.1,16.1c0,0.6-0.5,1.1-1.1,1.1s-1.1-0.5-1.1-1.1c0-10.1,8.2-18.3,18.3-18.3
					c10.1,0,18.3,8.2,18.3,18.3c0,4.9-2,9.5-6,13.5c-12,12.4-10.8,27.7-10.7,27.8c0.1,0.6-0.4,1.1-1,1.2
					C1431.5,750.6,1431.5,750.6,1431.5,750.6z"/>
			</g>
			<g>
				<path class="st3" d="M1431.7,772.6c-4,0-7.2-3.2-7.2-7.2s3.2-7.2,7.2-7.2s7.2,3.2,7.2,7.2
					C1438.9,769.4,1435.7,772.6,1431.7,772.6z M1431.7,760.3c-2.8,0-5.1,2.3-5.1,5.1s2.3,5.1,5.1,5.1c2.8,0,5.1-2.3,5.1-5.1
					C1436.8,762.6,1434.5,760.3,1431.7,760.3z"/>
			</g>
			<g>
				<path class="st3" d="M1382.2,662.2c-0.2,0-0.3,0-0.5-0.1c-0.4-0.2-0.6-0.5-0.6-1V653h-5.3c-4.1,0-7.4-3.3-7.4-7.4v-38
					c0-4.1,3.3-7.4,7.4-7.4h73.3c4.1,0,7.4,3.3,7.4,7.4v38c0,4.2-3.2,7.4-7.2,7.4h-54.8l-11.6,8.9
					C1382.7,662.1,1382.4,662.2,1382.2,662.2z M1375.8,602.3c-2.9,0-5.3,2.4-5.3,5.3v38c0,2.9,2.4,5.3,5.3,5.3h6.4
					c0.6,0,1.1,0.5,1.1,1.1v7l10.2-7.8c0.2-0.1,0.4-0.2,0.6-0.2h55.2c2.9,0,5.1-2.3,5.1-5.3v-38c0-2.9-2.4-5.3-5.3-5.3L1375.8,602.3
					L1375.8,602.3z"/>
			</g>
			<g>
				<path class="st1" d="M1439.1,620.8h-52.7c-0.6,0-1.1-0.5-1.1-1.1s0.5-1.1,1.1-1.1h52.7c0.6,0,1.1,0.5,1.1,1.1
					S1439.7,620.8,1439.1,620.8z"/>
			</g>
			<g>
				<path class="st1" d="M1428.3,634.4h-31.9c-0.6,0-1.1-0.5-1.1-1.1s0.5-1.1,1.1-1.1h31.9c0.6,0,1.1,0.5,1.1,1.1
					S1428.9,634.4,1428.3,634.4z"/>
			</g>
			<g>
				<path class="st1" d="M1221.4,710.2c-0.2,0-0.4,0-0.6-0.1c-1.4-0.6-0.8-2.4,0-4.5c0.2-0.6,0.5-1.6,0.6-2.1
					c-7.8-4.1-12.7-12.2-12.7-21.1c0-13.2,10.8-24,24-24c13.1,0.2,23.8,11,23.8,24c0,13.2-10.8,24-24,24c-1.5,0-3-0.2-4.3-0.4
					c-0.5,0.2-2,1.3-2.8,1.9C1223.3,709.5,1222.2,710.2,1221.4,710.2z M1232.7,660.5c-12,0-21.9,9.8-21.9,21.9
					c0,8.2,4.6,15.7,12,19.4c1.2,0.9,0.7,2.4,0,4.4c-0.1,0.4-0.3,0.8-0.4,1.2c0.6-0.4,1.2-0.9,1.8-1.3c2.5-1.9,3.5-2.5,4.4-2.4
					c1.2,0.2,2.6,0.4,4,0.4c12.1,0,21.9-9.8,21.9-21.9C1254.4,670.5,1244.6,660.7,1232.7,660.5z M1228.1,706L1228.1,706L1228.1,706z
					"/>
			</g>
			<g>
				<path class="st3" d="M1248,681.1h-28.9c-0.6,0-1.1-0.5-1.1-1.1s0.5-1.1,1.1-1.1h28.9c0.6,0,1.1,0.5,1.1,1.1
					S1248.6,681.1,1248,681.1z"/>
			</g>
			<g>
				<path class="st3" d="M1242.7,690.9h-18c-0.6,0-1.1-0.5-1.1-1.1s0.5-1.1,1.1-1.1h18c0.6,0,1.1,0.5,1.1,1.1
					S1243.3,690.9,1242.7,690.9z"/>
			</g>
			<g>
				<path class="st1" d="M1309.5,697.3c-28.2,0-35.2-23.2-37.5-30.8c-0.2-0.7-0.4-1.4-0.5-1.7c-0.1,0-0.4-0.1-0.6-0.1
					c-2.6-0.5-8.8-1.8-8.4-15.4c0.4-14.7,7-16,7.2-16.1c0.6-0.1,1.1,0.3,1.2,0.9c0.1,0.6-0.3,1.1-0.9,1.2c0,0-5.1,1.3-5.5,14.1
					c-0.3,11.8,4.3,12.7,6.7,13.3c0.6,0.1,1,0.2,1.4,0.4c0.6,0.5,0.8,1.1,1.3,2.8c2.2,7.3,9,29.6,36.2,29.3
					c22.6-0.1,28.4-14.5,32.2-23.9c1.6-4,2.8-6.8,4.9-7.5c4.9-1.5,7.5-2.9,7.7-15.1c0.2-12.6-5.7-14.2-5.8-14.2
					c-0.6-0.1-0.9-0.7-0.8-1.3s0.7-0.9,1.3-0.8c0.3,0.1,7.6,1.8,7.4,16.3c-0.2,12.4-2.9,15.2-9.2,17.1c-1.1,0.3-2.3,3.2-3.5,6.2
					c-3.8,9.4-10.2,25.1-34.2,25.3C1310,697.3,1309.8,697.3,1309.5,697.3z"/>
			</g>
			<g>
				<path class="st1" d="M1307,741.9c-7,0-19.4-11.7-22.8-19.9c-1.7-4.1-0.7-6.3,0.4-7.4c4.2-4.4,2-19.9,0.8-25.6
					c-0.1-0.6,0.2-1.1,0.8-1.3c0.6-0.1,1.1,0.2,1.3,0.8c0.2,0.9,4.5,21.4-1.3,27.5c-1.2,1.2-0.6,3.4,0.1,5.1
					c3.3,8,15.2,18.6,20.8,18.6c8.6,0,17.6-7.7,22.2-14.8c2.6-4,3.8-7.8,3-9.6c-2.9-6.8-3.3-14.6-1.1-26.3c0.1-0.6,0.7-1,1.2-0.9
					c0.6,0.1,1,0.7,0.9,1.2c-2,11.3-1.8,18.8,1,25.1c1.1,2.5,0,6.8-3.1,11.6C1325.9,733.9,1316.5,741.9,1307,741.9z"/>
			</g>
			<g>
				<path class="st3" d="M1269.7,635.5C1269.6,635.5,1269.6,635.5,1269.7,635.5c-0.6,0-1-0.4-1-0.9c-0.2-1.2-4.9-28.6,2.1-37.4
					c7.3-9.1,37.8-10.5,39.8-10.4h0.6c11,0.8,30.6,3.3,37.7,11.1c7.2,8,3.7,25.5,2.2,33c-0.2,1.1-0.5,2.3-0.5,2.6
					c0,0.5-0.4,1.2-1,1.2c-1,0.1-1.1-0.5-1.6-2.2c-0.8-3.1-3.1-12.5-6.5-13.7c-4.1-1.5-20.8-1.4-27.2-1.4h-1.6c-0.9,0-2,0-3-0.2
					c-3.7-0.6-12.5-2.7-16.6-7.7c-0.2,2.4,0.4,7.4,1.3,8.1c0.5,0.4,1.5,1,1.1,1.9c-0.4,1-1.2,0.8-4.3,0.2
					c-3.6-0.8-11.1-2.4-13.5-0.4c-3,2.3-3.9,5-5.4,10c-0.5,1.6-1,3.4-1.8,5.5C1270.5,635.2,1270.1,635.5,1269.7,635.5z
					 M1309.6,588.9c-5.3,0-31.3,2.2-37.2,9.6c-4.8,6-3.4,23-2.3,31.2c0.1-0.4,0.2-0.7,0.3-1.1c1.6-5.2,2.6-8.4,6.1-11
					c3.1-2.7,10.7-1,15.2,0c0.1,0,0.3,0.1,0.4,0.1c-1.1-2.7-1.2-7.5-0.9-9.3c0.1-0.4,0.3-1.8,1.4-2c0.7-0.1,1.3,0.2,1.8,1.1
					c3.4,5,13,7.1,15.8,7.6c0.8,0.2,1.8,0.2,2.6,0.2h1.6c10.9,0,23.9,0.1,27.9,1.6c3.4,1.2,5.5,6.6,7.1,12.1c1.5-7.5,4-22.8-2-29.5
					c-4.8-5.3-18-9.1-36.3-10.4h-0.6C1310.2,588.9,1309.9,588.9,1309.6,588.9z"/>
			</g>
		</g>
	</g>
</g>
<g>
	<g>
		<g>
			<g>
				<path class="st1" d="M380.5,574.1h-28.2c-0.6,0-1.1-0.5-1.1-1.1s0.5-1.1,1.1-1.1h28.2c0.6,0,1.1,0.5,1.1,1.1
					S381,574.1,380.5,574.1z"/>
			</g>
			<g>
				<path class="st1" d="M397.4,573.9h-10.2c-0.6,0-1.1-0.5-1.1-1.1s0.5-1.1,1.1-1.1h10.2c0.6,0,1.1,0.5,1.1,1.1
					S398,573.9,397.4,573.9z"/>
			</g>
			<g>
				<path class="st1" d="M397.4,582.8h-20.8c-0.6,0-1.1-0.5-1.1-1.1s0.5-1.1,1.1-1.1h20.8c0.6,0,1.1,0.5,1.1,1.1
					S398,582.8,397.4,582.8z"/>
			</g>
			<g>
				<path class="st1" d="M370.9,582.8h-7.4c-0.6,0-1.1-0.5-1.1-1.1s0.5-1.1,1.1-1.1h7.4c0.6,0,1.1,0.5,1.1,1.1
					S371.5,582.8,370.9,582.8z"/>
			</g>
		</g>
		<g>
			<g>
				<g>
					<path class="st3" d="M383.9,623.8c-0.3,0-0.5-0.1-0.8-0.3l-4.9-4.9c-0.4-0.4-0.4-1.1,0-1.5s1.1-0.4,1.5,0l4.9,4.9
						c0.4,0.4,0.4,1.1,0,1.5C384.4,623.7,384.1,623.8,383.9,623.8z"/>
				</g>
				<g>
					<path class="st3" d="M395.3,635c-0.3,0-0.5-0.1-0.7-0.3l-5.1-4.9c-0.4-0.4-0.4-1.1,0-1.5s1.1-0.4,1.5,0l5.1,4.9
						c0.4,0.4,0.4,1.1,0,1.5C395.9,634.9,395.6,635,395.3,635z"/>
				</g>
			</g>
			<g>
				<g>
					<path class="st3" d="M379,635c-0.3,0-0.5-0.1-0.8-0.3c-0.4-0.4-0.4-1.1,0-1.5l4.9-4.9c0.4-0.4,1.1-0.4,1.5,0s0.4,1.1,0,1.5
						l-4.9,4.9C379.5,634.9,379.2,635,379,635z"/>
				</g>
				<g>
					<path class="st3" d="M390.2,623.8c-0.3,0-0.6-0.1-0.8-0.3c-0.4-0.4-0.4-1.1,0-1.5l5.1-4.9c0.4-0.4,1.1-0.4,1.5,0s0.4,1.1,0,1.5
						l-5.1,4.9C390.8,623.7,390.5,623.8,390.2,623.8z"/>
				</g>
			</g>
		</g>
		<g>
			<g>
				<g>
					<path class="st1" d="M343.5,791.5c-0.3,0-0.5-0.1-0.8-0.3l-4.9-4.9c-0.4-0.4-0.4-1.1,0-1.5s1.1-0.4,1.5,0l4.9,4.9
						c0.4,0.4,0.4,1.1,0,1.5C344.1,791.4,343.8,791.5,343.5,791.5z"/>
				</g>
				<g>
					<path class="st1" d="M355,802.8c-0.3,0-0.5-0.1-0.7-0.3l-5.1-4.9c-0.4-0.4-0.4-1.1,0-1.5s1.1-0.4,1.5,0l5.1,4.9
						c0.4,0.4,0.4,1.1,0,1.5C355.5,802.7,355.3,802.8,355,802.8z"/>
				</g>
			</g>
			<g>
				<g>
					<path class="st1" d="M338.6,802.8c-0.3,0-0.5-0.1-0.8-0.3c-0.4-0.4-0.4-1.1,0-1.5l4.9-4.9c0.4-0.4,1.1-0.4,1.5,0s0.4,1.1,0,1.5
						l-4.9,4.9C339.2,802.7,338.9,802.8,338.6,802.8z"/>
				</g>
				<g>
					<path class="st1" d="M349.9,791.5c-0.3,0-0.6-0.1-0.8-0.3c-0.4-0.4-0.4-1.1,0-1.5l5.1-4.9c0.4-0.4,1.1-0.4,1.5,0s0.4,1.1,0,1.5
						l-5.1,4.9C350.4,791.4,350.1,791.5,349.9,791.5z"/>
				</g>
			</g>
		</g>
		<g>
			<g>
				<g>
					<path class="st1" d="M132.4,588.8c-0.3,0-0.5-0.1-0.8-0.3l-4.9-4.9c-0.4-0.4-0.4-1.1,0-1.5s1.1-0.4,1.5,0l4.9,4.9
						c0.4,0.4,0.4,1.1,0,1.5C133,588.6,132.7,588.8,132.4,588.8z"/>
				</g>
				<g>
					<path class="st1" d="M143.7,600.2c-0.3,0-0.6-0.1-0.8-0.3l-4.9-5.1c-0.4-0.4-0.4-1.1,0-1.5s1.1-0.4,1.5,0l4.9,5.1
						c0.4,0.4,0.4,1.1,0,1.5C144.2,600.1,144,600.2,143.7,600.2z"/>
				</g>
			</g>
			<g>
				<g>
					<path class="st1" d="M127.6,600.2c-0.3,0-0.5-0.1-0.7-0.3c-0.4-0.4-0.4-1.1,0-1.5l4.9-5.1c0.4-0.4,1.1-0.4,1.5,0s0.4,1.1,0,1.5
						l-4.9,5.1C128.1,600.1,127.8,600.2,127.6,600.2z"/>
				</g>
				<g>
					<path class="st1" d="M138.8,588.8c-0.3,0-0.5-0.1-0.8-0.3c-0.4-0.4-0.4-1.1,0-1.5l4.9-4.9c0.4-0.4,1.1-0.4,1.5,0s0.4,1.1,0,1.5
						l-4.9,4.9C139.4,588.6,139.1,588.8,138.8,588.8z"/>
				</g>
			</g>
		</g>
		<g>
			<g>
				<g>
					<path class="st1" d="M249,708.3c-0.3,0-0.5-0.1-0.8-0.3l-5.1-5.1c-0.4-0.4-0.4-1.1,0-1.5s1.1-0.4,1.5,0l5.1,5.1
						c0.4,0.4,0.4,1.1,0,1.5C249.6,708.2,249.3,708.3,249,708.3z"/>
				</g>
				<g>
					<path class="st1" d="M260.1,719.6c-0.3,0-0.6-0.1-0.8-0.3l-4.7-4.9c-0.4-0.4-0.4-1.1,0-1.5s1.1-0.4,1.5,0l4.7,4.9
						c0.4,0.4,0.4,1.1,0,1.5C260.6,719.5,260.3,719.6,260.1,719.6z"/>
				</g>
			</g>
			<g>
				<g>
					<path class="st1" d="M243.9,719.6c-0.3,0-0.6-0.1-0.8-0.3c-0.4-0.4-0.4-1.1,0-1.5l5.1-4.9c0.4-0.4,1.1-0.4,1.5,0s0.4,1.1,0,1.5
						l-5.1,4.9C244.4,719.5,244.2,719.6,243.9,719.6z"/>
				</g>
				<g>
					<path class="st1" d="M255.4,708.3c-0.3,0-0.5-0.1-0.7-0.3c-0.4-0.4-0.5-1.1-0.1-1.5l4.7-5.1c0.4-0.4,1.1-0.5,1.5-0.1
						s0.5,1.1,0.1,1.5l-4.7,5.1C256,708.2,255.7,708.3,255.4,708.3z"/>
				</g>
			</g>
		</g>
		<g>
			<g>
				<path class="st3" d="M161.3,725.3c-0.6,0-1.1-0.5-1.1-1.1v-23.1c0-0.6,0.5-1.1,1.1-1.1s1.1,0.5,1.1,1.1v23.1
					C162.4,724.8,161.9,725.3,161.3,725.3z"/>
			</g>
			<g>
				<path class="st3" d="M161.3,742.5c-0.6,0-1.1-0.5-1.1-1.1V731c0-0.6,0.5-1.1,1.1-1.1s1.1,0.5,1.1,1.1v10.4
					C162.4,742,161.9,742.5,161.3,742.5z"/>
			</g>
		</g>
		<g>
			<g>
				<path class="st3" d="M279.8,616.6c-0.6,0-1.1-0.5-1.1-1.1v-23.1c0-0.6,0.5-1.1,1.1-1.1s1.1,0.5,1.1,1.1v23.1
					C280.9,616.1,280.4,616.6,279.8,616.6z"/>
			</g>
			<g>
				<path class="st3" d="M279.8,633.6c-0.6,0-1.1-0.5-1.1-1.1v-10.4c0-0.6,0.5-1.1,1.1-1.1s1.1,0.5,1.1,1.1v10.4
					C280.9,633.1,280.4,633.6,279.8,633.6z"/>
			</g>
		</g>
		<g>
			<g>
				<path class="st1" d="M155.8,785.4h-20.4c-0.6,0-1.1-0.5-1.1-1.1s0.5-1.1,1.1-1.1h20.4c0.6,0,1.1,0.5,1.1,1.1
					C156.9,784.9,156.4,785.4,155.8,785.4z"/>
			</g>
			<g>
				<path class="st1" d="M169.4,785.2h-8.5c-0.6,0-1.1-0.5-1.1-1.1s0.5-1.1,1.1-1.1h8.5c0.6,0,1.1,0.5,1.1,1.1
					S170,785.2,169.4,785.2z"/>
			</g>
			<g>
				<path class="st1" d="M180.6,794.7h-29.1c-0.6,0-1.1-0.5-1.1-1.1s0.5-1.1,1.1-1.1h29.1c0.6,0,1.1,0.5,1.1,1.1
					C181.7,794.3,181.2,794.7,180.6,794.7z"/>
			</g>
			<g>
				<path class="st1" d="M146.9,794.7h-11.5c-0.6,0-1.1-0.5-1.1-1.1s0.5-1.1,1.1-1.1h11.5c0.6,0,1.1,0.5,1.1,1.1
					C147.9,794.3,147.5,794.7,146.9,794.7z"/>
			</g>
		</g>
		<g>
			<path class="st3" d="M312.1,569.6c-4,0-7.2-3.2-7.2-7.2s3.2-7.2,7.2-7.2s7.2,3.2,7.2,7.2C319.3,566.4,316.1,569.6,312.1,569.6z
				 M312.1,557.3c-2.8,0-5.1,2.3-5.1,5.1s2.3,5.1,5.1,5.1c2.8,0,5.1-2.3,5.1-5.1S314.9,557.3,312.1,557.3z"/>
		</g>
		<g>
			<path class="st3" d="M245.8,794.5c-4,0-7.2-3.2-7.2-7.2s3.2-7.2,7.2-7.2s7.2,3.2,7.2,7.2C253.1,791.3,249.8,794.5,245.8,794.5z
				 M245.8,782.2c-2.8,0-5.1,2.3-5.1,5.1s2.3,5.1,5.1,5.1s5.1-2.3,5.1-5.1S248.6,782.2,245.8,782.2z"/>
		</g>
		<g>
			<path class="st3" d="M243.7,590.7l-31.4-4.3c-2-0.3-3.6-1.2-4.6-2.6c-0.3-0.5-0.2-1.1,0.3-1.5c0.5-0.3,1.1-0.2,1.5,0.3
				c0.8,1.2,2.3,1.5,3.1,1.7l31.2,4.2c0.8,0,1.7-0.4,2.3-1.1c0.4-0.4,0.9-1.2,0.8-2.3v-12.8c0-0.9-0.4-1.8-1.1-2.4
				c-0.4-0.4-1.2-0.8-2.3-0.8l-31.2,4.2c-1.4,0.2-2.5,0.8-3.3,2.1c-0.3,0.5-1,0.6-1.5,0.3s-0.6-1-0.3-1.5c1.2-1.8,2.8-2.8,4.8-3
				l31.2-4.2c1.5-0.1,2.9,0.3,3.9,1.3c1.1,1,1.7,2.5,1.7,4V585c0.1,1.3-0.4,2.7-1.3,3.8C246.7,590,245.2,590.7,243.7,590.7z"/>
		</g>
		<g>
			<path class="st3" d="M165.7,590.9c-3.2,0-5.6-2.5-5.6-5.5v-12.7c0-3,2.5-5.5,5.5-5.5l31.4,4.3c2.2,0.2,4.1,1.5,4.9,3.4
				c0.2,0.5,0,1.2-0.6,1.4c-0.5,0.2-1.2,0-1.4-0.6c-0.5-1.2-1.7-2-3.2-2.1l-31.2-4.3c-1.9,0-3.3,1.8-3.3,3.4v12.7
				c0,2,1.8,3.4,3.4,3.4l31.1-4.2c1.7-0.6,2.7-1.1,3.2-2.3c0.2-0.5,0.8-0.8,1.4-0.6c0.5,0.2,0.8,0.8,0.6,1.4
				c-0.8,2.2-2.7,2.9-4.7,3.6L165.7,590.9L165.7,590.9z"/>
		</g>
		<g>
			<g>
				<path class="st3" d="M253.7,616.6h-99.2c-0.5,0-0.9-0.3-1-0.8s0-0.9,0.4-1.2l17.8-11.7c0.2-0.1,0.4-0.2,0.6-0.2h64.3
					c0.2,0,0.4,0.1,0.6,0.2l17,11.7c0.4,0.3,0.5,0.7,0.4,1.2C254.6,616.3,254.2,616.6,253.7,616.6z M158.1,614.4h92.2l-13.9-9.6
					h-63.7L158.1,614.4z"/>
			</g>
			<g>
				<path class="st3" d="M217.8,671.1c-0.2,0-0.4-0.1-0.6-0.2c-0.5-0.3-0.6-1-0.3-1.5l34.8-52.9h-13.4l-32.8,54.1
					c-0.2,0.3-0.5,0.5-0.9,0.5l0,0c-0.4,0-0.7-0.2-0.9-0.5l-33.2-54.1h-14l35.6,52.9c0.3,0.5,0.2,1.1-0.3,1.5
					c-0.5,0.3-1.1,0.2-1.5-0.3L153.6,616c-0.2-0.3-0.2-0.7-0.1-1.1c0.2-0.3,0.5-0.6,0.9-0.6H171c0.4,0,0.7,0.2,0.9,0.5l32.6,53.1
					l32.2-53.1c0.2-0.3,0.5-0.5,0.9-0.5h15.9c0.4,0,0.7,0.2,0.9,0.6c0.2,0.3,0.2,0.8,0,1.1l-35.9,54.6
					C218.5,671,218.1,671.1,217.8,671.1z"/>
			</g>
			<g>
				<path class="st2" d="M211.9,679"/>
			</g>
			<g>
				<path class="st2" d="M197,679"/>
			</g>
			<g>
				<path class="st3" d="M204.4,775.8c-0.3,0-0.6-0.1-0.8-0.4l-13.2-16.8c-0.2-0.2-0.2-0.5-0.2-0.7l4.9-66.7c0-0.6,0.5-1,1.1-1
					s1,0.6,1,1.1l-4.9,66.3l12.1,15.4l11.9-15.6l-4.6-66.1c0-0.6,0.4-1.1,1-1.1s1.1,0.4,1.1,1l4.7,66.5c0,0.3-0.1,0.5-0.2,0.7
					l-13,17C205.1,775.7,204.8,775.8,204.4,775.8L204.4,775.8z"/>
			</g>
		</g>
		<g>
			<g>
				<path class="st1" d="M385.1,689.4H279.8c-6.6,0-11.9-5.3-11.9-11.9c0-7.3,6.6-10.2,11.6-11.8l52.9-16.1c0.2-0.1,0.4-0.1,0.6,0
					l52.5,16.1c5,1.5,11.6,4.4,11.6,11.8C396.8,684.2,391.6,689.4,385.1,689.4z M332.7,651.7l-52.6,16c-7,2.2-10.1,5.3-10.1,9.8
					c0,5.4,4.4,9.8,9.8,9.8h105.3c5.3,0,9.6-4.3,9.8-9.8c0-4.6-3.1-7.6-10.1-9.8L332.7,651.7z"/>
			</g>
			<g>
				<path class="st3" d="M332.5,643.1c-0.6,0-1.1-0.5-1.1-1.1s0.5-1.1,1.1-1.1c6.2,0,11-4.9,11-11s-5-11-11-11s-11,5-11,11
					c0,0.6-0.5,1.1-1.1,1.1s-1.1-0.5-1.1-1.1c0-7.3,5.9-13.2,13.2-13.2s13.2,5.9,13.2,13.2C345.6,637.3,339.9,643.1,332.5,643.1z"/>
			</g>
			<g>
				<path class="st3" d="M332.3,651.6c-0.6,0-1.1-0.5-1.1-1.1V642c0-0.6,0.5-1.1,1.1-1.1s1.1,0.5,1.1,1.1v8.5
					C333.3,651.1,332.8,651.6,332.3,651.6z"/>
			</g>
		</g>
		<g>
			<path class="st3" d="M380.5,776H272.6c-0.3,0-14.2-2-14.9-13.3c-0.5-11.7,11.7-12.8,11.8-12.8c0.2,0,21.1-1.3,26.9-4.7
				c6.4-3.7,31.7-13.1,42.4-11c2.1,0.5,2.3,2.5,2.1,3.6c0.1,1,1.3,8.1,11.1,8.2c6,0.1,13.2,0,18.5-0.1c2.7-0.1,5-0.1,6.5-0.1
				c3,0,5.5-0.5,6-1.2c0-0.1,0.1-0.1,0-0.3c-2.2-7.4,0.9-9.6,3-10.3c2.2-0.8,4.4-0.4,6.2,1.2c5.4,4.6,6.8,19.2,5.4,27.2
				C395.9,771.8,393,776,380.5,776z M335.1,736c-11.3,0-32.1,7.8-37.5,11c-6.3,3.7-27,5-27.9,5c-0.4,0-10.2,0.9-9.8,10.6
				c0.6,9.6,12.8,11.3,12.9,11.3h107.7c10.9,0,13.5-3.1,15.1-11.9c1.3-7.4,0.1-21.2-4.7-25.2c-1.2-1-2.6-1.3-4.1-0.8
				c-2.4,0.8-3,3.3-1.7,7.6c0.3,0.8,0.2,1.6-0.3,2.2c-1.3,1.8-5.4,2.1-7.7,2.1c-1.5,0-3.8,0-6.5,0.1c-5.3,0.1-12.6,0.3-18.6,0.1
				c-12.3-0.2-13.1-10.2-13.1-10.3s0-0.2,0-0.3s0.2-1.1-0.5-1.3C337.4,736.1,336.3,736,335.1,736z"/>
		</g>
		<g>
			<path class="st1" d="M312.3,749.3c-0.2,0-0.4,0-0.5-0.2c-7.5-4.6-5.5-16.5-5.4-17c0.1-0.6,0.7-1,1.2-0.9c0.6,0.1,1,0.7,0.9,1.2
				c0,0.1-1.9,11,4.4,14.8c0.5,0.3,0.7,1,0.4,1.5C313,749.1,312.7,749.3,312.3,749.3z"/>
		</g>
		<g>
			<path class="st1" d="M301.3,752c-0.2,0-0.4,0-0.5-0.2c-7.5-4.6-5.5-16.5-5.4-17c0.1-0.6,0.7-0.9,1.2-0.9c0.6,0.1,1,0.7,0.9,1.2
				c0,0.1-1.9,11,4.4,14.8c0.5,0.3,0.7,1,0.4,1.5C302,751.9,301.6,752,301.3,752z"/>
		</g>
		<g>
			<path class="st1" d="M324.2,746.5c-0.2,0-0.4,0-0.5-0.2c-7.5-4.6-5.5-16.5-5.4-17c0.1-0.6,0.7-0.9,1.2-0.9c0.6,0.1,1,0.7,0.9,1.2
				c0,0.1-1.9,11,4.4,14.8c0.5,0.3,0.7,1,0.4,1.5C324.9,746.3,324.5,746.5,324.2,746.5z"/>
		</g>
		<g>
			<path class="st1" d="M204.6,591.5c-2.5,0-4.5-2-4.5-4.5v-16.1c0-2.5,2-4.5,4.5-4.5s4.5,2,4.5,4.5V587
				C209.1,589.6,207.2,591.5,204.6,591.5z M204.6,568.6c-1.3,0-2.3,1-2.3,2.3V587c0,1.3,1,2.3,2.3,2.3c1.7,0,2.3-1.2,2.3-2.3v-16.1
				C207,569.6,206,568.6,204.6,568.6z"/>
		</g>
		<g>
			<path class="st1" d="M212.7,692.4h-16.6c-0.5,0-0.9-0.3-1-0.8l-4.9-21.2c-0.1-0.3,0-0.6,0.2-0.9s0.5-0.4,0.8-0.4h26.5
				c0.3,0,0.6,0.1,0.8,0.4c0.2,0.3,0.3,0.6,0.2,0.9l-5.1,21.2C213.6,692,213.2,692.4,212.7,692.4z M197,690.3h14.9l4.6-19.1h-23.9
				L197,690.3z"/>
		</g>
	</g>
</g>
<g>
	<g>
		<g>
			<g>
				<path class="st1" d="M913.6,343.5h-28c-0.6,0-1.1-0.5-1.1-1.1s0.5-1.1,1.1-1.1h28c0.6,0,1.1,0.5,1.1,1.1
					S914.2,343.5,913.6,343.5z"/>
			</g>
			<g>
				<path class="st1" d="M930.6,343.3h-10.2c-0.6,0-1.1-0.5-1.1-1.1s0.5-1.1,1.1-1.1h10.2c0.6,0,1.1,0.5,1.1,1.1
					S931.2,343.3,930.6,343.3z"/>
			</g>
			<g>
				<path class="st1" d="M930.8,352.2H910c-0.6,0-1.1-0.5-1.1-1.1s0.5-1.1,1.1-1.1h20.8c0.6,0,1.1,0.5,1.1,1.1
					S931.4,352.2,930.8,352.2z"/>
			</g>
			<g>
				<path class="st1" d="M904.1,352.2h-7.4c-0.6,0-1.1-0.5-1.1-1.1s0.5-1.1,1.1-1.1h7.4c0.6,0,1.1,0.5,1.1,1.1
					S904.7,352.2,904.1,352.2z"/>
			</g>
		</g>
		<g>
			<g>
				<g>
					<path class="st3" d="M819.1,350.9c-0.3,0-0.5-0.1-0.8-0.3l-4.9-4.9c-0.4-0.4-0.4-1.1,0-1.5c0.4-0.4,1.1-0.4,1.5,0l4.9,4.9
						c0.4,0.4,0.4,1.1,0,1.5C819.7,350.8,819.4,350.9,819.1,350.9z"/>
				</g>
				<g>
					<path class="st3" d="M830.4,362.2c-0.3,0-0.5-0.1-0.8-0.3l-4.9-4.9c-0.4-0.4-0.4-1.1,0-1.5c0.4-0.4,1.1-0.4,1.5,0l4.9,4.9
						c0.4,0.4,0.4,1.1,0,1.5C830.9,362.1,830.7,362.2,830.4,362.2z"/>
				</g>
			</g>
			<g>
				<g>
					<path class="st3" d="M814.2,362.2c-0.3,0-0.5-0.1-0.8-0.3c-0.4-0.4-0.4-1.1,0-1.5l4.9-4.9c0.4-0.4,1.1-0.4,1.5,0
						c0.4,0.4,0.4,1.1,0,1.5l-4.9,4.9C814.8,362.1,814.5,362.2,814.2,362.2z"/>
				</g>
				<g>
					<path class="st3" d="M825.5,350.9c-0.3,0-0.5-0.1-0.8-0.3c-0.4-0.4-0.4-1.1,0-1.5l4.9-4.9c0.4-0.4,1.1-0.4,1.5,0
						c0.4,0.4,0.4,1.1,0,1.5l-4.9,4.9C826,350.8,825.8,350.9,825.5,350.9z"/>
				</g>
			</g>
		</g>
		<g>
			<g>
				<g>
					<path class="st3" d="M672.6,283c-0.3,0-0.5-0.1-0.8-0.3l-4.9-4.9c-0.4-0.4-0.4-1.1,0-1.5c0.4-0.4,1.1-0.4,1.5,0l4.9,4.9
						c0.4,0.4,0.4,1.1,0,1.5C673.1,282.9,672.9,283,672.6,283z"/>
				</g>
				<g>
					<path class="st3" d="M683.9,294.2c-0.3,0-0.5-0.1-0.8-0.3l-4.9-4.9c-0.4-0.4-0.4-1.1,0-1.5c0.4-0.4,1.1-0.4,1.5,0l4.9,4.9
						c0.4,0.4,0.4,1.1,0,1.5C684.4,294.1,684.1,294.2,683.9,294.2z"/>
				</g>
			</g>
			<g>
				<g>
					<path class="st3" d="M667.7,294.2c-0.3,0-0.5-0.1-0.8-0.3c-0.4-0.4-0.4-1.1,0-1.5l4.9-4.9c0.4-0.4,1.1-0.4,1.5,0
						c0.4,0.4,0.4,1.1,0,1.5l-4.9,4.9C668.3,294.1,668,294.2,667.7,294.2z"/>
				</g>
				<g>
					<path class="st3" d="M679,283c-0.3,0-0.5-0.1-0.8-0.3c-0.4-0.4-0.4-1.1,0-1.5l4.9-4.9c0.4-0.4,1.1-0.4,1.5,0
						c0.4,0.4,0.4,1.1,0,1.5l-4.9,4.9C679.5,282.9,679.2,283,679,283z"/>
				</g>
			</g>
		</g>
		<g>
			<g>
				<g>
					<path class="st1" d="M912.3,122.2c-0.3,0-0.5-0.1-0.8-0.3l-4.9-4.9c-0.4-0.4-0.4-1.1,0-1.5c0.4-0.4,1.1-0.4,1.5,0l4.9,4.9
						c0.4,0.4,0.4,1.1,0,1.5C912.9,122.1,912.6,122.2,912.3,122.2z"/>
				</g>
				<g>
					<path class="st1" d="M923.6,133.5c-0.3,0-0.5-0.1-0.8-0.3l-4.9-4.9c-0.4-0.4-0.4-1.1,0-1.5c0.4-0.4,1.1-0.4,1.5,0l4.9,4.9
						c0.4,0.4,0.4,1.1,0,1.5C924.1,133.4,923.9,133.5,923.6,133.5z"/>
				</g>
			</g>
			<g>
				<g>
					<path class="st1" d="M907.5,133.5c-0.3,0-0.5-0.1-0.8-0.3c-0.4-0.4-0.4-1.1,0-1.5l4.9-4.9c0.4-0.4,1.1-0.4,1.5,0
						c0.4,0.4,0.4,1.1,0,1.5l-4.9,4.9C908,133.4,907.7,133.5,907.5,133.5z"/>
				</g>
				<g>
					<path class="st1" d="M918.7,122.2c-0.3,0-0.5-0.1-0.8-0.3c-0.4-0.4-0.4-1.1,0-1.5l4.9-4.9c0.4-0.4,1.1-0.4,1.5,0
						c0.4,0.4,0.4,1.1,0,1.5l-4.9,4.9C919.3,122.1,919,122.2,918.7,122.2z"/>
				</g>
			</g>
		</g>
		<g>
			<g>
				<path class="st3" d="M917.4,292.7c-0.6,0-1.1-0.5-1.1-1.1v-23.1c0-0.6,0.5-1.1,1.1-1.1c0.6,0,1.1,0.5,1.1,1.1v23.1
					C918.5,292.3,918,292.7,917.4,292.7z"/>
			</g>
			<g>
				<path class="st3" d="M917.7,309.7c-0.6,0-1.1-0.5-1.1-1.1v-10.4c0-0.6,0.5-1.1,1.1-1.1c0.6,0,1.1,0.5,1.1,1.1v10.4
					C918.7,309.2,918.2,309.7,917.7,309.7z"/>
			</g>
		</g>
		<g>
			<g>
				<path class="st3" d="M672.4,171.9c-0.6,0-1.1-0.5-1.1-1.1v-23.1c0-0.6,0.5-1.1,1.1-1.1c0.6,0,1.1,0.5,1.1,1.1v23.1
					C673.5,171.4,673,171.9,672.4,171.9z"/>
			</g>
			<g>
				<path class="st3" d="M672.6,188.9c-0.6,0-1.1-0.5-1.1-1.1v-10.4c0-0.6,0.5-1.1,1.1-1.1c0.6,0,1.1,0.5,1.1,1.1v10.4
					C673.7,188.4,673.2,188.9,672.6,188.9z"/>
			</g>
		</g>
		<g>
			<g>
				<path class="st1" d="M681.9,100.6h-20.1c-0.6,0-1.1-0.5-1.1-1.1c0-0.6,0.5-1.1,1.1-1.1H682c0.6,0,1.1,0.5,1.1,1.1
					C683.1,100.1,682.5,100.6,681.9,100.6z"/>
			</g>
			<g>
				<path class="st1" d="M695.8,100.3h-8.7c-0.6,0-1.1-0.5-1.1-1.1c0-0.6,0.5-1.1,1.1-1.1h8.7c0.6,0,1.1,0.5,1.1,1.1
					C696.8,99.9,696.3,100.3,695.8,100.3z"/>
			</g>
			<g>
				<path class="st1" d="M706.8,109.9h-29.1c-0.6,0-1.1-0.5-1.1-1.1c0-0.6,0.5-1.1,1.1-1.1h29.1c0.6,0,1.1,0.5,1.1,1.1
					C707.9,109.4,707.4,109.9,706.8,109.9z"/>
			</g>
			<g>
				<path class="st1" d="M673,109.9h-11.2c-0.6,0-1.1-0.5-1.1-1.1c0-0.6,0.5-1.1,1.1-1.1h11.3c0.6,0,1.1,0.5,1.1,1.1
					C674.1,109.4,673.6,109.9,673,109.9z"/>
			</g>
		</g>
		<g>
			<path class="st3" d="M859,113.5c-4,0-7.2-3.2-7.2-7.2s3.2-7.2,7.2-7.2s7.2,3.2,7.2,7.2C866.3,110.3,863,113.5,859,113.5z
				 M859,101.2c-2.8,0-5.1,2.3-5.1,5.1s2.3,5.1,5.1,5.1c2.8,0,5.1-2.3,5.1-5.1C864.1,103.5,861.9,101.2,859,101.2z"/>
		</g>
		<g>
			<path class="st3" d="M798.7,264.1c-21.7,0-39.3-17.6-39.3-39.3s17.6-39.3,39.3-39.3c21.7,0,39.3,17.6,39.3,39.3
				S820.4,264.1,798.7,264.1z M798.7,187.6c-20.5,0-37.2,16.7-37.2,37.2s16.7,37.2,37.2,37.2s37.2-16.7,37.2-37.2
				S819.2,187.6,798.7,187.6z"/>
		</g>
		<g>
			<path class="st1" d="M798.7,235c-5.6,0-10.2-4.6-10.2-10.2s4.6-10.2,10.2-10.2c5.6,0,10.2,4.6,10.2,10.2S804.4,235,798.7,235z
				 M798.7,216.7c-4.5,0-8.1,3.6-8.1,8.1c0,4.4,3.6,8.1,8.1,8.1s8.1-3.6,8.1-8.1S803.2,216.7,798.7,216.7z"/>
		</g>
		<g>
			<path class="st1" d="M694.1,346.9c-4,0-7.2-3.2-7.2-7.2s3.2-7.2,7.2-7.2s7.2,3.2,7.2,7.2C701.3,343.6,698,346.9,694.1,346.9z
				 M694.1,334.6c-2.8,0-5.1,2.3-5.1,5.1c0,2.8,2.3,5.1,5.1,5.1s5.1-2.3,5.1-5.1C699.1,336.9,696.9,334.6,694.1,334.6z"/>
		</g>
		<g>
			<g>
				<g>
					<path class="st1" d="M692.4,208c-0.1,0-0.1,0-0.2,0c-0.6-0.1-0.9-0.7-0.8-1.2c0.4-2.1,0.9-4.3,1.3-6.2c0.1-0.6,0.7-0.9,1.3-0.8
						c0.6,0.1,0.9,0.7,0.8,1.3c-0.4,1.9-0.8,4-1.3,6.1C693.3,207.7,692.9,208,692.4,208z"/>
				</g>
				<g>
					<path class="st1" d="M697.2,189.5c-0.1,0-0.2,0-0.4-0.1c-0.6-0.2-0.8-0.8-0.6-1.4c1.4-4,3.1-7.9,5-11.7
						c0.3-0.5,0.9-0.7,1.4-0.5c0.5,0.3,0.7,0.9,0.5,1.4c-1.9,3.7-3.5,7.6-4.9,11.5C698.1,189.3,697.7,189.5,697.2,189.5z M708.5,167
						c-0.2,0-0.4-0.1-0.6-0.2c-0.5-0.3-0.6-1-0.3-1.5c2.3-3.6,4.9-7,7.6-10.2c0.4-0.4,1-0.5,1.5-0.1c0.4,0.4,0.5,1,0.1,1.5
						c-2.7,3.2-5.2,6.6-7.4,10C709.2,166.8,708.9,167,708.5,167z"/>
				</g>
				<g>
					<path class="st1" d="M900.2,190.8c-0.4,0-0.9-0.3-1-0.7c-1.4-3.9-3-7.8-4.8-11.5c-0.3-0.5,0-1.2,0.5-1.4c0.5-0.3,1.2,0,1.4,0.5
						c1.9,3.8,3.5,7.8,4.9,11.8c0.2,0.6-0.1,1.2-0.7,1.4C900.5,190.8,900.3,190.8,900.2,190.8z M889.2,168.2c-0.3,0-0.7-0.2-0.9-0.5
						c-2.2-3.5-4.7-6.9-7.3-10.1c-0.4-0.5-0.3-1.1,0.1-1.5c0.5-0.4,1.1-0.3,1.5,0.1c2.7,3.3,5.2,6.8,7.5,10.3
						c0.3,0.5,0.2,1.1-0.3,1.5C889.6,168.1,889.4,168.2,889.2,168.2z M873.3,148.7c-0.3,0-0.5-0.1-0.7-0.3c-3-2.9-6.2-5.6-9.5-8.2
						c-0.5-0.4-0.6-1-0.2-1.5c0.4-0.5,1-0.6,1.5-0.2c3.4,2.6,6.6,5.4,9.7,8.3c0.4,0.4,0.4,1.1,0,1.5
						C873.8,148.6,873.5,148.7,873.3,148.7z M724.6,147.7c-0.3,0-0.6-0.1-0.8-0.3c-0.4-0.4-0.4-1.1,0-1.5c3.1-2.9,6.4-5.7,9.8-8.2
						c0.5-0.4,1.1-0.3,1.5,0.2c0.4,0.5,0.3,1.1-0.2,1.5c-3.3,2.5-6.5,5.2-9.6,8C725.2,147.6,724.9,147.7,724.6,147.7z M853.2,133.4
						c-0.2,0-0.4,0-0.5-0.1c-3.6-2.1-7.3-4-11.1-5.7c-0.5-0.2-0.8-0.9-0.5-1.4c0.2-0.5,0.9-0.8,1.4-0.5c3.9,1.7,7.7,3.7,11.3,5.9
						c0.5,0.3,0.7,1,0.4,1.5C854,133.2,853.6,133.4,853.2,133.4z M744.8,132.7c-0.4,0-0.7-0.2-0.9-0.5c-0.3-0.5-0.1-1.2,0.4-1.4
						c3.7-2.1,7.5-4,11.4-5.7c0.5-0.2,1.2,0,1.4,0.6c0.2,0.5,0,1.2-0.6,1.4c-3.8,1.6-7.6,3.5-11.2,5.6
						C745.2,132.6,745,132.7,744.8,132.7z M830.2,123.2c-0.1,0-0.2,0-0.3,0c-4-1.2-8.1-2.2-12.1-3c-0.6-0.1-1-0.7-0.9-1.2
						c0.1-0.6,0.7-1,1.2-0.9c4.2,0.8,8.3,1.8,12.4,3c0.6,0.2,0.9,0.8,0.7,1.3C831.1,122.9,830.7,123.2,830.2,123.2z M768,122.8
						c-0.5,0-0.9-0.3-1-0.8c-0.2-0.6,0.2-1.2,0.7-1.3c4.1-1.2,8.2-2.2,12.4-2.9c0.5-0.1,1.1,0.3,1.2,0.9c0.1,0.6-0.3,1.1-0.9,1.2
						c-4.1,0.7-8.2,1.6-12.2,2.8C768.2,122.7,768.1,122.8,768,122.8z M805.4,118.6L805.4,118.6c-4.2-0.3-8.4-0.3-12.6-0.1
						c-0.6,0-1.1-0.4-1.1-1c0-0.6,0.4-1.1,1-1.1c4.2-0.2,8.5-0.2,12.7,0.1c0.6,0,1,0.5,1,1.1C806.5,118.2,806,118.6,805.4,118.6z"/>
				</g>
				<g>
					<path class="st1" d="M904.5,209.5c-0.5,0-1-0.4-1.1-1c-0.2-2.1-0.6-4.2-1-6.3c-0.1-0.6,0.3-1.1,0.8-1.2
						c0.6-0.1,1.1,0.3,1.3,0.8c0.4,2.1,0.9,4.3,1.1,6.5c0.1,0.6-0.4,1.1-0.9,1.2C904.6,209.5,904.5,209.5,904.5,209.5z"/>
				</g>
			</g>
		</g>
		<g>
			<g>
				<g>
					<path class="st1" d="M903.2,249.8c-0.1,0-0.2,0-0.2,0c-0.6-0.1-0.9-0.7-0.8-1.3c0.4-1.9,0.8-4,1.3-6.1l2.1,0.4
						c-0.4,2.1-0.8,4.2-1.3,6.1C904.1,249.5,903.7,249.8,903.2,249.8z"/>
				</g>
				<g>
					<path class="st1" d="M880.9,294.8c-0.2,0-0.5-0.1-0.7-0.2c-0.5-0.4-0.5-1-0.1-1.5c2.7-3.2,5.1-6.6,7.4-10
						c0.3-0.5,1-0.6,1.5-0.3c0.5,0.3,0.6,1,0.3,1.5c-2.3,3.6-4.9,7-7.6,10.2C881.5,294.7,881.2,294.8,880.9,294.8z M894.6,273.7
						c-0.2,0-0.3,0-0.5-0.1c-0.5-0.3-0.7-0.9-0.5-1.4c1.9-3.7,3.5-7.6,4.9-11.5c0.2-0.6,0.8-0.8,1.4-0.6c0.6,0.2,0.8,0.8,0.6,1.4
						c-1.4,4-3.1,7.9-5,11.7C895.4,273.5,895,273.7,894.6,273.7z"/>
				</g>
				<g>
					<path class="st1" d="M798.5,333.5c-2.3,0-4.6-0.1-6.8-0.2c-0.6,0-1-0.5-1-1.1s0.5-1.1,1.1-1c2.2,0.1,4.5,0.2,6.7,0.2
						c2,0,3.9-0.1,5.8-0.2c0.6-0.1,1.1,0.4,1.1,1s-0.4,1.1-1,1.1C802.5,333.4,800.5,333.5,798.5,333.5z M816.9,331.9
						c-0.5,0-1-0.4-1-0.9c-0.1-0.6,0.3-1.1,0.9-1.2c4.1-0.7,8.2-1.7,12.1-2.9c0.6-0.2,1.2,0.2,1.3,0.7c0.2,0.6-0.2,1.2-0.7,1.3
						c-4.1,1.2-8.2,2.2-12.4,2.9C817,331.9,817,331.9,816.9,331.9z M779.3,331.8c-0.1,0-0.1,0-0.2,0c-4.2-0.8-8.3-1.8-12.4-3
						c-0.6-0.2-0.9-0.8-0.7-1.3c0.2-0.6,0.8-0.9,1.3-0.7c4,1.2,8,2.2,12.1,2.9c0.6,0.1,1,0.7,0.9,1.2S779.8,331.8,779.3,331.8z
						 M841,324.7c-0.4,0-0.8-0.2-1-0.6c-0.2-0.5,0-1.2,0.6-1.4c3.8-1.6,7.6-3.5,11.1-5.6c0.5-0.3,1.2-0.1,1.5,0.4s0.1,1.2-0.4,1.5
						c-3.7,2.1-7.5,4.1-11.4,5.7C841.3,324.7,841.2,324.7,841,324.7z M755.2,324.4c-0.1,0-0.3,0-0.4-0.1c-3.9-1.7-7.7-3.7-11.3-5.8
						c-0.5-0.3-0.7-0.9-0.4-1.5c0.3-0.5,0.9-0.7,1.5-0.4c3.6,2.1,7.3,4,11.1,5.7c0.5,0.2,0.8,0.9,0.5,1.4
						C756,324.2,755.6,324.4,755.2,324.4z M862.8,312.1c-0.3,0-0.6-0.1-0.9-0.4c-0.4-0.5-0.3-1.1,0.2-1.5c3.3-2.5,6.5-5.2,9.6-8
						c0.4-0.4,1.1-0.4,1.5,0c0.4,0.4,0.4,1.1,0,1.5c-3.1,2.9-6.4,5.7-9.7,8.2C863.2,312,863,312.1,862.8,312.1z M733.5,311.6
						c-0.2,0-0.4-0.1-0.6-0.2c-3.4-2.6-6.6-5.3-9.7-8.3c-0.4-0.4-0.4-1.1,0-1.5c0.4-0.4,1.1-0.4,1.5,0c3,2.9,6.2,5.6,9.5,8.1
						c0.5,0.4,0.6,1,0.2,1.5C734.1,311.5,733.8,311.6,733.5,311.6z M715.4,294.2c-0.3,0-0.6-0.1-0.8-0.4c-2.7-3.3-5.2-6.7-7.5-10.3
						c-0.3-0.5-0.2-1.2,0.3-1.5s1.1-0.2,1.5,0.3c2.2,3.5,4.7,6.9,7.3,10.1c0.4,0.5,0.3,1.1-0.1,1.5
						C715.8,294.1,715.6,294.2,715.4,294.2z M701.8,273c-0.4,0-0.8-0.2-1-0.6c-1.8-3.8-3.5-7.8-4.8-11.8c-0.2-0.6,0.1-1.2,0.7-1.3
						c0.6-0.2,1.2,0.1,1.3,0.7c1.3,3.9,2.9,7.8,4.8,11.5c0.3,0.5,0,1.2-0.5,1.4C702.1,272.9,702,273,701.8,273z"/>
				</g>
				<g>
					<path class="st1" d="M693.4,248.9c-0.5,0-0.9-0.3-1-0.8v-0.2c-0.4-2.1-0.8-4.1-1.2-6c-0.1-0.6,0.2-1.1,0.8-1.3
						c0.6-0.1,1.1,0.2,1.3,0.8c0.4,1.9,0.8,3.9,1.2,6c0.1,0.6-0.2,1.2-0.8,1.3C693.5,248.9,693.4,248.9,693.4,248.9z"/>
				</g>
			</g>
		</g>
		<g>
			<path class="st1" d="M873.1,238.8c-0.2,0-0.5-0.1-0.7-0.3c-0.4-0.4-0.5-1.1-0.1-1.5c12.1-13.9,0.5-26.5,0-27
				c-0.4-0.4-0.4-1.1,0-1.5c0.4-0.4,1.1-0.4,1.5,0c0.1,0.1,13.5,14.5,0,29.9C873.7,238.7,873.4,238.8,873.1,238.8z"/>
		</g>
		<g>
			<path class="st1" d="M853.7,248.1c-0.3,0-0.6-0.1-0.8-0.3c-0.4-0.4-0.4-1.1,0-1.5c7-6.8,10.5-14,10.3-21.5
				c-0.2-12.4-10.2-21.4-10.3-21.5c-0.4-0.4-0.5-1.1-0.1-1.5c0.4-0.4,1.1-0.5,1.5-0.1c0.4,0.4,10.8,9.8,11,23
				c0.2,8.1-3.5,15.9-11,23.1C854.3,248,854,248.1,853.7,248.1z"/>
		</g>
		<g>
			<path class="st1" d="M723.6,238.8c-0.3,0-0.6-0.1-0.8-0.4c-13.4-15.4-0.1-29.7,0-29.9c0.4-0.4,1.1-0.4,1.5,0
				c0.4,0.4,0.4,1.1,0,1.5c-0.5,0.5-12.1,13.1,0,27c0.4,0.4,0.3,1.1-0.1,1.5C724.1,238.7,723.8,238.8,723.6,238.8z"/>
		</g>
		<g>
			<path class="st1" d="M743.1,248.1c-0.3,0-0.5-0.1-0.7-0.3c-7.4-7.2-11.1-15-11-23.1c0.3-13.3,10.6-22.7,11-23
				c0.4-0.4,1.1-0.4,1.5,0.1c0.4,0.4,0.4,1.1-0.1,1.5c-0.1,0.1-10.1,9.2-10.3,21.5c-0.1,7.5,3.3,14.8,10.3,21.5
				c0.4,0.4,0.4,1.1,0,1.5C743.7,248,743.4,248.1,743.1,248.1z"/>
		</g>
		<g>
			<path class="st3" d="M798.3,283c-68,0-124-56-124.6-56.6c-0.4-0.4-0.4-1.1,0-1.5c0.6-0.6,56.5-56.6,124.6-56.6s124,56,124.6,56.6
				c0.4,0.4,0.4,1.1,0,1.5C922.3,226.9,866.4,283,798.3,283z M676,225.6c6.9,6.6,59.4,55.2,122.3,55.2s115.4-48.6,122.3-55.2
				c-6.9-6.6-59.4-55.2-122.3-55.2S682.9,219,676,225.6z"/>
		</g>
	</g>
</g>
<rect y="442" class="st4" width="1600" height="16"/>
<rect x="525" class="st4" width="16" height="900"/>
<rect x="1059" class="st4" width="16" height="900"/>
</svg>
