<?xml version="1.0" encoding="utf-8"?>
<!-- Generator: Adobe Illustrator 21.1.0, SVG Export Plug-In . SVG Version: 6.00 Build 0)  -->
<svg version="1.1" id="Layer_1" xmlns="http://www.w3.org/2000/svg" xmlns:xlink="http://www.w3.org/1999/xlink" x="0px" y="0px"
	 viewBox="0 0 1600 900" style="enable-background:new 0 0 1600 900;" xml:space="preserve">
<style type="text/css">
	.st0{fill:#F5F5F5;}
	.st1{fill:#FFFFFF;stroke:#CCCBCB;stroke-linecap:round;stroke-linejoin:round;stroke-miterlimit:10;}
	.st2{opacity:0.1;}
	.st3{fill:#212121;}
	.st4{fill:none;stroke:#989898;stroke-linecap:round;stroke-linejoin:round;stroke-miterlimit:10;}
	.st5{fill:#B2B3B3;}
	.st6{font-family:'MyriadPro-Regular';}
	.st7{font-size:20.0366px;}
	.st8{fill:#989898;}
	.st9{opacity:0.5;}
	.st10{fill:#666667;}
	.st11{fill:#808080;}
	.st12{fill:#4D4E4E;}
	.st13{fill:#F69220;}
	.st14{font-family:'HelveticaNeue-Medium';}
	.st15{font-size:14.4px;}
	.st16{fill:none;stroke:#F69220;stroke-miterlimit:10;}
	.st17{font-size:11.2px;}
	.st18{fill:#39B44A;}
	.st19{fill:none;stroke:#39B44A;stroke-miterlimit:10;}
	.st20{fill:#28AAE1;}
	.st21{fill:none;stroke:#28AAE1;stroke-miterlimit:10;}
	.st22{font-size:12.0578px;}
</style>
<g id="Layer_1_1_">
	<g>
		<rect class="st0" width="1600" height="900"/>
	</g>
</g>
<g id="Layer_2">
	<g>
		<g>
			<rect x="445.9" y="270.9" class="st1" width="769.8" height="433"/>
			<g class="st2">
				<g>
					<path class="st3" d="M983.7,490.2c-4.9-4.5-12.3-4.8-17.6-0.7l-57.2,45.1l-121-104.2c-2.8-2.4-6.8-2.4-9.6-0.1L445.9,703.9
						c2.6,0,15.2,0,20.8,0H733h225h127.5h95.6c12.3,0,34.7,0,34.7,0L983.7,490.2z"/>
				</g>
				<g>
					<circle class="st3" cx="1026" cy="411.3" r="49.6"/>
				</g>
			</g>
			<g>
				<line class="st4" x1="1182.9" y1="291.9" x2="1198.1" y2="291.9"/>
				<line class="st4" x1="1182.9" y1="298.5" x2="1198.1" y2="298.5"/>
				<line class="st4" x1="1182.9" y1="285.2" x2="1198.1" y2="285.2"/>
			</g>
			<g>
				<g>
					
						<ellipse transform="matrix(0.1697 -0.9855 0.9855 0.1697 104.4603 760.895)" class="st5" cx="503.8" cy="318.5" rx="25.1" ry="25.1"/>
				</g>
				<text transform="matrix(1 0 0 1 484.8389 324.3213)" class="st5 st6 st7">logo</text>
			</g>
			<g>
				<g>
					<g>
						<path class="st8" d="M793.4,686c-0.1,0-0.2,0-0.3-0.1l-4.8-4.8c-0.1-0.1-0.1-0.3-0.1-0.4s0.2-0.2,0.4-0.2h17.7v0.8h-16.7
							l4.2,4.2c0.1,0.1,0.1,0.2,0.1,0.3s0,0.2-0.1,0.3S793.5,686,793.4,686z"/>
					</g>
					<g>
						<path class="st8" d="M823,681.1h-34.4l0,0l0,0l0,0l0,0l0,0c-0.1,0-0.2,0-0.2-0.1l0,0c0-0.1-0.1-0.1-0.1-0.2v-0.1l0,0l0,0
							c0-0.1,0-0.2,0.1-0.2l0,0l0,0l0,0l0,0l0,0l0,0l0,0l0,0l0,0l4.8-4.8c0.2-0.2,0.4-0.2,0.6,0c0.1,0.1,0.1,0.2,0.1,0.3
							s0,0.2-0.1,0.3l-4.2,4.2H823c0.2,0,0.4,0.2,0.4,0.4C823.4,681,823.2,681.1,823,681.1z"/>
					</g>
				</g>
				<g>
					<g>
						<path class="st8" d="M868.2,686c-0.1,0-0.2,0-0.3-0.1s-0.1-0.2-0.1-0.3s0-0.2,0.1-0.3l4.2-4.2h-16.7v-0.8H873
							c0.2,0,0.3,0.1,0.4,0.2s0,0.3-0.1,0.4l-4.8,4.8C868.4,685.9,868.3,686,868.2,686z"/>
					</g>
					<g>
						<path class="st8" d="M873,681.1h-34.4c-0.2,0-0.4-0.2-0.4-0.4s0.2-0.4,0.4-0.4H872l-4.2-4.2c-0.1-0.1-0.1-0.2-0.1-0.3
							s0-0.2,0.1-0.3c0.2-0.2,0.4-0.2,0.6,0l4.8,4.8l0,0l0,0l0,0l0,0l0,0c0.1,0.1,0.1,0.2,0.1,0.3v0.1c0,0.1,0,0.1-0.1,0.2l0,0l0,0
							l0,0C873.2,681.1,873.2,681.1,873,681.1L873,681.1L873,681.1C873.1,681.1,873.1,681.1,873,681.1L873,681.1L873,681.1
							L873,681.1C873.1,681.1,873,681.1,873,681.1z"/>
					</g>
				</g>
			</g>
			<g class="st9">
				<g>
					<path class="st10" d="M604.7,481.4H481.9c-1.8,0-3.2-1.4-3.2-3.2v-23.6c0-1.8,1.4-3.2,3.2-3.2h122.8c1.8,0,3.2,1.4,3.2,3.2
						v23.6C608,480,606.5,481.4,604.7,481.4z"/>
				</g>
				<g>
					<path class="st10" d="M626.2,441.4H481.9c-1.8,0-3.2-1.4-3.2-3.2v-23.6c0-1.8,1.4-3.2,3.2-3.2h144.3c1.8,0,3.2,1.4,3.2,3.2
						v23.6C629.4,439.9,628,441.4,626.2,441.4z"/>
				</g>
				<g>
					<g>
						<g>
							<polygon class="st11" points="595.6,646 597.5,649.9 601.7,650.5 598.6,653.5 599.4,657.7 595.6,655.7 591.8,657.7 
								592.5,653.5 589.5,650.5 593.7,649.9 							"/>
							<path class="st11" d="M623.4,647.1c-1.5-1.5-4.3-0.6-5.5,1.8c-1.3-2.3-4-3.3-5.5-1.8s-1.5,4,0,5.5l5.5,5.5l5.5-5.5
								C624.9,651,624.9,648.6,623.4,647.1z"/>
						</g>
						<g>
							<polygon class="st11" points="549.2,646 551.1,649.9 555.3,650.5 552.2,653.5 552.9,657.7 549.2,655.7 545.4,657.7 
								546.1,653.5 543.1,650.5 547.3,649.9 							"/>
							<path class="st11" d="M577,647.1c-1.5-1.5-4.3-0.6-5.5,1.8c-1.3-2.3-4-3.3-5.5-1.8s-1.5,4,0,5.5l5.5,5.5l5.5-5.5
								C578.5,651,578.5,648.6,577,647.1z"/>
						</g>
					</g>
					<g>
						<polygon class="st11" points="549.2,646 551.1,649.9 555.3,650.5 552.2,653.5 552.9,657.7 549.2,655.7 545.4,657.7 
							546.1,653.5 543.1,650.5 547.3,649.9 						"/>
						<path class="st11" d="M577,647.1c-1.5-1.5-4.3-0.6-5.5,1.8c-1.3-2.3-4-3.3-5.5-1.8s-1.5,4,0,5.5l5.5,5.5l5.5-5.5
							C578.5,651,578.5,648.6,577,647.1z"/>
					</g>
				</g>
				<g>
					<path class="st12" d="M626.2,609.5h-97.8c-1.8,0-3.2-1.4-3.2-3.2v-1.8c0-1.8,1.4-3.2,3.2-3.2h97.8c1.8,0,3.2,1.4,3.2,3.2v1.8
						C629.4,608,628,609.5,626.2,609.5z"/>
				</g>
				<g>
					<path class="st12" d="M569.8,625.5h-88.3c-1.8,0-3.2-1.4-3.2-3.2v-1.8c0-1.8,1.4-3.2,3.2-3.2h88.3c1.8,0,3.2,1.4,3.2,3.2v1.8
						C573,624,571.5,625.5,569.8,625.5z"/>
				</g>
				<path class="st11" d="M521.8,657.7h-40.3c-1.8,0-3.2-1.4-3.2-3.2V650c0-1.8,1.4-3.2,3.2-3.2h40.3c1.8,0,3.2,1.4,3.2,3.2v4.5
					C525,656.2,523.5,657.7,521.8,657.7z"/>
				<g>
					<path class="st12" d="M513.8,609.5h-32.3c-1.8,0-3.2-1.4-3.2-3.2v-1.8c0-1.8,1.4-3.2,3.2-3.2h32.3c1.8,0,3.2,1.4,3.2,3.2v1.8
						C517,608,515.5,609.5,513.8,609.5z"/>
				</g>
				<g>
					<path class="st12" d="M626.2,593.5h-65.8c-1.8,0-3.2-1.4-3.2-3.2v-1.8c0-1.8,1.4-3.2,3.2-3.2h65.8c1.8,0,3.2,1.4,3.2,3.2v1.8
						C629.4,592,628,593.5,626.2,593.5z"/>
				</g>
				<g>
					<path class="st12" d="M545.8,593.5h-64.3c-1.8,0-3.2-1.4-3.2-3.2v-1.8c0-1.8,1.4-3.2,3.2-3.2h64.3c1.8,0,3.2,1.4,3.2,3.2v1.8
						C549,592,547.5,593.5,545.8,593.5z"/>
				</g>
				<g>
					<path class="st12" d="M626.2,577.5h-41.8c-1.8,0-3.2-1.4-3.2-3.2v-1.8c0-1.8,1.4-3.2,3.2-3.2h41.8c1.8,0,3.2,1.4,3.2,3.2v1.8
						C629.4,576,628,577.5,626.2,577.5z"/>
				</g>
				<g>
					<path class="st12" d="M569.8,577.5h-88.3c-1.8,0-3.2-1.4-3.2-3.2v-1.8c0-1.8,1.4-3.2,3.2-3.2h88.3c1.8,0,3.2,1.4,3.2,3.2v1.8
						C573,576,571.5,577.5,569.8,577.5z"/>
				</g>
				<g>
					<path class="st12" d="M626.2,561.5H481.5c-1.8,0-3.2-1.4-3.2-3.2v-1.8c0-1.8,1.4-3.2,3.2-3.2h144.7c1.8,0,3.2,1.4,3.2,3.2v1.8
						C629.4,560,628,561.5,626.2,561.5z"/>
				</g>
				<g>
					<path class="st5" d="M549.5,529.6h-60.3c-5.8,0-10.5-4.7-10.5-10.5l0,0c0-5.8,4.7-10.5,10.5-10.5h60.3
						c5.8,0,10.5,4.7,10.5,10.5l0,0C560,524.9,555.3,529.6,549.5,529.6z"/>
					<path class="st11" d="M548.4,524.7h-10.7c-1.8,0-3.2-1.4-3.2-3.2V517c0-1.8,1.4-3.2,3.2-3.2h10.7c1.8,0,3.2,1.4,3.2,3.2v4.5
						C551.6,523.3,550.2,524.7,548.4,524.7z"/>
					<path class="st11" d="M525.9,524.7h-35.2c-1.8,0-3.2-1.4-3.2-3.2V517c0-1.8,1.4-3.2,3.2-3.2h35.2c1.8,0,3.2,1.4,3.2,3.2v4.5
						C529.1,523.3,527.7,524.7,525.9,524.7z"/>
				</g>
			</g>
		</g>
	</g>
	<text transform="matrix(1 0 0 1 1299.0801 327.0615)" class="st13 st14 st15">Sidebar</text>
	<text transform="matrix(1 0 0 1 1299.0801 344.3615)" class="st13 st14 st15">SlideLeft</text>
	<g>
		<g>
			<polyline class="st16" points="1190.5,311.7 1190.5,323.9 1285.2,323.9 			"/>
			<g>
				<circle class="st13" cx="1190.5" cy="311.9" r="3.8"/>
			</g>
		</g>
	</g>
	<text transform="matrix(1 0 0 1 1299.0801 487.0615)" class="st13 st14 st15">Fullscreen</text>
	<text transform="matrix(1 0 0 1 1299.0801 504.3615)" class="st13 st14 st15">Slider:</text>
	<text transform="matrix(1 0 0 1 1299.0801 517.7615)" class="st13 st14 st17">– img</text>
	<text transform="matrix(1 0 0 1 1299.0801 531.2615)" class="st13 st14 st17">– video</text>
	<g>
		<g>
			<line class="st16" x1="1071.3" y1="483.9" x2="1285.2" y2="483.9"/>
			<g>
				<circle class="st13" cx="1071.5" cy="483.9" r="3.8"/>
			</g>
		</g>
	</g>
	<text transform="matrix(1 0 0 1 1299.0801 295.0615)" class="st18 st14 st15">Global Nav</text>
	<g>
		<g>
			<line class="st19" x1="1207.3" y1="291.9" x2="1285.2" y2="291.9"/>
			<g>
				<circle class="st18" cx="1207.5" cy="291.9" r="3.8"/>
			</g>
		</g>
	</g>
	<text transform="matrix(1 0 0 1 883.0801 742.2617)" class="st18 st14 st15">Local Nav</text>
	<g>
		<g>
			<polyline class="st19" points="830.8,690.8 830.8,739.1 869.2,739.1 			"/>
			<g>
				<circle class="st18" cx="830.8" cy="691" r="3.8"/>
			</g>
		</g>
	</g>
	<text transform="matrix(1 0 0 1 283.4019 655.8691)" class="st18 st14 st15">Social Icons</text>
	<g>
		<g>
			<line class="st19" x1="465.9" y1="652.7" x2="388" y2="652.7"/>
			<g>
				<circle class="st18" cx="465.7" cy="652.7" r="3.8"/>
			</g>
		</g>
	</g>
	<text transform="matrix(1 0 0 1 289.0703 593.2695)" class="st20 st14 st15">Description</text>
	<g>
		<g>
			<line class="st21" x1="465.9" y1="591.1" x2="388" y2="591.1"/>
			<g>
				<circle class="st20" cx="465.7" cy="591.1" r="3.8"/>
			</g>
		</g>
	</g>
	<g>
		<text transform="matrix(1 0 0 1 347.4805 522.2695)" class="st18 st14 st15">CTA</text>
	</g>
	<g>
		<g>
			<line class="st19" x1="465.9" y1="519.1" x2="388" y2="519.1"/>
			<g>
				<circle class="st18" cx="465.7" cy="519.1" r="3.8"/>
			</g>
		</g>
	</g>
	<text transform="matrix(1 0 0 1 311.1787 450.2695)" class="st20 st14 st15">Headline</text>
	<g>
		<g>
			<line class="st21" x1="465.9" y1="447.1" x2="388" y2="447.1"/>
			<g>
				<circle class="st20" cx="465.7" cy="447.1" r="3.8"/>
			</g>
		</g>
	</g>
	<g>
		<text transform="matrix(1 0 0 1 300.9985 322.2695)" class="st18 st14 st15">Logo/Link</text>
	</g>
	<g>
		<g>
			<line class="st19" x1="465.9" y1="319.1" x2="388" y2="319.1"/>
			<g>
				<circle class="st18" cx="465.7" cy="319.1" r="3.8"/>
			</g>
		</g>
	</g>
	<g>
		<text transform="matrix(1 0 0 1 221.2202 164.3984)" class="st20 st14 st22">CONTENT</text>
	</g>
	<circle class="st20" cx="201.6" cy="160.3" r="11.9"/>
	<g>
		<text transform="matrix(1 0 0 1 352.6865 164.3989)" class="st13 st14 st22">LAYOUT</text>
	</g>
	<circle class="st13" cx="333.8" cy="160.3" r="11.9"/>
	<text transform="matrix(1 0 0 1 470.3477 164.3984)" class="st18 st14 st22">NAVIGATION</text>
	<circle class="st18" cx="452" cy="160.3" r="11.9"/>
	<g class="st9">
		<text transform="matrix(1 0 0 1 446 245.4639)" class="st14 st15">HOME/COVER GALLERY</text>
	</g>
</g>
</svg>
