<?xml version="1.0" encoding="utf-8"?>
<!-- Generator: Adobe Illustrator 21.1.0, SVG Export Plug-In . SVG Version: 6.00 Build 0)  -->
<svg version="1.1" id="Layer_1" xmlns="http://www.w3.org/2000/svg" xmlns:xlink="http://www.w3.org/1999/xlink" x="0px" y="0px"
	 viewBox="0 0 1600 900" style="enable-background:new 0 0 1600 900;" xml:space="preserve">
<style type="text/css">
	.st0{fill:#F5F5F5;}
	.st1{opacity:0.5;}
	.st2{opacity:0.1;}
	.st3{fill:#212121;}
	.st4{fill:none;stroke:#989898;stroke-linecap:round;stroke-linejoin:round;stroke-miterlimit:10;}
	.st5{fill:#B2B3B3;}
	.st6{font-family:'MyriadPro-Regular';}
	.st7{font-size:20.0366px;}
	.st8{fill:#989898;}
	.st9{fill:#666667;}
	.st10{fill:#808080;}
	.st11{fill:#4D4E4E;}
	.st12{fill:none;stroke:#CCCBCB;stroke-linecap:round;stroke-linejoin:round;stroke-miterlimit:10;}
	.st13{fill:#FFFFFF;stroke:#CCCBCB;stroke-linecap:round;stroke-linejoin:round;stroke-miterlimit:10;}
	.st14{fill:#B3B3B3;}
	.st15{font-family:'HelveticaNeue-Medium';}
	.st16{font-size:14.4px;}
	.st17{opacity:0.5;enable-background:new    ;}
	.st18{fill:#39B44A;}
	.st19{fill:none;stroke:#39B44A;stroke-miterlimit:10;}
	.st20{opacity:0.5;fill:#808080;enable-background:new    ;}
	.st21{fill:#F69220;}
	.st22{fill:none;stroke:#F69220;stroke-miterlimit:10;}
</style>
<g id="Layer_1_1_">
	<g>
		<rect class="st0" width="1600" height="900"/>
	</g>
</g>
<g id="Layer_2">
	<g class="st1">
		<g>
			<g class="st2">
				<g>
					<path class="st3" d="M697.7,483.2c-4.9-4.5-12.3-4.8-17.6-0.7l-57.2,45.1l-121-104.2c-2.8-2.4-6.8-2.4-9.6-0.1L159.9,696.9
						c2.6,0,15.2,0,20.8,0H447h225h127.5H895c12.3,0,34.7,0,34.7,0L697.7,483.2z"/>
				</g>
				<g>
					<circle class="st3" cx="740" cy="404.3" r="49.6"/>
				</g>
			</g>
			<g>
				<line class="st4" x1="896.9" y1="284.9" x2="912.1" y2="284.9"/>
				<line class="st4" x1="896.9" y1="291.5" x2="912.1" y2="291.5"/>
				<line class="st4" x1="896.9" y1="278.2" x2="912.1" y2="278.2"/>
			</g>
			<g>
				<g>
					
						<ellipse transform="matrix(0.1697 -0.9855 0.9855 0.1697 -126.1073 473.2309)" class="st5" cx="217.8" cy="311.5" rx="25.1" ry="25.1"/>
				</g>
				<text transform="matrix(1 0 0 1 198.8389 317.3213)" class="st5 st6 st7">logo</text>
			</g>
			<g>
				<g>
					<g>
						<path class="st8" d="M507.4,679c-0.1,0-0.2,0-0.3-0.1l-4.8-4.8c-0.1-0.1-0.1-0.3-0.1-0.4c0.1-0.1,0.2-0.2,0.4-0.2h17.7v0.8
							h-16.7l4.2,4.2c0.1,0.1,0.1,0.2,0.1,0.3s0,0.2-0.1,0.3S507.5,679,507.4,679z"/>
					</g>
					<g>
						<path class="st8" d="M537,674.1h-34.4l0,0l0,0l0,0l0,0l0,0c-0.1,0-0.2,0-0.2-0.1l0,0c-0.1-0.1-0.1-0.1-0.1-0.2v-0.1l0,0l0,0
							c0-0.1,0-0.2,0.1-0.2l0,0l0,0l0,0l0,0l0,0l0,0l0,0l0,0l0,0l4.8-4.8c0.2-0.2,0.4-0.2,0.6,0c0.1,0.1,0.1,0.2,0.1,0.3
							s0,0.2-0.1,0.3l-4.2,4.2H537c0.2,0,0.4,0.2,0.4,0.4C537.4,674,537.2,674.1,537,674.1z"/>
					</g>
				</g>
				<g>
					<g>
						<path class="st8" d="M582.2,679c-0.1,0-0.2,0-0.3-0.1s-0.1-0.2-0.1-0.3s0-0.2,0.1-0.3l4.2-4.2h-16.7v-0.8H587
							c0.2,0,0.3,0.1,0.4,0.2s0,0.3-0.1,0.4l-4.8,4.8C582.4,678.9,582.3,679,582.2,679z"/>
					</g>
					<g>
						<path class="st8" d="M587,674.1h-34.4c-0.2,0-0.4-0.2-0.4-0.4s0.2-0.4,0.4-0.4H586l-4.2-4.2c-0.1-0.1-0.1-0.2-0.1-0.3
							s0-0.2,0.1-0.3c0.2-0.2,0.4-0.2,0.6,0l4.8,4.8l0,0l0,0l0,0l0,0l0,0c0.1,0.1,0.1,0.2,0.1,0.3v0.1c0,0.1,0,0.1-0.1,0.2l0,0l0,0
							l0,0C587.2,674.1,587.2,674.1,587,674.1L587,674.1L587,674.1C587.1,674.1,587.1,674.1,587,674.1L587,674.1L587,674.1
							L587,674.1C587.1,674.1,587,674.1,587,674.1z"/>
					</g>
				</g>
			</g>
			<g class="st1">
				<g>
					<path class="st9" d="M318.7,474.4H195.9c-1.8,0-3.2-1.4-3.2-3.2v-23.6c0-1.8,1.4-3.2,3.2-3.2h122.8c1.8,0,3.2,1.4,3.2,3.2v23.6
						C322,473,320.5,474.4,318.7,474.4z"/>
				</g>
				<g>
					<path class="st9" d="M340.2,434.4H195.9c-1.8,0-3.2-1.4-3.2-3.2v-23.6c0-1.8,1.4-3.2,3.2-3.2h144.3c1.8,0,3.2,1.4,3.2,3.2v23.6
						C343.4,432.9,342,434.4,340.2,434.4z"/>
				</g>
				<g>
					<g>
						<g>
							<polygon class="st10" points="309.6,639 311.5,642.9 315.7,643.5 312.6,646.5 313.4,650.7 309.6,648.7 305.8,650.7 
								306.5,646.5 303.5,643.5 307.7,642.9 							"/>
							<path class="st10" d="M337.4,640.1c-1.5-1.5-4.3-0.6-5.5,1.8c-1.3-2.3-4-3.3-5.5-1.8s-1.5,4,0,5.5l5.5,5.5l5.5-5.5
								C338.9,644,338.9,641.6,337.4,640.1z"/>
						</g>
						<g>
							<polygon class="st10" points="263.2,639 265.1,642.9 269.3,643.5 266.2,646.5 266.9,650.7 263.2,648.7 259.4,650.7 
								260.1,646.5 257.1,643.5 261.3,642.9 							"/>
							<path class="st10" d="M291,640.1c-1.5-1.5-4.3-0.6-5.5,1.8c-1.3-2.3-4-3.3-5.5-1.8s-1.5,4,0,5.5l5.5,5.5l5.5-5.5
								C292.5,644,292.5,641.6,291,640.1z"/>
						</g>
					</g>
					<g>
						<polygon class="st10" points="263.2,639 265.1,642.9 269.3,643.5 266.2,646.5 266.9,650.7 263.2,648.7 259.4,650.7 
							260.1,646.5 257.1,643.5 261.3,642.9 						"/>
						<path class="st10" d="M291,640.1c-1.5-1.5-4.3-0.6-5.5,1.8c-1.3-2.3-4-3.3-5.5-1.8s-1.5,4,0,5.5l5.5,5.5l5.5-5.5
							C292.5,644,292.5,641.6,291,640.1z"/>
					</g>
				</g>
				<g>
					<path class="st11" d="M340.2,602.5h-97.8c-1.8,0-3.2-1.4-3.2-3.2v-1.8c0-1.8,1.4-3.2,3.2-3.2h97.8c1.8,0,3.2,1.4,3.2,3.2v1.8
						C343.4,601,342,602.5,340.2,602.5z"/>
				</g>
				<g>
					<path class="st11" d="M283.8,618.5h-88.3c-1.8,0-3.2-1.4-3.2-3.2v-1.8c0-1.8,1.4-3.2,3.2-3.2h88.3c1.8,0,3.2,1.4,3.2,3.2v1.8
						C287,617,285.5,618.5,283.8,618.5z"/>
				</g>
				<path class="st10" d="M235.8,650.7h-40.3c-1.8,0-3.2-1.4-3.2-3.2V643c0-1.8,1.4-3.2,3.2-3.2h40.3c1.8,0,3.2,1.4,3.2,3.2v4.5
					C239,649.2,237.5,650.7,235.8,650.7z"/>
				<g>
					<path class="st11" d="M227.8,602.5h-32.3c-1.8,0-3.2-1.4-3.2-3.2v-1.8c0-1.8,1.4-3.2,3.2-3.2h32.3c1.8,0,3.2,1.4,3.2,3.2v1.8
						C231,601,229.5,602.5,227.8,602.5z"/>
				</g>
				<g>
					<path class="st11" d="M340.2,586.5h-65.8c-1.8,0-3.2-1.4-3.2-3.2v-1.8c0-1.8,1.4-3.2,3.2-3.2h65.8c1.8,0,3.2,1.4,3.2,3.2v1.8
						C343.4,585,342,586.5,340.2,586.5z"/>
				</g>
				<g>
					<path class="st11" d="M259.8,586.5h-64.3c-1.8,0-3.2-1.4-3.2-3.2v-1.8c0-1.8,1.4-3.2,3.2-3.2h64.3c1.8,0,3.2,1.4,3.2,3.2v1.8
						C263,585,261.5,586.5,259.8,586.5z"/>
				</g>
				<g>
					<path class="st11" d="M340.2,570.5h-41.8c-1.8,0-3.2-1.4-3.2-3.2v-1.8c0-1.8,1.4-3.2,3.2-3.2h41.8c1.8,0,3.2,1.4,3.2,3.2v1.8
						C343.4,569,342,570.5,340.2,570.5z"/>
				</g>
				<g>
					<path class="st11" d="M283.8,570.5h-88.3c-1.8,0-3.2-1.4-3.2-3.2v-1.8c0-1.8,1.4-3.2,3.2-3.2h88.3c1.8,0,3.2,1.4,3.2,3.2v1.8
						C287,569,285.5,570.5,283.8,570.5z"/>
				</g>
				<g>
					<path class="st11" d="M340.2,554.5H195.5c-1.8,0-3.2-1.4-3.2-3.2v-1.8c0-1.8,1.4-3.2,3.2-3.2h144.7c1.8,0,3.2,1.4,3.2,3.2v1.8
						C343.4,553,342,554.5,340.2,554.5z"/>
				</g>
				<g>
					<path class="st5" d="M263.5,522.6h-60.3c-5.8,0-10.5-4.7-10.5-10.5l0,0c0-5.8,4.7-10.5,10.5-10.5h60.3
						c5.8,0,10.5,4.7,10.5,10.5l0,0C274,517.9,269.3,522.6,263.5,522.6z"/>
					<path class="st10" d="M262.4,517.7h-10.7c-1.8,0-3.2-1.4-3.2-3.2V510c0-1.8,1.4-3.2,3.2-3.2h10.7c1.8,0,3.2,1.4,3.2,3.2v4.5
						C265.6,516.3,264.2,517.7,262.4,517.7z"/>
					<path class="st10" d="M239.9,517.7h-35.2c-1.8,0-3.2-1.4-3.2-3.2V510c0-1.8,1.4-3.2,3.2-3.2h35.2c1.8,0,3.2,1.4,3.2,3.2v4.5
						C243.1,516.3,241.7,517.7,239.9,517.7z"/>
				</g>
			</g>
			<rect x="159.9" y="263.9" class="st12" width="769.8" height="433"/>
		</g>
	</g>
	<rect x="752.6" y="264" class="st13" width="177.2" height="433"/>
	<g class="st1">
		<g>
			<path class="st9" d="M855.9,386.5h-32.4c-1.8,0-3.2-1.4-3.2-3.2v-4.5c0-1.8,1.4-3.2,3.2-3.2h32.4c1.8,0,3.2,1.4,3.2,3.2v4.5
				C859.1,385,857.7,386.5,855.9,386.5z"/>
		</g>
		<g>
			<path class="st9" d="M807.9,386.5h-32.4c-1.8,0-3.2-1.4-3.2-3.2v-4.5c0-1.8,1.4-3.2,3.2-3.2h32.4c1.8,0,3.2,1.4,3.2,3.2v4.5
				C811.1,385,809.7,386.5,807.9,386.5z"/>
		</g>
		<g>
			<path class="st9" d="M855.7,354.5h-80.1c-1.8,0-3.2-1.4-3.2-3.2v-4.5c0-1.8,1.4-3.2,3.2-3.2h80.1c1.8,0,3.2,1.4,3.2,3.2v4.5
				C858.9,353,857.4,354.5,855.7,354.5z"/>
		</g>
		<g>
			<path class="st9" d="M839.8,418.5h-64.3c-1.8,0-3.2-1.4-3.2-3.2v-4.5c0-1.8,1.4-3.2,3.2-3.2h64.3c1.8,0,3.2,1.4,3.2,3.2v4.5
				C843,417,841.6,418.5,839.8,418.5z"/>
		</g>
		<g>
			<path class="st9" d="M839.8,322.5h-64.3c-1.8,0-3.2-1.4-3.2-3.2v-4.5c0-1.8,1.4-3.2,3.2-3.2h64.3c1.8,0,3.2,1.4,3.2,3.2v4.5
				C843,321,841.6,322.5,839.8,322.5z"/>
		</g>
	</g>
	<g class="st1">
		<path class="st9" d="M815.8,290.5h-40.3c-1.8,0-3.2-1.4-3.2-3.2v-4.5c0-1.8,1.4-3.2,3.2-3.2h40.3c1.8,0,3.2,1.4,3.2,3.2v4.5
			C819,289,817.6,290.5,815.8,290.5z"/>
	</g>
	<line class="st12" x1="910" y1="279.6" x2="899.2" y2="290.4"/>
	<line class="st12" x1="899.2" y1="279.6" x2="910" y2="290.4"/>
	<g>
		<text transform="matrix(1 0 0 1 752 225.7563)" class="st14 st15 st16">SIDEBAR NAVIGATION</text>
		<text transform="matrix(1 0 0 1 752 243.0563)" class="st17 st15 st16">LIST – COLLASED</text>
	</g>
	<g>
		<text transform="matrix(1 0 0 1 537.668 305.3296)" class="st18 st15 st16">List of categories</text>
	</g>
	<g>
		<g>
			<line class="st19" x1="762.4" y1="302.1" x2="684.5" y2="302.1"/>
			<g>
				<circle class="st18" cx="762.2" cy="302.1" r="3.8"/>
			</g>
		</g>
	</g>
	<rect x="1262.8" y="264" class="st13" width="177.2" height="433"/>
	<rect x="1263.8" y="305" class="st20" width="175.4" height="107.5"/>
	<g>
		<path class="st9" d="M1342,399.3h-40.3c-1.8,0-3.2-1.4-3.2-3.2l0,0c0-1.8,1.4-3.2,3.2-3.2h40.3c1.8,0,3.2,1.4,3.2,3.2l0,0
			C1345.2,397.8,1343.8,399.3,1342,399.3z"/>
	</g>
	<g>
		<path class="st9" d="M1342,383.3h-40.3c-1.8,0-3.2-1.4-3.2-3.2l0,0c0-1.8,1.4-3.2,3.2-3.2h40.3c1.8,0,3.2,1.4,3.2,3.2l0,0
			C1345.2,381.8,1343.8,383.3,1342,383.3z"/>
	</g>
	<g>
		<path class="st9" d="M1342,367.3h-40.3c-1.8,0-3.2-1.4-3.2-3.2l0,0c0-1.8,1.4-3.2,3.2-3.2h40.3c1.8,0,3.2,1.4,3.2,3.2l0,0
			C1345.2,365.8,1343.8,367.3,1342,367.3z"/>
	</g>
	<g>
		<path class="st9" d="M1342,351.3h-40.3c-1.8,0-3.2-1.4-3.2-3.2l0,0c0-1.8,1.4-3.2,3.2-3.2h40.3c1.8,0,3.2,1.4,3.2,3.2l0,0
			C1345.2,349.8,1343.8,351.3,1342,351.3z"/>
	</g>
	<g>
		<path class="st9" d="M1342,335.3h-40.3c-1.8,0-3.2-1.4-3.2-3.2l0,0c0-1.8,1.4-3.2,3.2-3.2h40.3c1.8,0,3.2,1.4,3.2,3.2l0,0
			C1345.2,333.8,1343.8,335.3,1342,335.3z"/>
	</g>
	<g>
		<path class="st9" d="M1342,319.3h-40.3c-1.8,0-3.2-1.4-3.2-3.2l0,0c0-1.8,1.4-3.2,3.2-3.2h40.3c1.8,0,3.2,1.4,3.2,3.2l0,0
			C1345.2,317.8,1343.8,319.3,1342,319.3z"/>
	</g>
	<g class="st1">
		<path class="st9" d="M1366.1,506.5h-32.4c-1.8,0-3.2-1.4-3.2-3.2v-4.5c0-1.8,1.4-3.2,3.2-3.2h32.4c1.8,0,3.2,1.4,3.2,3.2v4.5
			C1369.3,505,1367.9,506.5,1366.1,506.5z"/>
	</g>
	<g class="st1">
		<path class="st9" d="M1318.1,506.5h-32.4c-1.8,0-3.2-1.4-3.2-3.2v-4.5c0-1.8,1.4-3.2,3.2-3.2h32.4c1.8,0,3.2,1.4,3.2,3.2v4.5
			C1321.3,505,1319.9,506.5,1318.1,506.5z"/>
	</g>
	<g class="st1">
		<path class="st9" d="M1365.9,474.5h-80.1c-1.8,0-3.2-1.4-3.2-3.2v-4.5c0-1.8,1.4-3.2,3.2-3.2h80.1c1.8,0,3.2,1.4,3.2,3.2v4.5
			C1369.1,473,1367.6,474.5,1365.9,474.5z"/>
	</g>
	<g class="st1">
		<path class="st9" d="M1350,538.5h-64.3c-1.8,0-3.2-1.4-3.2-3.2v-4.5c0-1.8,1.4-3.2,3.2-3.2h64.3c1.8,0,3.2,1.4,3.2,3.2v4.5
			C1353.2,537,1351.8,538.5,1350,538.5z"/>
	</g>
	<g class="st1">
		<path class="st9" d="M1350,442.5h-64.3c-1.8,0-3.2-1.4-3.2-3.2v-4.5c0-1.8,1.4-3.2,3.2-3.2h64.3c1.8,0,3.2,1.4,3.2,3.2v4.5
			C1353.2,441,1351.8,442.5,1350,442.5z"/>
	</g>
	<g class="st1">
		<path class="st9" d="M1326,290.5h-40.3c-1.8,0-3.2-1.4-3.2-3.2v-4.5c0-1.8,1.4-3.2,3.2-3.2h40.3c1.8,0,3.2,1.4,3.2,3.2v4.5
			C1329.2,289,1327.8,290.5,1326,290.5z"/>
	</g>
	<text transform="matrix(1 0 0 1 1262.2002 225.7563)" class="st14 st15 st16">SIDEBAR NAVIGATION</text>
	<g class="st1">
		<text transform="matrix(1 0 0 1 1262.2002 243.0563)" class="st15 st16">LIST – EXPANDED</text>
	</g>
	<g>
		<text transform="matrix(1 0 0 1 1076.4082 360.5298)" class="st18 st15 st16">List of Covers</text>
	</g>
	<g>
		<text transform="matrix(1 1.030000e-03 -1.030000e-03 1 1054.5511 535.5949)" class="st21 st15 st16">Expandable tabs</text>
	</g>
	<g>
		<g>
			<line class="st22" x1="1273" y1="296.9" x2="1273" y2="534.5"/>
			<g>
				<circle class="st21" cx="1273" cy="297.1" r="3.8"/>
			</g>
		</g>
	</g>
	<g>
		<text transform="matrix(1 0 0 1 1115.1572 288.5298)" class="st18 st15 st16">Category</text>
	</g>
	<g>
		<g>
			<line class="st19" x1="1272.6" y1="285.3" x2="1194.7" y2="285.3"/>
			<g>
				<circle class="st18" cx="1272.4" cy="285.3" r="3.8"/>
			</g>
		</g>
	</g>
	<g>
		<g>
			<polyline class="st22" points="1272.6,532.5 1194.7,532.5 1276.2,532.5 			"/>
			<g>
				<circle class="st21" cx="1272.4" cy="532.5" r="3.8"/>
			</g>
		</g>
	</g>
	<g>
		<g>
			<circle class="st21" cx="1273.4" cy="468.5" r="3.8"/>
		</g>
	</g>
	<g>
		<g>
			<polyline class="st22" points="1273.6,437.3 1271.7,437.3 1277.2,437.3 			"/>
			<g>
				<circle class="st21" cx="1273.4" cy="437.3" r="3.8"/>
			</g>
		</g>
	</g>
	<g>
		<g>
			<circle class="st21" cx="1273.4" cy="500.5" r="3.8"/>
		</g>
	</g>
	<g>
		<g>
			<line class="st19" x1="1288.6" y1="357.3" x2="1194.7" y2="357.3"/>
			<g>
				<circle class="st18" cx="1288.4" cy="357.3" r="3.8"/>
			</g>
		</g>
	</g>
</g>
</svg>
