<?xml version="1.0" encoding="utf-8"?>
<!-- Generator: Adobe Illustrator 21.1.0, SVG Export Plug-In . SVG Version: 6.00 Build 0)  -->
<svg version="1.1" id="Layer_1" xmlns="http://www.w3.org/2000/svg" xmlns:xlink="http://www.w3.org/1999/xlink" x="0px" y="0px"
	 viewBox="0 0 1600 900" style="enable-background:new 0 0 1600 900;" xml:space="preserve">
<style type="text/css">
	.st0{fill:#F5F5F5;}
	.st1{clip-path:url(#SVGID_2_);}
	.st2{fill:#FFFFFF;stroke:#CCCBCB;stroke-linecap:round;stroke-linejoin:round;stroke-miterlimit:10;}
	.st3{fill:#28AAE1;}
	.st4{font-family:'HelveticaNeue-Medium';}
	.st5{font-size:11.5748px;}
	.st6{font-size:9.0026px;}
	.st7{fill:none;stroke:#28AAE1;stroke-miterlimit:10;}
	.st8{enable-background:new    ;}
	.st9{fill:#009147;}
	.st10{fill:none;stroke:#009147;stroke-miterlimit:10;}
	.st11{fill:#F69220;}
	.st12{fill:none;stroke:#F69220;stroke-miterlimit:10;}
	.st13{fill:#39B44A;}
	.st14{fill:none;stroke:#39B44A;stroke-miterlimit:10;}
	.st15{fill:#B2B3B3;}
	.st16{font-family:'MyriadPro-Regular';}
	.st17{font-size:16.1056px;}
	.st18{opacity:0.5;}
	.st19{fill:#666667;}
	.st20{fill:#BBCBD3;}
	.st21{opacity:0.1;}
	.st22{fill:#212121;}
	.st23{fill:#B5C6CF;}
	.st24{fill:#AEC2CA;}
	.st25{fill:#A8BDC6;}
	.st26{fill:none;stroke:#BBCBD3;stroke-miterlimit:10;}
	.st27{fill:#7F8080;}
	.st28{fill:#99999A;}
	.st29{font-size:14.4px;}
</style>
<g id="Layer_1_1_">
	<g>
		<rect class="st0" width="1600" height="900"/>
	</g>
</g>
<g id="Layer_2">
	<g>
		<g>
			<g>
				<defs>
					<rect id="SVGID_1_" width="1600" height="900"/>
				</defs>
				<clipPath id="SVGID_2_">
					<use xlink:href="#SVGID_1_"  style="overflow:visible;"/>
				</clipPath>
				<g class="st1">
					<g>
						<rect x="191.5" y="175.5" class="st2" width="618.8" height="1024"/>
						<g>
							<text transform="matrix(1 0 0 1 94.5361 651.2236)" class="st3 st4 st5">Media:</text>
							<text transform="matrix(1 0 0 1 94.5361 662.0236)" class="st3 st4 st6">– img</text>
							<text transform="matrix(1 0 0 1 94.5361 672.8236)" class="st3 st4 st6">– video</text>
							<text transform="matrix(1 0 0 1 94.5361 683.6235)" class="st3 st4 st6">– gallery</text>
						</g>
						<g>
							<g>
								<line class="st7" x1="320.5" y1="649.5" x2="142.8" y2="649.5"/>
								<g>
									<circle class="st3" cx="320.3" cy="649.5" r="3.8"/>
								</g>
							</g>
						</g>
						<text transform="matrix(1 0 0 1 62.9688 1003.4199)" class="st3 st5" style="font-family:'Helvetica-Light';">Multiple img</text>
						<g>
							<g>
								<line class="st7" x1="320.5" y1="1000.8" x2="142.8" y2="1000.8"/>
								<g>
									<circle class="st3" cx="320.3" cy="1000.8" r="3.8"/>
								</g>
							</g>
						</g>
						<g>
							<text transform="matrix(1 0 0 1 87.0322 459.1138)" class="st3 st4 st5">Caption</text>
						</g>
						<g>
							<g>
								<line class="st7" x1="301.2" y1="456.5" x2="142.8" y2="456.5"/>
								<g>
									<circle class="st3" cx="301" cy="456.5" r="3.8"/>
								</g>
							</g>
						</g>
						<g>
							<text transform="matrix(1 0 0 1 111.2812 793.4971)" class="st9 st4 st5">CTA</text>
						</g>
						<g>
							<g>
								<line class="st10" x1="294.8" y1="790.9" x2="142.8" y2="790.9"/>
								<g>
									<circle class="st9" cx="294.6" cy="790.9" r="3.8"/>
								</g>
							</g>
						</g>
						<g>
							<text transform="matrix(1 0 0 1 29.7031 318.9302)" class="st3 st4 st5">Headline / Quote</text>
						</g>
						<g>
							<g>
								<line class="st7" x1="294.8" y1="316.4" x2="142.8" y2="316.4"/>
								<g>
									<circle class="st3" cx="294.6" cy="316.4" r="3.8"/>
								</g>
							</g>
						</g>
						<g>
							<text transform="matrix(1 0 0 1 42.2891 261.0562)" class="st11 st4 st5">Fixed Position</text>
						</g>
						<g>
							<g>
								<polyline class="st12" points="237.3,242.8 237.3,258.5 142.8,258.5 								"/>
								<g>
									<circle class="st11" cx="237.3" cy="243" r="3.8"/>
								</g>
							</g>
						</g>
						<g>
							<text transform="matrix(1 0 0 1 29.0439 216.043)" class="st13 st4 st5">Logo / Back Link</text>
						</g>
						<g>
							<g>
								<line class="st14" x1="204.7" y1="213.5" x2="142.8" y2="213.5"/>
								<g>
									<circle class="st13" cx="204.5" cy="213.5" r="3.8"/>
								</g>
							</g>
						</g>
						<g>
							<g>
								<g>
									
										<ellipse transform="matrix(0.1697 -0.9855 0.9855 0.1697 -12.9909 412.1197)" class="st15" cx="238.1" cy="213.8" rx="20.2" ry="20.2"/>
								</g>
								<text transform="matrix(1 0 0 1 222.7773 218.4854)" class="st15 st16 st17">logo</text>
							</g>
						</g>
						<g>
							<path class="st15" d="M307.8,218.2h-32.4c-1.4,0-2.6-1.2-2.6-2.6V212c0-1.4,1.2-2.6,2.6-2.6h32.4c1.4,0,2.6,1.2,2.6,2.6v3.6
								C310.4,217,309.2,218.2,307.8,218.2z"/>
						</g>
						<g class="st18">
							<g>
								<path class="st19" d="M465,332.2H313.4c-1.4,0-2.6-1.2-2.6-2.6v-19c0-1.4,1.2-2.6,2.6-2.6H465c1.4,0,2.6,1.2,2.6,2.6v19
									C467.6,331,466.4,332.2,465,332.2z"/>
							</g>
							<g>
								<path class="st19" d="M695.6,332.2H489c-1.4,0-2.6-1.2-2.6-2.6v-19c0-1.4,1.2-2.6,2.6-2.6h206.5c1.4,0,2.6,1.2,2.6,2.6v19
									C698.2,331,697,332.2,695.6,332.2z"/>
							</g>
							<g>
								<path class="st19" d="M384.3,370.6h-71c-1.4,0-2.6-1.2-2.6-2.6v-19c0-1.4,1.2-2.6,2.6-2.6h71c1.4,0,2.6,1.2,2.6,2.6v19
									C386.9,369.5,385.8,370.6,384.3,370.6z"/>
							</g>
							<g>
								<path class="st19" d="M636.4,370.6H408.7c-1.4,0-2.6-1.2-2.6-2.6v-19c0-1.4,1.2-2.6,2.6-2.6h227.7c1.4,0,2.6,1.2,2.6,2.6v19
									C639,369.5,637.8,370.6,636.4,370.6z"/>
							</g>
							<g>
								<path class="st19" d="M555.8,293.6H313.4c-1.4,0-2.6-1.2-2.6-2.6v-19c0-1.4,1.2-2.6,2.6-2.6h242.5c1.4,0,2.6,1.2,2.6,2.6v19
									C558.4,292.4,557.3,293.6,555.8,293.6z"/>
							</g>
							<g>
								<path class="st19" d="M695.6,293.6H579.3c-1.4,0-2.6-1.2-2.6-2.6v-19c0-1.4,1.2-2.6,2.6-2.6h116.3c1.4,0,2.6,1.2,2.6,2.6v19
									C698.2,292.4,697,293.6,695.6,293.6z"/>
							</g>
							<g>
								<path class="st19" d="M695.6,400.5H579.2c-1.4,0-2.6-1.2-2.6-2.6v-3.6c0-1.4,1.2-2.6,2.6-2.6h116.3c1.4,0,2.6,1.2,2.6,2.6
									v3.6C698.2,399.3,697,400.5,695.6,400.5z"/>
							</g>
						</g>
						<g>
							<g>
								<path class="st20" d="M673.2,1157.6H539.3c-1.4,0-2.6-1.2-2.6-2.6v-1.4c0-1.4,1.2-2.6,2.6-2.6h133.8c1.4,0,2.6,1.2,2.6,2.6
									v1.4C675.7,1156.4,674.6,1157.6,673.2,1157.6z"/>
							</g>
							<g>
								<path class="st20" d="M673.2,1196.2H514.6c-1.4,0-2.6-1.2-2.6-2.6v-1.4c0-1.4,1.2-2.6,2.6-2.6h158.5c1.4,0,2.6,1.2,2.6,2.6
									v1.4C675.7,1195,674.6,1196.2,673.2,1196.2z"/>
							</g>
							<g>
								<path class="st20" d="M502.9,1196.2H477c-1.4,0-2.6-1.2-2.6-2.6v-1.4c0-1.4,1.2-2.6,2.6-2.6h25.9c1.4,0,2.6,1.2,2.6,2.6v1.4
									C505.4,1195,504.3,1196.2,502.9,1196.2z"/>
							</g>
							<g>
								<path class="st20" d="M673.2,1183.3H564.9c-1.4,0-2.6-1.2-2.6-2.6v-1.4c0-1.4,1.2-2.6,2.6-2.6h108.3c1.4,0,2.6,1.2,2.6,2.6
									v1.4C675.7,1182.2,674.6,1183.3,673.2,1183.3z"/>
							</g>
							<g>
								<path class="st20" d="M673.2,1170.5h-70.6c-1.4,0-2.6-1.2-2.6-2.6v-1.4c0-1.4,1.2-2.6,2.6-2.6h70.6c1.4,0,2.6,1.2,2.6,2.6
									v1.4C675.7,1169.3,674.6,1170.5,673.2,1170.5z"/>
							</g>
							<g>
								<path class="st20" d="M591.3,1170.5H489.9c-1.4,0-2.6-1.2-2.6-2.6v-1.4c0-1.4,1.2-2.6,2.6-2.6h101.4c1.4,0,2.6,1.2,2.6,2.6
									v1.4C593.9,1169.3,592.7,1170.5,591.3,1170.5z"/>
							</g>
							<g>
								<path class="st20" d="M527.7,1157.6H449c-1.4,0-2.6-1.2-2.6-2.6v-1.4c0-1.4,1.2-2.6,2.6-2.6h78.7c1.4,0,2.6,1.2,2.6,2.6v1.4
									C530.2,1156.4,529.1,1157.6,527.7,1157.6z"/>
							</g>
							<g>
								<path class="st20" d="M464.8,1196.2h-91.7c-1.4,0-2.6-1.2-2.6-2.6v-1.4c0-1.4,1.2-2.6,2.6-2.6h91.7c1.4,0,2.6,1.2,2.6,2.6
									v1.4C467.4,1195,466.3,1196.2,464.8,1196.2z"/>
							</g>
							<g>
								<path class="st20" d="M361.4,1196.2h-25.9c-1.4,0-2.6-1.2-2.6-2.6v-1.4c0-1.4,1.2-2.6,2.6-2.6h25.9c1.4,0,2.6,1.2,2.6,2.6
									v1.4C364,1195,362.8,1196.2,361.4,1196.2z"/>
							</g>
							<g>
								<path class="st20" d="M555,1183.3H398.9c-1.4,0-2.6-1.2-2.6-2.6v-1.4c0-1.4,1.2-2.6,2.6-2.6H555c1.4,0,2.6,1.2,2.6,2.6v1.4
									C557.6,1182.2,556.4,1183.3,555,1183.3z"/>
							</g>
							<g>
								<path class="st20" d="M387.1,1183.3h-51.7c-1.4,0-2.6-1.2-2.6-2.6v-1.4c0-1.4,1.2-2.6,2.6-2.6h51.7c1.4,0,2.6,1.2,2.6,2.6
									v1.4C389.7,1182.2,388.5,1183.3,387.1,1183.3z"/>
							</g>
							<g>
								<path class="st20" d="M479.3,1170.5h-61.1c-1.4,0-2.6-1.2-2.6-2.6v-1.4c0-1.4,1.2-2.6,2.6-2.6h61.1c1.4,0,2.6,1.2,2.6,2.6
									v1.4C481.9,1169.3,480.7,1170.5,479.3,1170.5z"/>
							</g>
							<g>
								<path class="st20" d="M406.4,1170.5h-71c-1.4,0-2.6-1.2-2.6-2.6v-1.4c0-1.4,1.2-2.6,2.6-2.6h71c1.4,0,2.6,1.2,2.6,2.6v1.4
									C409,1169.3,407.8,1170.5,406.4,1170.5z"/>
							</g>
							<g>
								<path class="st20" d="M438.1,1157.6H335.4c-1.4,0-2.6-1.2-2.6-2.6v-1.4c0-1.4,1.2-2.6,2.6-2.6h102.7c1.4,0,2.6,1.2,2.6,2.6
									v1.4C440.7,1156.4,439.5,1157.6,438.1,1157.6z"/>
							</g>
						</g>
						<g>
							<g>
								<path class="st20" d="M673.2,1080.4H539.3c-1.4,0-2.6-1.2-2.6-2.6v-1.4c0-1.4,1.2-2.6,2.6-2.6h133.8c1.4,0,2.6,1.2,2.6,2.6
									v1.4C675.7,1079.3,674.6,1080.4,673.2,1080.4z"/>
							</g>
							<g>
								<path class="st20" d="M673.2,1119H514.6c-1.4,0-2.6-1.2-2.6-2.6v-1.4c0-1.4,1.2-2.6,2.6-2.6h158.5c1.4,0,2.6,1.2,2.6,2.6
									v1.4C675.7,1117.9,674.6,1119,673.2,1119z"/>
							</g>
							<g>
								<path class="st20" d="M502.9,1119H477c-1.4,0-2.6-1.2-2.6-2.6v-1.4c0-1.4,1.2-2.6,2.6-2.6h25.9c1.4,0,2.6,1.2,2.6,2.6v1.4
									C505.4,1117.9,504.3,1119,502.9,1119z"/>
							</g>
							<g>
								<path class="st20" d="M673.2,1106.2H564.9c-1.4,0-2.6-1.2-2.6-2.6v-1.4c0-1.4,1.2-2.6,2.6-2.6h108.3c1.4,0,2.6,1.2,2.6,2.6
									v1.4C675.7,1105,674.6,1106.2,673.2,1106.2z"/>
							</g>
							<g>
								<path class="st20" d="M673.2,1093.3h-70.6c-1.4,0-2.6-1.2-2.6-2.6v-1.4c0-1.4,1.2-2.6,2.6-2.6h70.6c1.4,0,2.6,1.2,2.6,2.6
									v1.4C675.7,1092.1,674.6,1093.3,673.2,1093.3z"/>
							</g>
							<g>
								<path class="st20" d="M591.3,1093.3H489.9c-1.4,0-2.6-1.2-2.6-2.6v-1.4c0-1.4,1.2-2.6,2.6-2.6h101.4c1.4,0,2.6,1.2,2.6,2.6
									v1.4C593.9,1092.1,592.7,1093.3,591.3,1093.3z"/>
							</g>
							<g>
								<path class="st20" d="M527.7,1080.4H449c-1.4,0-2.6-1.2-2.6-2.6v-1.4c0-1.4,1.2-2.6,2.6-2.6h78.7c1.4,0,2.6,1.2,2.6,2.6v1.4
									C530.2,1079.3,529.1,1080.4,527.7,1080.4z"/>
							</g>
							<g>
								<path class="st20" d="M464.8,1119h-91.7c-1.4,0-2.6-1.2-2.6-2.6v-1.4c0-1.4,1.2-2.6,2.6-2.6h91.7c1.4,0,2.6,1.2,2.6,2.6v1.4
									C467.4,1117.9,466.3,1119,464.8,1119z"/>
							</g>
							<g>
								<path class="st20" d="M406.4,1131.9h-71c-1.4,0-2.6-1.2-2.6-2.6v-1.4c0-1.4,1.2-2.6,2.6-2.6h71c1.4,0,2.6,1.2,2.6,2.6v1.4
									C409,1130.7,407.8,1131.9,406.4,1131.9z"/>
							</g>
							<g>
								<path class="st20" d="M361.4,1119h-25.9c-1.4,0-2.6-1.2-2.6-2.6v-1.4c0-1.4,1.2-2.6,2.6-2.6h25.9c1.4,0,2.6,1.2,2.6,2.6v1.4
									C364,1117.9,362.8,1119,361.4,1119z"/>
							</g>
							<g>
								<path class="st20" d="M555,1106.2H398.9c-1.4,0-2.6-1.2-2.6-2.6v-1.4c0-1.4,1.2-2.6,2.6-2.6H555c1.4,0,2.6,1.2,2.6,2.6v1.4
									C557.6,1105,556.4,1106.2,555,1106.2z"/>
							</g>
							<g>
								<path class="st20" d="M387.1,1106.2h-51.7c-1.4,0-2.6-1.2-2.6-2.6v-1.4c0-1.4,1.2-2.6,2.6-2.6h51.7c1.4,0,2.6,1.2,2.6,2.6
									v1.4C389.7,1105,388.5,1106.2,387.1,1106.2z"/>
							</g>
							<g>
								<path class="st20" d="M479.3,1093.3h-61.1c-1.4,0-2.6-1.2-2.6-2.6v-1.4c0-1.4,1.2-2.6,2.6-2.6h61.1c1.4,0,2.6,1.2,2.6,2.6
									v1.4C481.9,1092.1,480.7,1093.3,479.3,1093.3z"/>
							</g>
							<g>
								<path class="st20" d="M406.4,1093.3h-71c-1.4,0-2.6-1.2-2.6-2.6v-1.4c0-1.4,1.2-2.6,2.6-2.6h71c1.4,0,2.6,1.2,2.6,2.6v1.4
									C409,1092.1,407.8,1093.3,406.4,1093.3z"/>
							</g>
							<g>
								<path class="st20" d="M438.1,1080.4H335.4c-1.4,0-2.6-1.2-2.6-2.6v-1.4c0-1.4,1.2-2.6,2.6-2.6h102.7c1.4,0,2.6,1.2,2.6,2.6
									v1.4C440.7,1079.3,439.5,1080.4,438.1,1080.4z"/>
							</g>
						</g>
						<g>
							<g>
								<path class="st15" d="M673.2,879.2H539.3c-1.4,0-2.6-1.2-2.6-2.6v-1.4c0-1.4,1.2-2.6,2.6-2.6h133.8c1.4,0,2.6,1.2,2.6,2.6
									v1.4C675.7,878,674.6,879.2,673.2,879.2z"/>
							</g>
							<g>
								<path class="st15" d="M673.2,917.7H514.6c-1.4,0-2.6-1.2-2.6-2.6v-1.4c0-1.4,1.2-2.6,2.6-2.6h158.5c1.4,0,2.6,1.2,2.6,2.6
									v1.4C675.7,916.6,674.6,917.7,673.2,917.7z"/>
							</g>
							<g>
								<path class="st15" d="M502.9,917.7H477c-1.4,0-2.6-1.2-2.6-2.6v-1.4c0-1.4,1.2-2.6,2.6-2.6h25.9c1.4,0,2.6,1.2,2.6,2.6v1.4
									C505.4,916.6,504.3,917.7,502.9,917.7z"/>
							</g>
							<g>
								<path class="st15" d="M673.2,904.9H564.9c-1.4,0-2.6-1.2-2.6-2.6v-1.4c0-1.4,1.2-2.6,2.6-2.6h108.3c1.4,0,2.6,1.2,2.6,2.6
									v1.4C675.7,903.7,674.6,904.9,673.2,904.9z"/>
							</g>
							<g>
								<path class="st15" d="M673.2,892h-70.6c-1.4,0-2.6-1.2-2.6-2.6V888c0-1.4,1.2-2.6,2.6-2.6h70.6c1.4,0,2.6,1.2,2.6,2.6v1.4
									C675.7,890.9,674.6,892,673.2,892z"/>
							</g>
							<g>
								<path class="st15" d="M591.3,892H489.9c-1.4,0-2.6-1.2-2.6-2.6V888c0-1.4,1.2-2.6,2.6-2.6h101.4c1.4,0,2.6,1.2,2.6,2.6v1.4
									C593.9,890.9,592.7,892,591.3,892z"/>
							</g>
							<g>
								<path class="st15" d="M527.7,879.2H449c-1.4,0-2.6-1.2-2.6-2.6v-1.4c0-1.4,1.2-2.6,2.6-2.6h78.7c1.4,0,2.6,1.2,2.6,2.6v1.4
									C530.2,878,529.1,879.2,527.7,879.2z"/>
							</g>
							<g>
								<path class="st15" d="M464.8,917.7h-91.7c-1.4,0-2.6-1.2-2.6-2.6v-1.4c0-1.4,1.2-2.6,2.6-2.6h91.7c1.4,0,2.6,1.2,2.6,2.6
									v1.4C467.4,916.6,466.3,917.7,464.8,917.7z"/>
							</g>
							<g>
								<path class="st15" d="M406.4,930.6h-71c-1.4,0-2.6-1.2-2.6-2.6v-1.4c0-1.4,1.2-2.6,2.6-2.6h71c1.4,0,2.6,1.2,2.6,2.6v1.4
									C409,929.4,407.8,930.6,406.4,930.6z"/>
							</g>
							<g>
								<path class="st15" d="M361.4,917.7h-25.9c-1.4,0-2.6-1.2-2.6-2.6v-1.4c0-1.4,1.2-2.6,2.6-2.6h25.9c1.4,0,2.6,1.2,2.6,2.6
									v1.4C364,916.6,362.8,917.7,361.4,917.7z"/>
							</g>
							<g>
								<path class="st15" d="M555,904.9H398.9c-1.4,0-2.6-1.2-2.6-2.6v-1.4c0-1.4,1.2-2.6,2.6-2.6H555c1.4,0,2.6,1.2,2.6,2.6v1.4
									C557.6,903.7,556.4,904.9,555,904.9z"/>
							</g>
							<g>
								<path class="st15" d="M387.1,904.9h-51.7c-1.4,0-2.6-1.2-2.6-2.6v-1.4c0-1.4,1.2-2.6,2.6-2.6h51.7c1.4,0,2.6,1.2,2.6,2.6
									v1.4C389.7,903.7,388.5,904.9,387.1,904.9z"/>
							</g>
							<g>
								<path class="st15" d="M479.3,892h-61.1c-1.4,0-2.6-1.2-2.6-2.6V888c0-1.4,1.2-2.6,2.6-2.6h61.1c1.4,0,2.6,1.2,2.6,2.6v1.4
									C481.9,890.9,480.7,892,479.3,892z"/>
							</g>
							<g>
								<path class="st15" d="M406.4,892h-71c-1.4,0-2.6-1.2-2.6-2.6V888c0-1.4,1.2-2.6,2.6-2.6h71c1.4,0,2.6,1.2,2.6,2.6v1.4
									C409,890.9,407.8,892,406.4,892z"/>
							</g>
							<g>
								<path class="st15" d="M438.1,879.2H335.4c-1.4,0-2.6-1.2-2.6-2.6v-1.4c0-1.4,1.2-2.6,2.6-2.6h102.7c1.4,0,2.6,1.2,2.6,2.6
									v1.4C440.7,878,439.5,879.2,438.1,879.2z"/>
							</g>
							<g class="st18">
								<path class="st19" d="M345.5,858.9h-32.4c-1.4,0-2.6-1.2-2.6-2.6v-3.6c0-1.4,1.2-2.6,2.6-2.6h32.4c1.4,0,2.6,1.2,2.6,2.6
									v3.6C348.1,857.7,347,858.9,345.5,858.9z"/>
							</g>
						</g>
						<g>
							<g>
								<g>
									<path class="st15" d="M673.2,480.5H539.3c-1.4,0-2.6-1.2-2.6-2.6v-1.4c0-1.4,1.2-2.6,2.6-2.6h133.8c1.4,0,2.6,1.2,2.6,2.6
										v1.4C675.7,479.3,674.6,480.5,673.2,480.5z"/>
								</g>
								<g>
									<path class="st15" d="M673.2,519.1H514.6c-1.4,0-2.6-1.2-2.6-2.6V515c0-1.4,1.2-2.6,2.6-2.6h158.5c1.4,0,2.6,1.2,2.6,2.6
										v1.4C675.7,517.9,674.6,519.1,673.2,519.1z"/>
								</g>
								<g>
									<path class="st15" d="M502.9,519.1H477c-1.4,0-2.6-1.2-2.6-2.6V515c0-1.4,1.2-2.6,2.6-2.6h25.9c1.4,0,2.6,1.2,2.6,2.6v1.4
										C505.4,517.9,504.3,519.1,502.9,519.1z"/>
								</g>
								<g>
									<path class="st15" d="M673.2,506.2H564.9c-1.4,0-2.6-1.2-2.6-2.6v-1.4c0-1.4,1.2-2.6,2.6-2.6h108.3c1.4,0,2.6,1.2,2.6,2.6
										v1.4C675.7,505,674.6,506.2,673.2,506.2z"/>
								</g>
								<g>
									<path class="st15" d="M673.2,493.3h-70.6c-1.4,0-2.6-1.2-2.6-2.6v-1.4c0-1.4,1.2-2.6,2.6-2.6h70.6c1.4,0,2.6,1.2,2.6,2.6
										v1.4C675.7,492.2,674.6,493.3,673.2,493.3z"/>
								</g>
								<g>
									<path class="st15" d="M591.3,493.3H489.9c-1.4,0-2.6-1.2-2.6-2.6v-1.4c0-1.4,1.2-2.6,2.6-2.6h101.4c1.4,0,2.6,1.2,2.6,2.6
										v1.4C593.9,492.2,592.7,493.3,591.3,493.3z"/>
								</g>
								<g>
									<path class="st15" d="M527.7,480.5H449c-1.4,0-2.6-1.2-2.6-2.6v-1.4c0-1.4,1.2-2.6,2.6-2.6h78.7c1.4,0,2.6,1.2,2.6,2.6v1.4
										C530.2,479.3,529.1,480.5,527.7,480.5z"/>
								</g>
								<g>
									<path class="st15" d="M464.8,519.1h-91.7c-1.4,0-2.6-1.2-2.6-2.6V515c0-1.4,1.2-2.6,2.6-2.6h91.7c1.4,0,2.6,1.2,2.6,2.6
										v1.4C467.4,517.9,466.3,519.1,464.8,519.1z"/>
								</g>
								<g>
									<path class="st15" d="M406.4,531.9h-71c-1.4,0-2.6-1.2-2.6-2.6v-1.4c0-1.4,1.2-2.6,2.6-2.6h71c1.4,0,2.6,1.2,2.6,2.6v1.4
										C409,530.8,407.8,531.9,406.4,531.9z"/>
								</g>
								<g>
									<path class="st15" d="M361.4,519.1h-25.9c-1.4,0-2.6-1.2-2.6-2.6V515c0-1.4,1.2-2.6,2.6-2.6h25.9c1.4,0,2.6,1.2,2.6,2.6
										v1.4C364,517.9,362.8,519.1,361.4,519.1z"/>
								</g>
								<g>
									<path class="st15" d="M555,506.2H398.9c-1.4,0-2.6-1.2-2.6-2.6v-1.4c0-1.4,1.2-2.6,2.6-2.6H555c1.4,0,2.6,1.2,2.6,2.6v1.4
										C557.6,505,556.4,506.2,555,506.2z"/>
								</g>
								<g>
									<path class="st15" d="M387.1,506.2h-51.7c-1.4,0-2.6-1.2-2.6-2.6v-1.4c0-1.4,1.2-2.6,2.6-2.6h51.7c1.4,0,2.6,1.2,2.6,2.6
										v1.4C389.7,505,388.5,506.2,387.1,506.2z"/>
								</g>
								<g>
									<path class="st15" d="M479.3,493.3h-61.1c-1.4,0-2.6-1.2-2.6-2.6v-1.4c0-1.4,1.2-2.6,2.6-2.6h61.1c1.4,0,2.6,1.2,2.6,2.6
										v1.4C481.9,492.2,480.7,493.3,479.3,493.3z"/>
								</g>
								<g>
									<path class="st15" d="M406.4,493.3h-71c-1.4,0-2.6-1.2-2.6-2.6v-1.4c0-1.4,1.2-2.6,2.6-2.6h71c1.4,0,2.6,1.2,2.6,2.6v1.4
										C409,492.2,407.8,493.3,406.4,493.3z"/>
								</g>
								<g>
									<path class="st15" d="M438.1,480.5H335.4c-1.4,0-2.6-1.2-2.6-2.6v-1.4c0-1.4,1.2-2.6,2.6-2.6h102.7c1.4,0,2.6,1.2,2.6,2.6
										v1.4C440.7,479.3,439.5,480.5,438.1,480.5z"/>
								</g>
								<g class="st18">
									<path class="st19" d="M345.5,460.2h-32.4c-1.4,0-2.6-1.2-2.6-2.6V454c0-1.4,1.2-2.6,2.6-2.6h32.4c1.4,0,2.6,1.2,2.6,2.6
										v3.6C348.1,459,347,460.2,345.5,460.2z"/>
								</g>
							</g>
						</g>
						<g>
							<rect x="334" y="561.2" class="st2" width="342.9" height="190.8"/>
							<g class="st21">
								<g>
									<path class="st22" d="M573.5,656.7c-2.2-2-5.5-2.1-7.8-0.3l-25.5,20.1l-53.9-46.4c-1.2-1.1-3-1.1-4.3,0L334,751.9
										c1.2,0,6.7,0,9.3,0h118.6h100.2h56.8h42.6c5.5,0,15.4,0,15.4,0L573.5,656.7z"/>
								</g>
								<g>
									<circle class="st22" cx="592.3" cy="623.6" r="22.1"/>
								</g>
							</g>
						</g>
						<g class="st18">
							<g>
								<path class="st15" d="M363.3,798.5h-48.4c-4.7,0-8.5-3.8-8.5-8.5l0,0c0-4.7,3.8-8.5,8.5-8.5h48.4c4.7,0,8.5,3.8,8.5,8.5l0,0
									C371.8,794.7,368,798.5,363.3,798.5z"/>
							</g>
							<g>
								<path class="st19" d="M362.4,794.6h-8.6c-1.4,0-2.6-1.2-2.6-2.6v-3.6c0-1.4,1.2-2.6,2.6-2.6h8.6c1.4,0,2.6,1.2,2.6,2.6v3.6
									C365,793.4,363.9,794.6,362.4,794.6z"/>
							</g>
							<g>
								<path class="st19" d="M344.3,794.6H316c-1.4,0-2.6-1.2-2.6-2.6v-3.6c0-1.4,1.2-2.6,2.6-2.6h28.3c1.4,0,2.6,1.2,2.6,2.6v3.6
									C346.9,793.4,345.8,794.6,344.3,794.6z"/>
							</g>
						</g>
						<g>
							<g>
								<circle class="st20" cx="368.2" cy="1002.1" r="35.3"/>
							</g>
							<g>
								<circle class="st23" cx="459.7" cy="1002.1" r="35.3"/>
							</g>
							<g>
								<circle class="st24" cx="551.3" cy="1002.1" r="35.3"/>
							</g>
							<g>
								<circle class="st25" cx="642.8" cy="1002.1" r="35.3"/>
							</g>
						</g>
						<g>
							<polyline class="st0" points="811.5,1200.9 810.9,1222.1 190.7,1222.1 191.1,1194.3 198.4,1199.5 205.2,1194.3 212,1199.5 
								218.8,1194.3 225.6,1199.5 232.4,1194.3 239.2,1199.5 246,1194.3 252.8,1199.5 259.6,1194.3 266.4,1199.5 273.2,1194.3 
								280,1199.5 286.8,1194.3 293.6,1199.5 300.4,1194.3 307.2,1199.5 314,1194.3 320.8,1199.5 327.6,1194.3 334.4,1199.5 
								341.2,1194.3 348,1199.5 354.8,1194.3 361.6,1199.5 368.4,1194.3 375.2,1199.5 382,1194.3 388.8,1199.5 395.6,1194.3 
								402.4,1199.5 409.2,1194.3 416,1199.5 422.8,1194.3 429.6,1199.5 436.4,1194.3 443.2,1199.5 450,1194.3 456.7,1199.5 
								463.5,1194.3 470.3,1199.5 477.1,1194.3 483.9,1199.5 490.7,1194.3 497.5,1199.5 504.3,1194.3 511.1,1199.5 517.9,1194.3 
								524.7,1199.5 531.5,1194.3 538.3,1199.5 545.1,1194.3 551.9,1199.5 558.7,1194.3 565.5,1199.5 572.3,1194.3 579.1,1199.5 
								585.9,1194.3 592.7,1199.5 599.5,1194.3 606.3,1199.5 613.1,1194.3 619.9,1199.5 626.7,1194.3 633.5,1199.5 640.3,1194.3 
								647.1,1199.5 653.9,1194.3 660.7,1199.5 667.5,1194.3 674.3,1199.5 681.1,1194.3 687.9,1199.5 694.7,1194.3 701.5,1199.5 
								708.3,1194.3 715.1,1199.5 721.9,1194.3 728.7,1199.5 735.5,1194.3 742.4,1199.5 749.2,1194.3 756,1199.5 762.8,1194.3 
								769.6,1199.5 776.4,1194.3 783.2,1199.5 790,1194.3 796.8,1199.5 803.6,1194.3 810.6,1200.1 							"/>
							<polyline class="st26" points="191.6,1194.3 198.4,1199.5 205.2,1194.3 212,1199.5 218.8,1194.3 225.6,1199.5 232.4,1194.3 
								239.2,1199.5 246,1194.3 252.8,1199.5 259.6,1194.3 266.4,1199.5 273.2,1194.3 280,1199.5 286.8,1194.3 293.6,1199.5 
								300.4,1194.3 307.2,1199.5 314,1194.3 320.8,1199.5 327.6,1194.3 334.4,1199.5 341.2,1194.3 348,1199.5 354.8,1194.3 
								361.6,1199.5 368.4,1194.3 375.2,1199.5 382,1194.3 388.8,1199.5 395.6,1194.3 402.4,1199.5 409.2,1194.3 416,1199.5 
								422.8,1194.3 429.6,1199.5 436.4,1194.3 443.2,1199.5 450,1194.3 456.7,1199.5 463.5,1194.3 470.3,1199.5 477.1,1194.3 
								483.9,1199.5 490.7,1194.3 497.5,1199.5 504.3,1194.3 511.1,1199.5 517.9,1194.3 524.7,1199.5 531.5,1194.3 538.3,1199.5 
								545.1,1194.3 551.9,1199.5 558.7,1194.3 565.5,1199.5 572.3,1194.3 579.1,1199.5 585.9,1194.3 592.7,1199.5 599.5,1194.3 
								606.3,1199.5 613.1,1194.3 619.9,1199.5 626.7,1194.3 633.5,1199.5 640.3,1194.3 647.1,1199.5 653.9,1194.3 660.7,1199.5 
								667.5,1194.3 674.3,1199.5 681.1,1194.3 687.9,1199.5 694.7,1194.3 701.5,1199.5 708.3,1194.3 715.1,1199.5 721.9,1194.3 
								728.7,1199.5 735.5,1194.3 742.4,1199.5 749.2,1194.3 756,1199.5 762.8,1194.3 769.6,1199.5 776.4,1194.3 783.2,1199.5 
								790,1194.3 796.8,1199.5 803.6,1194.3 810.4,1199.5 							"/>
						</g>
					</g>
					<g>
						<rect x="949" y="-314.8" class="st2" width="618.8" height="1024"/>
						<g>
							<g>
								<line class="st7" x1="1078" y1="159.1" x2="900.3" y2="159.1"/>
								<g>
									<circle class="st3" cx="1077.8" cy="159.1" r="3.8"/>
								</g>
							</g>
						</g>
						<g>
							<text transform="matrix(1 0 0 1 842.8633 513.0723)" class="st3 st4 st5"> Multiple</text>
							<text transform="matrix(1 0 0 1 863.6633 526.9723)" class="st3 st4 st5">imgs</text>
						</g>
						<g>
							<g>
								<line class="st7" x1="1078" y1="510.5" x2="900.3" y2="510.5"/>
								<g>
									<circle class="st3" cx="1077.8" cy="510.5" r="3.8"/>
								</g>
							</g>
						</g>
						<g>
							<text transform="matrix(1 0 0 1 844.5527 -31.2344)" class="st3 st5" style="font-family:'HelveticaNeue-Bold';">Caption</text>
						</g>
						<g>
							<g>
								<line class="st7" x1="1058.7" y1="-33.8" x2="900.3" y2="-33.8"/>
								<g>
									<circle class="st3" cx="1058.5" cy="-33.8" r="3.8"/>
								</g>
							</g>
						</g>
						<g>
							<text transform="matrix(1 0 0 1 867.7373 303.1489)" class="st13 st4 st5">CTA</text>
						</g>
						<g>
							<g>
								<line class="st14" x1="1052.3" y1="300.6" x2="900.3" y2="300.6"/>
								<g>
									<circle class="st13" cx="1052.1" cy="300.6" r="3.8"/>
								</g>
							</g>
						</g>
						<g>
							<text transform="matrix(1 0 0 1 787.2236 -171.418)" class="st3 st5" style="font-family:'HelveticaNeue-Bold';">Headline / Quote</text>
						</g>
						<g>
							<g>
								<line class="st7" x1="1052.3" y1="-174" x2="900.3" y2="-174"/>
								<g>
									<circle class="st3" cx="1052.1" cy="-174" r="3.8"/>
								</g>
							</g>
						</g>
						<g>
							<text transform="matrix(1 0 0 1 799.8096 -229.292)" class="st11 st5" style="font-family:'Helvetica-Bold';">Fixed Position</text>
						</g>
						<g>
							<g>
								<polyline class="st12" points="994.8,-247.6 994.8,-231.9 900.3,-231.9 								"/>
								<g>
									<circle class="st11" cx="994.8" cy="-247.4" r="3.8"/>
								</g>
							</g>
						</g>
						<g>
							<text transform="matrix(1 0 0 1 786.5645 -274.3052)" class="st13 st5" style="font-family:'HelveticaNeue-Bold';">Logo / Back Link</text>
						</g>
						<g>
							<g>
								<line class="st14" x1="962.2" y1="-276.9" x2="900.3" y2="-276.9"/>
								<g>
									<circle class="st13" cx="962.1" cy="-276.9" r="3.8"/>
								</g>
							</g>
						</g>
						<g>
							<g>
								<g>
									
										<ellipse transform="matrix(0.1697 -0.9855 0.9855 0.1697 1099.1802 751.4468)" class="st15" cx="995.5" cy="-276.6" rx="20.2" ry="20.2"/>
								</g>
								<text transform="matrix(1 0 0 1 980.2988 -271.8628)" class="st15 st16 st17">logo</text>
							</g>
						</g>
						<g>
							<path class="st15" d="M1065.3-272.2h-32.4c-1.4,0-2.6-1.2-2.6-2.6v-3.6c0-1.4,1.2-2.6,2.6-2.6h32.4c1.4,0,2.6,1.2,2.6,2.6
								v3.6C1067.9-273.3,1066.7-272.2,1065.3-272.2z"/>
						</g>
						<g>
							<g>
								<path class="st19" d="M1222.5-158.2h-151.6c-1.4,0-2.6-1.2-2.6-2.6v-19c0-1.4,1.2-2.6,2.6-2.6h151.6c1.4,0,2.6,1.2,2.6,2.6
									v19C1225.1-159.4,1223.9-158.2,1222.5-158.2z"/>
							</g>
							<g>
								<path class="st19" d="M1453.1-158.2h-206.5c-1.4,0-2.6-1.2-2.6-2.6v-19c0-1.4,1.2-2.6,2.6-2.6h206.5c1.4,0,2.6,1.2,2.6,2.6
									v19C1455.7-159.4,1454.5-158.2,1453.1-158.2z"/>
							</g>
							<g>
								<path class="st19" d="M1141.9-119.7h-71c-1.4,0-2.6-1.2-2.6-2.6v-19c0-1.4,1.2-2.6,2.6-2.6h71c1.4,0,2.6,1.2,2.6,2.6v19
									C1144.5-120.9,1143.3-119.7,1141.9-119.7z"/>
							</g>
							<g>
								<path class="st19" d="M1393.9-119.7h-227.7c-1.4,0-2.6-1.2-2.6-2.6v-19c0-1.4,1.2-2.6,2.6-2.6h227.7c1.4,0,2.6,1.2,2.6,2.6
									v19C1396.5-120.9,1395.3-119.7,1393.9-119.7z"/>
							</g>
							<g>
								<path class="st19" d="M1313.4-196.8h-242.5c-1.4,0-2.6-1.2-2.6-2.6v-19c0-1.4,1.2-2.6,2.6-2.6h242.5c1.4,0,2.6,1.2,2.6,2.6
									v19C1315.9-197.9,1314.8-196.8,1313.4-196.8z"/>
							</g>
							<g>
								<path class="st19" d="M1453.1-196.8h-116.3c-1.4,0-2.6-1.2-2.6-2.6v-19c0-1.4,1.2-2.6,2.6-2.6h116.3c1.4,0,2.6,1.2,2.6,2.6
									v19C1455.7-197.9,1454.5-196.8,1453.1-196.8z"/>
							</g>
							<g>
								<path class="st19" d="M1453.1-89.9h-116.3c-1.4,0-2.6-1.2-2.6-2.6v-3.6c0-1.4,1.2-2.6,2.6-2.6h116.3c1.4,0,2.6,1.2,2.6,2.6
									v3.6C1455.7-91,1454.5-89.9,1453.1-89.9z"/>
							</g>
						</g>
						<g>
							<g>
								<path class="st15" d="M1430.7,667.2h-133.8c-1.4,0-2.6-1.2-2.6-2.6v-1.4c0-1.4,1.2-2.6,2.6-2.6h133.8c1.4,0,2.6,1.2,2.6,2.6
									v1.4C1433.2,666.1,1432.1,667.2,1430.7,667.2z"/>
							</g>
							<g>
								<path class="st15" d="M1430.7,705.8h-158.5c-1.4,0-2.6-1.2-2.6-2.6v-1.4c0-1.4,1.2-2.6,2.6-2.6h158.5c1.4,0,2.6,1.2,2.6,2.6
									v1.4C1433.2,704.7,1432.1,705.8,1430.7,705.8z"/>
							</g>
							<g>
								<path class="st15" d="M1260.4,705.8h-25.9c-1.4,0-2.6-1.2-2.6-2.6v-1.4c0-1.4,1.2-2.6,2.6-2.6h25.9c1.4,0,2.6,1.2,2.6,2.6
									v1.4C1262.9,704.7,1261.8,705.8,1260.4,705.8z"/>
							</g>
							<g>
								<path class="st15" d="M1430.7,693h-108.3c-1.4,0-2.6-1.2-2.6-2.6V689c0-1.4,1.2-2.6,2.6-2.6h108.3c1.4,0,2.6,1.2,2.6,2.6
									v1.4C1433.2,691.8,1432.1,693,1430.7,693z"/>
							</g>
							<g>
								<path class="st15" d="M1430.7,680.1h-70.6c-1.4,0-2.6-1.2-2.6-2.6v-1.4c0-1.4,1.2-2.6,2.6-2.6h70.6c1.4,0,2.6,1.2,2.6,2.6
									v1.4C1433.2,679,1432.1,680.1,1430.7,680.1z"/>
							</g>
							<g>
								<path class="st15" d="M1348.8,680.1h-101.4c-1.4,0-2.6-1.2-2.6-2.6v-1.4c0-1.4,1.2-2.6,2.6-2.6h101.4c1.4,0,2.6,1.2,2.6,2.6
									v1.4C1351.4,679,1350.3,680.1,1348.8,680.1z"/>
							</g>
							<g>
								<path class="st15" d="M1285.2,667.2h-78.7c-1.4,0-2.6-1.2-2.6-2.6v-1.4c0-1.4,1.2-2.6,2.6-2.6h78.7c1.4,0,2.6,1.2,2.6,2.6
									v1.4C1287.8,666.1,1286.6,667.2,1285.2,667.2z"/>
							</g>
							<g>
								<path class="st15" d="M1222.4,705.8h-91.7c-1.4,0-2.6-1.2-2.6-2.6v-1.4c0-1.4,1.2-2.6,2.6-2.6h91.7c1.4,0,2.6,1.2,2.6,2.6
									v1.4C1224.9,704.7,1223.8,705.8,1222.4,705.8z"/>
							</g>
							<g>
								<path class="st15" d="M1118.9,705.8H1093c-1.4,0-2.6-1.2-2.6-2.6v-1.4c0-1.4,1.2-2.6,2.6-2.6h25.9c1.4,0,2.6,1.2,2.6,2.6
									v1.4C1121.5,704.7,1120.3,705.8,1118.9,705.8z"/>
							</g>
							<g>
								<path class="st15" d="M1312.5,693h-156.2c-1.4,0-2.6-1.2-2.6-2.6V689c0-1.4,1.2-2.6,2.6-2.6h156.2c1.4,0,2.6,1.2,2.6,2.6
									v1.4C1315.1,691.8,1314,693,1312.5,693z"/>
							</g>
							<g>
								<path class="st15" d="M1144.6,693H1093c-1.4,0-2.6-1.2-2.6-2.6V689c0-1.4,1.2-2.6,2.6-2.6h51.7c1.4,0,2.6,1.2,2.6,2.6v1.4
									C1147.2,691.8,1146,693,1144.6,693z"/>
							</g>
							<g>
								<path class="st15" d="M1236.8,680.1h-61.1c-1.4,0-2.6-1.2-2.6-2.6v-1.4c0-1.4,1.2-2.6,2.6-2.6h61.1c1.4,0,2.6,1.2,2.6,2.6
									v1.4C1239.4,679,1238.2,680.1,1236.8,680.1z"/>
							</g>
							<g>
								<path class="st15" d="M1163.9,680.1h-71c-1.4,0-2.6-1.2-2.6-2.6v-1.4c0-1.4,1.2-2.6,2.6-2.6h71c1.4,0,2.6,1.2,2.6,2.6v1.4
									C1166.5,679,1165.3,680.1,1163.9,680.1z"/>
							</g>
							<g>
								<path class="st15" d="M1195.6,667.2H1093c-1.4,0-2.6-1.2-2.6-2.6v-1.4c0-1.4,1.2-2.6,2.6-2.6h102.7c1.4,0,2.6,1.2,2.6,2.6
									v1.4C1198.2,666.1,1197,667.2,1195.6,667.2z"/>
							</g>
						</g>
						<g>
							<g>
								<path class="st15" d="M1430.7,590.1h-133.8c-1.4,0-2.6-1.2-2.6-2.6v-1.4c0-1.4,1.2-2.6,2.6-2.6h133.8c1.4,0,2.6,1.2,2.6,2.6
									v1.4C1433.2,588.9,1432.1,590.1,1430.7,590.1z"/>
							</g>
							<g>
								<path class="st15" d="M1430.7,628.7h-158.5c-1.4,0-2.6-1.2-2.6-2.6v-1.4c0-1.4,1.2-2.6,2.6-2.6h158.5c1.4,0,2.6,1.2,2.6,2.6
									v1.4C1433.2,627.5,1432.1,628.7,1430.7,628.7z"/>
							</g>
							<g>
								<path class="st15" d="M1260.4,628.7h-25.9c-1.4,0-2.6-1.2-2.6-2.6v-1.4c0-1.4,1.2-2.6,2.6-2.6h25.9c1.4,0,2.6,1.2,2.6,2.6
									v1.4C1262.9,627.5,1261.8,628.7,1260.4,628.7z"/>
							</g>
							<g>
								<path class="st15" d="M1430.7,615.8h-108.3c-1.4,0-2.6-1.2-2.6-2.6v-1.4c0-1.4,1.2-2.6,2.6-2.6h108.3c1.4,0,2.6,1.2,2.6,2.6
									v1.4C1433.2,614.7,1432.1,615.8,1430.7,615.8z"/>
							</g>
							<g>
								<path class="st15" d="M1430.7,602.9h-70.6c-1.4,0-2.6-1.2-2.6-2.6v-1.4c0-1.4,1.2-2.6,2.6-2.6h70.6c1.4,0,2.6,1.2,2.6,2.6
									v1.4C1433.2,601.8,1432.1,602.9,1430.7,602.9z"/>
							</g>
							<g>
								<path class="st15" d="M1348.8,602.9h-101.4c-1.4,0-2.6-1.2-2.6-2.6v-1.4c0-1.4,1.2-2.6,2.6-2.6h101.4c1.4,0,2.6,1.2,2.6,2.6
									v1.4C1351.4,601.8,1350.3,602.9,1348.8,602.9z"/>
							</g>
							<g>
								<path class="st15" d="M1285.2,590.1h-78.7c-1.4,0-2.6-1.2-2.6-2.6v-1.4c0-1.4,1.2-2.6,2.6-2.6h78.7c1.4,0,2.6,1.2,2.6,2.6
									v1.4C1287.8,588.9,1286.6,590.1,1285.2,590.1z"/>
							</g>
							<g>
								<path class="st15" d="M1222.4,628.7h-91.7c-1.4,0-2.6-1.2-2.6-2.6v-1.4c0-1.4,1.2-2.6,2.6-2.6h91.7c1.4,0,2.6,1.2,2.6,2.6
									v1.4C1224.9,627.5,1223.8,628.7,1222.4,628.7z"/>
							</g>
							<g>
								<path class="st15" d="M1163.9,641.5h-71c-1.4,0-2.6-1.2-2.6-2.6v-1.4c0-1.4,1.2-2.6,2.6-2.6h71c1.4,0,2.6,1.2,2.6,2.6v1.4
									C1166.5,640.4,1165.3,641.5,1163.9,641.5z"/>
							</g>
							<g>
								<path class="st15" d="M1118.9,628.7H1093c-1.4,0-2.6-1.2-2.6-2.6v-1.4c0-1.4,1.2-2.6,2.6-2.6h25.9c1.4,0,2.6,1.2,2.6,2.6
									v1.4C1121.5,627.5,1120.3,628.7,1118.9,628.7z"/>
							</g>
							<g>
								<path class="st15" d="M1312.5,615.8h-156.2c-1.4,0-2.6-1.2-2.6-2.6v-1.4c0-1.4,1.2-2.6,2.6-2.6h156.2c1.4,0,2.6,1.2,2.6,2.6
									v1.4C1315.1,614.7,1314,615.8,1312.5,615.8z"/>
							</g>
							<g>
								<path class="st15" d="M1144.6,615.8H1093c-1.4,0-2.6-1.2-2.6-2.6v-1.4c0-1.4,1.2-2.6,2.6-2.6h51.7c1.4,0,2.6,1.2,2.6,2.6
									v1.4C1147.2,614.7,1146,615.8,1144.6,615.8z"/>
							</g>
							<g>
								<path class="st15" d="M1236.8,602.9h-61.1c-1.4,0-2.6-1.2-2.6-2.6v-1.4c0-1.4,1.2-2.6,2.6-2.6h61.1c1.4,0,2.6,1.2,2.6,2.6
									v1.4C1239.4,601.8,1238.2,602.9,1236.8,602.9z"/>
							</g>
							<g>
								<path class="st15" d="M1163.9,602.9h-71c-1.4,0-2.6-1.2-2.6-2.6v-1.4c0-1.4,1.2-2.6,2.6-2.6h71c1.4,0,2.6,1.2,2.6,2.6v1.4
									C1166.5,601.8,1165.3,602.9,1163.9,602.9z"/>
							</g>
							<g>
								<path class="st15" d="M1195.6,590.1H1093c-1.4,0-2.6-1.2-2.6-2.6v-1.4c0-1.4,1.2-2.6,2.6-2.6h102.7c1.4,0,2.6,1.2,2.6,2.6
									v1.4C1198.2,588.9,1197,590.1,1195.6,590.1z"/>
							</g>
						</g>
						<g>
							<g>
								<path class="st15" d="M1430.7,388.8h-133.8c-1.4,0-2.6-1.2-2.6-2.6v-1.4c0-1.4,1.2-2.6,2.6-2.6h133.8c1.4,0,2.6,1.2,2.6,2.6
									v1.4C1433.2,387.7,1432.1,388.8,1430.7,388.8z"/>
							</g>
							<g>
								<path class="st15" d="M1430.7,427.4h-158.5c-1.4,0-2.6-1.2-2.6-2.6v-1.4c0-1.4,1.2-2.6,2.6-2.6h158.5c1.4,0,2.6,1.2,2.6,2.6
									v1.4C1433.2,426.2,1432.1,427.4,1430.7,427.4z"/>
							</g>
							<g>
								<path class="st15" d="M1260.4,427.4h-25.9c-1.4,0-2.6-1.2-2.6-2.6v-1.4c0-1.4,1.2-2.6,2.6-2.6h25.9c1.4,0,2.6,1.2,2.6,2.6
									v1.4C1262.9,426.2,1261.8,427.4,1260.4,427.4z"/>
							</g>
							<g>
								<path class="st15" d="M1430.7,414.5h-108.3c-1.4,0-2.6-1.2-2.6-2.6v-1.4c0-1.4,1.2-2.6,2.6-2.6h108.3c1.4,0,2.6,1.2,2.6,2.6
									v1.4C1433.2,413.4,1432.1,414.5,1430.7,414.5z"/>
							</g>
							<g>
								<path class="st15" d="M1430.7,401.7h-70.6c-1.4,0-2.6-1.2-2.6-2.6v-1.4c0-1.4,1.2-2.6,2.6-2.6h70.6c1.4,0,2.6,1.2,2.6,2.6
									v1.4C1433.2,400.5,1432.1,401.7,1430.7,401.7z"/>
							</g>
							<g>
								<path class="st15" d="M1348.8,401.7h-101.4c-1.4,0-2.6-1.2-2.6-2.6v-1.4c0-1.4,1.2-2.6,2.6-2.6h101.4c1.4,0,2.6,1.2,2.6,2.6
									v1.4C1351.4,400.5,1350.3,401.7,1348.8,401.7z"/>
							</g>
							<g>
								<path class="st15" d="M1285.2,388.8h-78.7c-1.4,0-2.6-1.2-2.6-2.6v-1.4c0-1.4,1.2-2.6,2.6-2.6h78.7c1.4,0,2.6,1.2,2.6,2.6
									v1.4C1287.8,387.7,1286.6,388.8,1285.2,388.8z"/>
							</g>
							<g>
								<path class="st15" d="M1222.4,427.4h-91.7c-1.4,0-2.6-1.2-2.6-2.6v-1.4c0-1.4,1.2-2.6,2.6-2.6h91.7c1.4,0,2.6,1.2,2.6,2.6
									v1.4C1224.9,426.2,1223.8,427.4,1222.4,427.4z"/>
							</g>
							<g>
								<path class="st15" d="M1163.9,440.3h-71c-1.4,0-2.6-1.2-2.6-2.6v-1.4c0-1.4,1.2-2.6,2.6-2.6h71c1.4,0,2.6,1.2,2.6,2.6v1.4
									C1166.5,439.1,1165.3,440.3,1163.9,440.3z"/>
							</g>
							<g>
								<path class="st15" d="M1118.9,427.4H1093c-1.4,0-2.6-1.2-2.6-2.6v-1.4c0-1.4,1.2-2.6,2.6-2.6h25.9c1.4,0,2.6,1.2,2.6,2.6
									v1.4C1121.5,426.2,1120.3,427.4,1118.9,427.4z"/>
							</g>
							<g>
								<path class="st15" d="M1312.5,414.5h-156.2c-1.4,0-2.6-1.2-2.6-2.6v-1.4c0-1.4,1.2-2.6,2.6-2.6h156.2c1.4,0,2.6,1.2,2.6,2.6
									v1.4C1315.1,413.4,1314,414.5,1312.5,414.5z"/>
							</g>
							<g>
								<path class="st15" d="M1144.6,414.5H1093c-1.4,0-2.6-1.2-2.6-2.6v-1.4c0-1.4,1.2-2.6,2.6-2.6h51.7c1.4,0,2.6,1.2,2.6,2.6
									v1.4C1147.2,413.4,1146,414.5,1144.6,414.5z"/>
							</g>
							<g>
								<path class="st15" d="M1236.8,401.7h-61.1c-1.4,0-2.6-1.2-2.6-2.6v-1.4c0-1.4,1.2-2.6,2.6-2.6h61.1c1.4,0,2.6,1.2,2.6,2.6
									v1.4C1239.4,400.5,1238.2,401.7,1236.8,401.7z"/>
							</g>
							<g>
								<path class="st15" d="M1163.9,401.7h-71c-1.4,0-2.6-1.2-2.6-2.6v-1.4c0-1.4,1.2-2.6,2.6-2.6h71c1.4,0,2.6,1.2,2.6,2.6v1.4
									C1166.5,400.5,1165.3,401.7,1163.9,401.7z"/>
							</g>
							<g>
								<path class="st15" d="M1195.6,388.8H1093c-1.4,0-2.6-1.2-2.6-2.6v-1.4c0-1.4,1.2-2.6,2.6-2.6h102.7c1.4,0,2.6,1.2,2.6,2.6
									v1.4C1198.2,387.7,1197,388.8,1195.6,388.8z"/>
							</g>
							<g class="st18">
								<path class="st19" d="M1103.1,368.5h-32.4c-1.4,0-2.6-1.2-2.6-2.6v-3.6c0-1.4,1.2-2.6,2.6-2.6h32.4c1.4,0,2.6,1.2,2.6,2.6
									v3.6C1105.6,367.4,1104.5,368.5,1103.1,368.5z"/>
							</g>
						</g>
						<g>
							<g>
								<g>
									<path class="st15" d="M1430.7-9.9h-133.8c-1.4,0-2.6-1.2-2.6-2.6v-1.4c0-1.4,1.2-2.6,2.6-2.6h133.8c1.4,0,2.6,1.2,2.6,2.6
										v1.4C1433.2-11,1432.1-9.9,1430.7-9.9z"/>
								</g>
								<g>
									<path class="st15" d="M1430.7,28.7h-158.5c-1.4,0-2.6-1.2-2.6-2.6v-1.4c0-1.4,1.2-2.6,2.6-2.6h158.5c1.4,0,2.6,1.2,2.6,2.6
										v1.4C1433.2,27.6,1432.1,28.7,1430.7,28.7z"/>
								</g>
								<g>
									<path class="st15" d="M1260.4,28.7h-25.9c-1.4,0-2.6-1.2-2.6-2.6v-1.4c0-1.4,1.2-2.6,2.6-2.6h25.9c1.4,0,2.6,1.2,2.6,2.6
										v1.4C1262.9,27.6,1261.8,28.7,1260.4,28.7z"/>
								</g>
								<g>
									<path class="st15" d="M1430.7,15.8h-108.3c-1.4,0-2.6-1.2-2.6-2.6v-1.4c0-1.4,1.2-2.6,2.6-2.6h108.3c1.4,0,2.6,1.2,2.6,2.6
										v1.4C1433.2,14.7,1432.1,15.8,1430.7,15.8z"/>
								</g>
								<g>
									<path class="st15" d="M1430.7,3h-70.6c-1.4,0-2.6-1.2-2.6-2.6V-1c0-1.4,1.2-2.6,2.6-2.6h70.6c1.4,0,2.6,1.2,2.6,2.6v1.4
										C1433.2,1.8,1432.1,3,1430.7,3z"/>
								</g>
								<g>
									<path class="st15" d="M1348.8,3h-101.4c-1.4,0-2.6-1.2-2.6-2.6V-1c0-1.4,1.2-2.6,2.6-2.6h101.4c1.4,0,2.6,1.2,2.6,2.6v1.4
										C1351.4,1.8,1350.3,3,1348.8,3z"/>
								</g>
								<g>
									<path class="st15" d="M1285.2-9.9h-78.7c-1.4,0-2.6-1.2-2.6-2.6v-1.4c0-1.4,1.2-2.6,2.6-2.6h78.7c1.4,0,2.6,1.2,2.6,2.6
										v1.4C1287.8-11,1286.6-9.9,1285.2-9.9z"/>
								</g>
								<g>
									<path class="st15" d="M1222.4,28.7h-91.7c-1.4,0-2.6-1.2-2.6-2.6v-1.4c0-1.4,1.2-2.6,2.6-2.6h91.7c1.4,0,2.6,1.2,2.6,2.6
										v1.4C1224.9,27.6,1223.8,28.7,1222.4,28.7z"/>
								</g>
								<g>
									<path class="st15" d="M1163.9,41.6h-71c-1.4,0-2.6-1.2-2.6-2.6v-1.4c0-1.4,1.2-2.6,2.6-2.6h71c1.4,0,2.6,1.2,2.6,2.6V39
										C1166.5,40.4,1165.3,41.6,1163.9,41.6z"/>
								</g>
								<g>
									<path class="st15" d="M1118.9,28.7H1093c-1.4,0-2.6-1.2-2.6-2.6v-1.4c0-1.4,1.2-2.6,2.6-2.6h25.9c1.4,0,2.6,1.2,2.6,2.6
										v1.4C1121.5,27.6,1120.3,28.7,1118.9,28.7z"/>
								</g>
								<g>
									<path class="st15" d="M1312.5,15.8h-156.2c-1.4,0-2.6-1.2-2.6-2.6v-1.4c0-1.4,1.2-2.6,2.6-2.6h156.2c1.4,0,2.6,1.2,2.6,2.6
										v1.4C1315.1,14.7,1314,15.8,1312.5,15.8z"/>
								</g>
								<g>
									<path class="st15" d="M1144.6,15.8H1093c-1.4,0-2.6-1.2-2.6-2.6v-1.4c0-1.4,1.2-2.6,2.6-2.6h51.7c1.4,0,2.6,1.2,2.6,2.6
										v1.4C1147.2,14.7,1146,15.8,1144.6,15.8z"/>
								</g>
								<g>
									<path class="st15" d="M1236.8,3h-61.1c-1.4,0-2.6-1.2-2.6-2.6V-1c0-1.4,1.2-2.6,2.6-2.6h61.1c1.4,0,2.6,1.2,2.6,2.6v1.4
										C1239.4,1.8,1238.2,3,1236.8,3z"/>
								</g>
								<g>
									<path class="st15" d="M1163.9,3h-71c-1.4,0-2.6-1.2-2.6-2.6V-1c0-1.4,1.2-2.6,2.6-2.6h71c1.4,0,2.6,1.2,2.6,2.6v1.4
										C1166.5,1.8,1165.3,3,1163.9,3z"/>
								</g>
								<g>
									<path class="st15" d="M1195.6-9.9H1093c-1.4,0-2.6-1.2-2.6-2.6v-1.4c0-1.4,1.2-2.6,2.6-2.6h102.7c1.4,0,2.6,1.2,2.6,2.6
										v1.4C1198.2-11,1197-9.9,1195.6-9.9z"/>
								</g>
								<g>
									<path class="st19" d="M1103.1-30.2h-32.4c-1.4,0-2.6-1.2-2.6-2.6v-3.6c0-1.4,1.2-2.6,2.6-2.6h32.4c1.4,0,2.6,1.2,2.6,2.6
										v3.6C1105.6-31.3,1104.5-30.2,1103.1-30.2z"/>
								</g>
							</g>
						</g>
						<g>
							<rect x="1091.5" y="70.8" class="st2" width="342.9" height="190.8"/>
							<g class="st21">
								<g>
									<path class="st22" d="M1331,166.4c-2.2-2-5.5-2.1-7.8-0.3l-25.5,20.1l-53.9-46.4c-1.2-1.1-3-1.1-4.3,0l-148.1,121.8
										c1.2,0,6.7,0,9.3,0h118.6h100.2h56.8h42.6c5.5,0,15.4,0,15.4,0L1331,166.4z"/>
								</g>
								<g>
									<circle class="st22" cx="1349.9" cy="133.2" r="22.1"/>
								</g>
							</g>
						</g>
						<g class="st18">
							<g>
								<path class="st15" d="M1120.8,308.2h-48.4c-4.7,0-8.5-3.8-8.5-8.5l0,0c0-4.7,3.8-8.5,8.5-8.5h48.4c4.7,0,8.5,3.8,8.5,8.5
									l0,0C1129.3,304.4,1125.5,308.2,1120.8,308.2z"/>
							</g>
							<g>
								<path class="st19" d="M1120,304.2h-8.6c-1.4,0-2.6-1.2-2.6-2.6V298c0-1.4,1.2-2.6,2.6-2.6h8.6c1.4,0,2.6,1.2,2.6,2.6v3.6
									C1122.5,303.1,1121.4,304.2,1120,304.2z"/>
							</g>
							<g>
								<path class="st19" d="M1101.9,304.2h-28.3c-1.4,0-2.6-1.2-2.6-2.6V298c0-1.4,1.2-2.6,2.6-2.6h28.3c1.4,0,2.6,1.2,2.6,2.6
									v3.6C1104.4,303.1,1103.3,304.2,1101.9,304.2z"/>
							</g>
						</g>
						<g class="st18">
							<g>
								<circle class="st19" cx="1125.7" cy="511.8" r="35.3"/>
							</g>
							<g>
								<circle class="st27" cx="1217.3" cy="511.8" r="35.3"/>
							</g>
							<g>
								<circle class="st28" cx="1308.8" cy="511.8" r="35.3"/>
							</g>
							<g>
								<circle class="st15" cx="1400.3" cy="511.8" r="35.3"/>
							</g>
						</g>
						<g>
							<polyline class="st0" points="1569,710.6 1568.4,731.8 948.2,731.8 948.6,704 955.9,709.1 962.7,704 969.5,709.1 976.3,704 
								983.1,709.1 989.9,704 996.7,709.1 1003.5,704 1010.3,709.1 1017.1,704 1023.9,709.1 1030.7,704 1037.5,709.1 1044.3,704 
								1051.1,709.1 1057.9,704 1064.7,709.1 1071.5,704 1078.3,709.1 1085.1,704 1091.9,709.1 1098.7,704 1105.5,709.1 1112.3,704 
								1119.1,709.1 1125.9,704 1132.7,709.1 1139.5,704 1146.3,709.1 1153.1,704 1159.9,709.1 1166.7,704 1173.5,709.1 1180.3,704 
								1187.1,709.1 1193.9,704 1200.7,709.1 1207.5,704 1214.3,709.1 1221.1,704 1227.9,709.1 1234.7,704 1241.5,709.1 1248.3,704 
								1255.1,709.1 1261.9,704 1268.7,709.1 1275.5,704 1282.3,709.1 1289.1,704 1295.9,709.1 1302.7,704 1309.5,709.1 1316.3,704 
								1323.1,709.1 1329.9,704 1336.7,709.1 1343.5,704 1350.3,709.1 1357.1,704 1363.9,709.1 1370.7,704 1377.5,709.1 1384.3,704 
								1391.1,709.1 1397.9,704 1404.7,709.1 1411.5,704 1418.3,709.1 1425.1,704 1431.9,709.1 1438.7,704 1445.5,709.1 1452.3,704 
								1459.1,709.1 1465.9,704 1472.7,709.1 1479.5,704 1486.3,709.1 1493.1,704 1499.9,709.1 1506.7,704 1513.5,709.1 1520.3,704 
								1527.1,709.1 1533.9,704 1540.7,709.1 1547.5,704 1554.3,709.1 1561.1,704 1568.2,709.8 							"/>
							<polyline class="st2" points="949.1,704 955.9,709.1 962.7,704 969.5,709.1 976.3,704 983.1,709.1 989.9,704 996.7,709.1 
								1003.5,704 1010.3,709.1 1017.1,704 1023.9,709.1 1030.7,704 1037.5,709.1 1044.3,704 1051.1,709.1 1057.9,704 1064.7,709.1 
								1071.5,704 1078.3,709.1 1085.1,704 1091.9,709.1 1098.7,704 1105.5,709.1 1112.3,704 1119.1,709.1 1125.9,704 1132.7,709.1 
								1139.5,704 1146.3,709.1 1153.1,704 1159.9,709.1 1166.7,704 1173.5,709.1 1180.3,704 1187.1,709.1 1193.9,704 1200.7,709.1 
								1207.5,704 1214.3,709.1 1221.1,704 1227.9,709.1 1234.7,704 1241.5,709.1 1248.3,704 1255.1,709.1 1261.9,704 1268.7,709.1 
								1275.5,704 1282.3,709.1 1289.1,704 1295.9,709.1 1302.7,704 1309.5,709.1 1316.3,704 1323.1,709.1 1329.9,704 1336.7,709.1 
								1343.5,704 1350.3,709.1 1357.1,704 1363.9,709.1 1370.7,704 1377.5,709.1 1384.3,704 1391.1,709.1 1397.9,704 1404.7,709.1 
								1411.5,704 1418.3,709.1 1425.1,704 1431.9,709.1 1438.7,704 1445.5,709.1 1452.3,704 1459.1,709.1 1465.9,704 1472.7,709.1 
								1479.5,704 1486.3,709.1 1493.1,704 1499.9,709.1 1506.7,704 1513.5,709.1 1520.3,704 1527.1,709.1 1533.9,704 1540.7,709.1 
								1547.5,704 1554.3,709.1 1561.1,704 1567.9,709.1 							"/>
						</g>
						<g>
							<text transform="matrix(1 0 0 1 850.5361 162.2236)" class="st3 st4 st5">Media:</text>
							<text transform="matrix(1 0 0 1 850.5361 173.0236)" class="st3 st4 st6">– img</text>
							<text transform="matrix(1 0 0 1 850.5361 183.8236)" class="st3 st4 st6">– video</text>
							<text transform="matrix(1 0 0 1 850.5361 194.6236)" class="st3 st4 st6">– gallery</text>
						</g>
					</g>
				</g>
			</g>
		</g>
	</g>
	<g class="st18">
		<text transform="matrix(1 0 0 1 191 152.4639)" class="st4 st29">STORY/INNER PAGE</text>
	</g>
</g>
</svg>
